<svg xmlns="http://www.w3.org/2000/svg" width="17.438" height="17.4" viewBox="0 0 17.438 17.4">
  <defs>
    <style>
      .cls-1 {
        fill: #828282;
        fill-rule: evenodd;
      }
    </style>
  </defs>
  <path id="area" class="cls-1" d="M377.9,1972.39H361.529a0.536,0.536,0,0,0-.534.54v16.36a0.536,0.536,0,0,0,.534.54h2.232a0.537,0.537,0,0,0,.535-0.54v-0.21h10.623a0.525,0.525,0,0,0,.378-0.15l2.232-2.24a0.507,0.507,0,0,0,.157-0.37v-10.63H377.9a0.535,0.535,0,0,0,.535-0.53v-2.23A0.537,0.537,0,0,0,377.9,1972.39Zm-1.291,13.72L374.71,1988v-1.89H376.6Zm-10.611-5.54h-1.7v-4.88h4.881v1.7a0.535,0.535,0,0,0,1.07,0v-1.7h6.369v9.35h-2.441a0.534,0.534,0,0,0-.534.53v2.44H364.3v-6.37h1.7a0.534,0.534,0,0,0,.534-0.53A0.543,0.543,0,0,0,365.993,1980.57Zm11.367-7.11v1.16H364.3v-1.16H377.36Zm-14.134,2.23v13.07h-1.162v-13.07h1.162Zm0-2.23v1.16h-1.162v-1.16h1.162Zm5,8.18h1.488a0.535,0.535,0,0,0,.535-0.53v-1.49a0.535,0.535,0,0,0-1.07,0v0.95h-0.953a0.542,0.542,0,0,0-.534.54A0.534,0.534,0,0,0,368.224,1981.64Z" transform="translate(-361 -1972.41)"/>
</svg>
