<?xml version="1.0" encoding="utf-8"?>
<!-- Generator: Adobe Illustrator 23.0.5, SVG Export Plug-In . SVG Version: 6.00 Build 0)  -->
<svg version="1.1" id="Слой_1" xmlns="http://www.w3.org/2000/svg" xmlns:xlink="http://www.w3.org/1999/xlink" x="0px" y="0px"
	 viewBox="0 0 5.5 9.2" style="enable-background:new 0 0 5.5 9.2;" xml:space="preserve">
<style type="text/css">
	.st0{fill-rule:evenodd;clip-rule:evenodd;fill:#282828;}
</style>
<path id="arrow01_копия_2" class="st0" d="M0.2,4.1C0.3,4.1,0.3,4,0.4,4l3.8-3.8c0.3-0.3,0.7-0.3,1,0c0,0,0,0,0,0
	c0.3,0.3,0.3,0.7,0,1L1.7,4.6l3.6,3.4c0,0,0,0,0,0c0.2,0.3,0.2,0.7,0,0.9C5,9.3,4.6,9.3,4.3,9L0.4,5.2c-0.1,0-0.1-0.1-0.1-0.1
	c0,0-0.1-0.1-0.1-0.1C-0.1,4.7-0.1,4.4,0.2,4.1z"/>
</svg>
