<?xml version="1.0" encoding="utf-8"?>
<!-- Generator: Adobe Illustrator 23.0.5, SVG Export Plug-In . SVG Version: 6.00 Build 0)  -->
<svg version="1.1" id="Слой_1" xmlns="http://www.w3.org/2000/svg" xmlns:xlink="http://www.w3.org/1999/xlink" x="0px" y="0px"
	 viewBox="0 0 48 47" style="enable-background:new 0 0 48 47;" xml:space="preserve">
<style type="text/css">
	.st0{fill:#ED1C24;}
	.st1{fill:#0095DA;}
</style>
<path class="st0" d="M38.4,27.4v-11c0-5.2-3.9-9.5-9.1-10.1l2.7-5.2c0.1-0.2,0.1-0.5,0-0.8C31.7,0.1,31.5,0,31.2,0H16.8
	c-0.3,0-0.5,0.1-0.7,0.4c-0.1,0.2-0.2,0.5,0,0.8l2.7,5.2c-5.2,0.6-9.1,5-9.1,10.1v14.1h1.6V16.5c0-4.8,3.9-8.6,8.8-8.6h8
	c2.3,0,4.6,0.9,6.2,2.5c1.7,1.6,2.6,3.8,2.6,6.1v11H38.4z M27.5,6.3h-7l-2.4-4.7h11.8L27.5,6.3z"/>
<path class="st0" d="M17.2,11.7c0.4-0.2,0.9-0.4,1.4-0.6l-0.4-1.5c-0.6,0.2-1.2,0.4-1.8,0.7L17.2,11.7z"/>
<path class="st0" d="M12.8,19.6h1.6v-3.1c0-1.5,0.6-2.9,1.7-3.9L15,11.4c-1.4,1.3-2.2,3.1-2.2,5.1V19.6z"/>
<path class="st1" d="M2.3,38.5l13.6,7.3c1.5,0.8,3.2,1.2,5,1.2h26.4c0.4,0,0.8-0.4,0.8-0.8V32.1c0-0.4-0.4-0.8-0.8-0.8h-6.1L41,31.3
	c-0.9-0.7-2-1.3-3.1-1.7c-3.9-1.6-8.3-1.2-11.8,1H20c-1.3,0-2.5,0.6-3.2,1.6c-0.8,1-1,2.3-0.6,3.5l-9.9-4.9
	c-1.5-0.7-3.2-0.6-4.5,0.4C0.7,32,0,33.3,0,34.7v0.1C0,36.3,0.9,37.8,2.3,38.5z M41.6,32.9h4.8v12.5h-4.8V32.9z M1.6,34.7
	c0-0.9,0.4-1.7,1.2-2.2c0.8-0.6,1.9-0.7,2.8-0.2L18,38.3c0.1,0.1,0.2,0.1,0.4,0.1h12v-1.6H20c-1.3,0-2.4-1.1-2.4-2.3
	c0-1.3,1.1-2.4,2.4-2.4h6.3c0.2,0,0.3,0,0.4-0.1c3.1-2,7.1-2.4,10.6-1c1,0.4,1.9,0.9,2.7,1.5v12.9H20.8c-1.5,0-2.9-0.4-4.2-1.1
	L3,37.1C2.2,36.6,1.6,35.7,1.6,34.7L1.6,34.7z"/>
<path class="st1" d="M43.2,41.5h1.6v1.6h-1.6V41.5z"/>
<path class="st0" d="M24.8,27.4v-1.6h0.8c1.8,0,3.2-1.4,3.2-3.1c0-1.7-1.4-3.1-3.2-3.1h-3.2c-0.9,0-1.6-0.7-1.6-1.6s0.7-1.6,1.6-1.6
	H28v-1.6h-3.2v-1.6h-1.6v1.6h-0.8c-1.8,0-3.2,1.4-3.2,3.1c0,1.7,1.4,3.1,3.2,3.1h3.2c0.9,0,1.6,0.7,1.6,1.6s-0.7,1.6-1.6,1.6H20v1.6
	h3.2v1.6H24.8z"/>
</svg>
