<?xml version="1.0" encoding="utf-8"?>
<!-- Generator: Adobe Illustrator 23.0.5, SVG Export Plug-In . SVG Version: 6.00 Build 0)  -->
<svg version="1.1" id="Слой_1" xmlns="http://www.w3.org/2000/svg" xmlns:xlink="http://www.w3.org/1999/xlink" x="0px" y="0px"
	 viewBox="0 0 48 48" style="enable-background:new 0 0 48 48;" xml:space="preserve">
<style type="text/css">
	.st0{fill:#ED1C24;}
	.st1{fill:#0095DA;}
</style>
<path class="st0" d="M47.1,37.6c-7.8,0-15.5,3.2-21.1,8.8c-0.4,0.4-0.4,1,0,1.3c0.2,0.2,0.4,0.3,0.7,0.3c0.2,0,0.5-0.1,0.7-0.3
	c5.2-5.2,12.4-8.3,19.8-8.3c0.5,0,0.9-0.4,0.9-0.9C48,38,47.6,37.6,47.1,37.6z"/>
<path class="st0" d="M27.5,36.7c-0.3-0.4-0.9-0.5-1.3-0.3c-4,2.7-7.4,6.1-10.1,10.1c-0.3,0.4-0.2,1,0.3,1.3c0.2,0.1,0.3,0.2,0.5,0.2
	c0.3,0,0.6-0.1,0.8-0.4c2.5-3.8,5.7-7,9.6-9.6C27.7,37.7,27.8,37.2,27.5,36.7z"/>
<path class="st0" d="M47.1,30c-4.2,0-8.3,0.7-12.3,2.1c-0.5,0.2-0.7,0.7-0.6,1.2c0.1,0.4,0.5,0.6,0.9,0.6c0.1,0,0.2,0,0.3-0.1
	c3.8-1.3,7.7-2,11.7-2c0.5,0,0.9-0.4,0.9-0.9C48,30.5,47.6,30,47.1,30z"/>
<path class="st1" d="M13.4,41.6c6.2-8,15.1-13.6,24.9-15.7c0,0,0,0,0,0c2.8-0.6,5.7-0.9,8.7-0.9c0.5,0,0.9-0.4,0.9-0.9
	c0-0.5-0.4-0.9-0.9-0.9c-2.7,0-5.3,0.2-7.9,0.7v-2c3.4-2.9,5.2-6.6,5.2-10.6c0-4.1-2-8-5.6-10.9c-0.3-0.3-0.8-0.3-1.2,0
	C34,3.1,32,7,32,11.1c0,4,1.9,7.8,5.2,10.6v2.4c-1.8,0.4-3.5,0.9-5.3,1.5v-5.5c0-0.3-0.1-0.5-0.3-0.7v0l-5.3-5.3
	c-0.2-0.2-0.4-0.3-0.7-0.3H15.1c-0.2,0-0.5,0.1-0.7,0.3l-5.3,5.3v0C9,19.7,8.9,20,8.9,20.2v3.6c-0.7-0.1-1.3-0.2-2-0.3v-3.3
	c2.6-2.2,4-5.1,4-8.1c0-3.2-1.5-6.2-4.3-8.4c-0.3-0.3-0.8-0.3-1.2,0C2.6,5.8,1.1,8.8,1.1,12c0,3.1,1.4,5.9,4,8.1v3.1
	c-1.4-0.1-2.7-0.2-4.1-0.2C0.4,23.1,0,23.5,0,24s0.4,0.9,0.9,0.9c7.5,0,14.8,2,21.3,5.7c-1.5,1.1-3,2.2-4.4,3.4
	c-5.2-2.7-11.1-4.1-16.9-4.1C0.4,30.1,0,30.5,0,31s0.4,0.9,0.9,0.9c5.3,0,10.6,1.2,15.4,3.6c-1.4,1.4-2.8,2.9-4,4.4
	c-3.6-1.5-7.5-2.3-11.4-2.3C0.4,37.6,0,38,0,38.5c0,0.5,0.4,0.9,0.9,0.9c3.5,0,7,0.7,10.2,2c-0.6,0.9-1.3,1.8-1.8,2.8l-1.4,2.3
	c-0.3,0.4-0.1,1,0.3,1.3C8.4,48,8.5,48,8.7,48c0.3,0,0.6-0.2,0.8-0.4l1.4-2.3c0.7-1.2,1.5-2.4,2.4-3.5
	C13.4,41.7,13.4,41.6,13.4,41.6z M33.9,11.1c0-3.3,1.5-6.5,4.3-9c2.8,2.5,4.3,5.6,4.3,9c0,2.9-1.2,5.7-3.4,8.1V12
	c0-0.5-0.4-0.9-0.9-0.9s-0.9,0.4-0.9,0.9v7.2C35.1,16.9,33.9,14.1,33.9,11.1z M3,12C3,9.6,4,7.3,6,5.5C8,7.3,9,9.6,9,12
	c0,2-0.7,3.9-2.1,5.5v-6.2c0-0.5-0.4-0.9-0.9-0.9c-0.5,0-0.9,0.4-0.9,0.9v6.2C3.7,15.9,3,14,3,12z M28.8,19.3h-8.1l-3.4-3.4h8.1
	L28.8,19.3z M15.1,16.3l3,3h-6L15.1,16.3z M10.8,21.2h8.6v6c-0.4-0.2-0.9-0.4-1.3-0.6v-3.1c0-0.5-0.4-0.9-0.9-0.9H13
	c-0.5,0-0.9,0.4-0.9,0.9v1.1c-0.4-0.1-0.9-0.2-1.3-0.3V21.2z M16.2,25.8c-0.7-0.3-1.5-0.5-2.3-0.8v-0.7h2.3V25.8z M21.3,28v-6.9h8.8
	v5.3c-1.6,0.7-3.2,1.4-4.7,2.3c-0.5,0.3-1,0.6-1.4,0.8C23.1,29,22.2,28.5,21.3,28z"/>
<path class="st1" d="M38.2,9.4c0.2,0,0.5-0.1,0.7-0.3c0.2-0.2,0.3-0.4,0.3-0.7c0-0.2-0.1-0.5-0.3-0.7c-0.2-0.2-0.4-0.3-0.7-0.3
	s-0.5,0.1-0.7,0.3c-0.2,0.2-0.3,0.4-0.3,0.7c0,0.2,0.1,0.5,0.3,0.7C37.7,9.3,37.9,9.4,38.2,9.4z"/>
<path class="st0" d="M30.1,34.2c-0.2,0.2-0.3,0.4-0.3,0.7c0,0.2,0.1,0.5,0.3,0.7c0.2,0.2,0.4,0.3,0.7,0.3c0.2,0,0.5-0.1,0.7-0.3
	c0.2-0.2,0.3-0.4,0.3-0.7c0-0.2-0.1-0.5-0.3-0.7C31.2,34.1,31,34,30.7,34C30.5,34,30.2,34.1,30.1,34.2z"/>
</svg>
