<svg height="392pt" viewBox="-44 0 392 392" width="392pt" xmlns="http://www.w3.org/2000/svg"><path d="m73 47.199219v-35.898438l-61.398438 61.699219h35.597657c6.859375.050781 13.453125-2.648438 18.300781-7.5 4.851562-4.847656 7.550781-11.441406 7.5-18.300781zm0 0"/><path d="m271.601562 0h-182.601562v47.199219c.039062 11.097656-4.351562 21.753906-12.199219 29.601562-7.847656 7.847657-18.503906 12.238281-29.601562 12.199219h-47.199219v271.101562c0 17.597657 14.699219 31.898438 32.398438 31.898438h239.300781c17.601562 0 32.402343-14.300781 32.402343-31.898438v-328.203124c-.101562-17.597657-14.800781-31.898438-32.5-31.898438zm-204.800781 321h-29.5c-4.417969 0-8-3.582031-8-8s3.582031-8 8-8h29.5c4.417969 0 8 3.582031 8 8s-3.582031 8-8 8zm0-80h-29.5c-4.417969 0-8-3.582031-8-8s3.582031-8 8-8h29.5c4.417969 0 8 3.582031 8 8s-3.582031 8-8 8zm0-80h-29.5c-4.417969 0-8-3.582031-8-8s3.582031-8 8-8h29.5c4.417969 0 8 3.582031 8 8s-3.582031 8-8 8zm200 160h-159.601562c-4.417969 0-8-3.582031-8-8s3.582031-8 8-8h159.5c4.414062.011719 7.988281 3.585938 8 8 .015625 2.109375-.804688 4.140625-2.289063 5.640625-1.480468 1.5-3.5 2.347656-5.609375 2.359375zm0-80h-159.601562c-4.417969 0-8-3.582031-8-8s3.582031-8 8-8h159.5c4.414062.011719 7.988281 3.585938 8 8 .015625 2.109375-.804688 4.140625-2.289063 5.640625-1.480468 1.5-3.5 2.347656-5.609375 2.359375zm0-80h-159.601562c-4.417969 0-8-3.582031-8-8s3.582031-8 8-8h159.5c4.414062.011719 7.988281 3.585938 8 8 .015625 2.109375-.804688 4.140625-2.289063 5.640625-1.480468 1.5-3.5 2.347656-5.609375 2.359375zm0 0"/></svg>