<?xml version="1.0" encoding="utf-8"?>
<!-- Generator: Adobe Illustrator 23.0.5, SVG Export Plug-In . SVG Version: 6.00 Build 0)  -->
<svg version="1.1" id="Слой_1" xmlns="http://www.w3.org/2000/svg" xmlns:xlink="http://www.w3.org/1999/xlink" x="0px" y="0px"
	 viewBox="0 0 46 47" style="enable-background:new 0 0 46 47;" xml:space="preserve">
<style type="text/css">
	.st0{fill:#0095DA;}
	.st1{fill:#ED1C24;}
</style>
<path class="st0" d="M46.3,30v-5.4l-20.9-8.1v-1.4l1.5,0.6v-5.4L0,0v5.4L1.5,6v39.5H0V47h46.3v-1.5h-1.5v-16L46.3,30z M1.5,2.2
	l23.9,9.2v2.2L1.5,4.3L1.5,2.2L1.5,2.2z M22.4,42.5h-1.5V44h1.5v1.5H7.5V44h11.9v-1.5H7.5V41h14.9V42.5z M22.4,39.5H7.5V38h14.9
	V39.5z M22.4,33.5H10.5V35h11.9v1.5H7.5V35H9v-1.5H7.5v-1.5h14.9V33.5z M22.4,30.4H7.5v-1.5h14.9V30.4z M43.3,45.5H23.9V28.9h1.5
	v-1.5H4.5v1.5H6v16.6H3v-39l20.9,8.1v6.8l19.4,7.5V45.5z M25.4,20.3v-2.2l19.4,7.5v2.2L25.4,20.3z"/>
<path class="st1" d="M41.8,30.4H26.9V41h14.9V30.4z M33.6,39.5h-5.2v-3h5.2V39.5z M33.6,35h-5.2v-3h5.2V35z M40.3,39.5h-5.2v-3h5.2
	V39.5z M40.3,35h-5.2v-3h5.2V35z"/>
<path class="st1" d="M7.5,25.2h11.9V14.6H7.5V25.2z M14.2,16.1h3.7v3h-3.7V16.1z M14.2,20.7h3.7v3h-3.7V20.7z M9,16.1h3.7v3H9V16.1z
	 M9,20.7h3.7v3H9V20.7z"/>
</svg>
