<svg xmlns="http://www.w3.org/2000/svg" width="12" height="12" viewBox="0 0 12 12">
  <defs>
    <style>
      .cls-1 {
        fill: #828282;
        fill-rule: evenodd;
      }
    </style>
  </defs>
  <path id="instagram" class="cls-1" d="M1413.6,26.921A3.078,3.078,0,1,0,1416.68,30,3.068,3.068,0,0,0,1413.6,26.921Zm0,4.849A1.771,1.771,0,1,1,1415.38,30,1.779,1.779,0,0,1,1413.6,31.77ZM1416.57,24h-5.93a3.037,3.037,0,0,0-3.03,3.034v5.934A3.036,3.036,0,0,0,1410.64,36h5.93a3.036,3.036,0,0,0,3.03-3.034V27.032A3.036,3.036,0,0,0,1416.57,24Zm1.7,8.968a1.7,1.7,0,0,1-1.7,1.7h-5.93a1.7,1.7,0,0,1-1.7-1.7V27.032a1.7,1.7,0,0,1,1.7-1.705h5.93a1.7,1.7,0,0,1,1.7,1.705v5.934Zm-1.5-6.865a0.731,0.731,0,1,1-.73.731A0.733,0.733,0,0,1,1416.77,26.1Z" transform="translate(-1407.59 -24)"/>
</svg>
