<svg xmlns="http://www.w3.org/2000/svg" width="7.968" height="8" viewBox="0 0 7.968 8">
  <defs>
    <style>
      .cls-1 {
        fill: #ed1c24;
        fill-rule: evenodd;
      }
    </style>
  </defs>
  <path id="Фигура_5" data-name="Фигура 5" class="cls-1" d="M755.489,1192.8l2.695,2.7a0.778,0.778,0,0,1,0,1.09,0.758,0.758,0,0,1-1.078,0l-2.7-2.71-2.7,2.71a0.758,0.758,0,0,1-1.078,0,0.778,0.778,0,0,1,0-1.09l2.7-2.7-2.7-2.71a0.766,0.766,0,0,1,0-1.08,0.758,0.758,0,0,1,1.078,0l2.7,2.7,2.7-2.7a0.758,0.758,0,0,1,1.078,0,0.766,0.766,0,0,1,0,1.08Z" transform="translate(-750.438 -1188.81)"/>
</svg>
