<svg xmlns="http://www.w3.org/2000/svg" width="20" height="20" viewBox="0 0 20 20">
  <defs>
    <style>
      .cls-1 {
        fill: #828282;
        fill-rule: evenodd;
      }
    </style>
  </defs>
  <path id="libra" class="cls-1" d="M1260.96,80.129l-2.8-7.293h1.14a0.556,0.556,0,0,0,0-1.11h-7.81V70.554a0.545,0.545,0,0,0-.53-0.555,0.537,0.537,0,0,0-.52.555v1.167h-7.81a0.556,0.556,0,0,0,0,1.11h1.2l-2.79,7.3a0.7,0.7,0,0,0-.04.208,3.605,3.605,0,1,0,7.2,0,0.467,0.467,0,0,0-.04-0.2l-2.78-7.3h5.06V86.337c-2.05.2-3.58,1.522-3.58,3.107a0.545,0.545,0,0,0,.53.555h7.15a0.537,0.537,0,0,0,.52-0.555c0-1.584-1.53-2.907-3.57-3.107V72.826h5.11l-2.76,7.3a0.708,0.708,0,0,0-.05.208,3.61,3.61,0,1,0,7.21,0A0.7,0.7,0,0,0,1260.96,80.129Zm-13.86.642a2.516,2.516,0,0,1-4.99.128l-0.01-.016a0.751,0.751,0,0,1-.07-0.488c0.05-.118.22-0.437,0.22-0.44V79.949l2.36-6.19,1.86,4.9c0.1,0.254.22,0.547,0.33,0.812,0.14,0.335.26,0.623,0.31,0.744A1.31,1.31,0,0,1,1247.1,80.771Zm0.94,8.118a3.646,3.646,0,0,1,5.85,0h-5.85Zm11.85-8.107a2.582,2.582,0,0,1-2.51,2.252l-0.07,0a2.606,2.606,0,0,1-2.42-2.206,1.2,1.2,0,0,1-.01-0.571l0.01-.015c0.04-.1.12-0.293,0.14-0.332l0.01-.006,2.34-6.144,2.34,6.165A2.927,2.927,0,0,1,1259.89,80.783Z" transform="translate(-1241 -70)"/>
</svg>
