<?xml version="1.0" encoding="utf-8"?>
<!-- Generator: Adobe Illustrator 21.0.2, SVG Export Plug-In . SVG Version: 6.00 Build 0)  -->
<svg version="1.1" id="Capa_1" xmlns="http://www.w3.org/2000/svg" xmlns:xlink="http://www.w3.org/1999/xlink" x="0px" y="0px"
	 viewBox="0 0 376.4 376.4" style="enable-background:new 0 0 376.4 376.4;" xml:space="preserve">
<path d="M377.6,190.6L324.4,59.1h21.7c5.5,0,10-4.5,10-10s-4.5-10-10-10H197.5V18c0-5.5-4.5-10-10-10s-10,4.5-10,10v21H29
	c-5.5,0-10,4.5-10,10s4.5,10,10,10h22.7l-53,131.5c-0.5,1.2-0.8,2.4-0.8,3.7c0,37.8,30.7,68.5,68.5,68.5s68.5-30.7,68.5-68.6
	c0-1.3-0.3-2.5-0.8-3.7L81.4,58.9h96.2v243.5c-38.9,3.6-68,27.4-68,56c0,5.5,4.5,10,10,10h136c5.5,0,10-4.5,10-10
	c0-28.6-29.1-52.4-68-56V58.9h97.2l-52.6,131.6c-0.5,1.2-0.8,2.4-0.8,3.7c0,37.8,30.7,68.5,68.5,68.5s68.5-30.7,68.5-68.6
	C378.4,193,378.1,191.7,377.6,190.6z M114,202.1c-3.8,23.5-23.8,40.6-47.5,40.8c-22.8,0-42.7-16.2-47.4-38.5l-0.1-0.3
	c-2.3-6-1.6-8.3-1.4-8.8c1-2.1,4.1-7.9,4.2-7.9l0.1-0.1L66.6,75.7L102,164c2,4.6,4.3,9.9,6.4,14.7c2.6,6,4.9,11.2,5.8,13.4
	C115.1,194.1,114.6,199.3,114,202.1z M131.9,348.4c7.3-15.3,30.4-26.5,55.6-26.5c25.2,0,48.4,11.2,55.7,26.5H131.9z M357.4,202.3
	c-3.9,23.5-24,40.6-47.8,40.6l-1.3,0.1c-22.7-0.8-41.9-17.3-46.1-39.7c-1-4.9-0.8-8.7-0.1-10.3l0.1-0.3c0.8-1.9,2.4-5.3,2.7-6
	l0.1-0.1l44.5-110.7L354,186.9C356.8,193.4,357.3,201,357.4,202.3z"/>
</svg>
