<svg xmlns="http://www.w3.org/2000/svg" width="10" height="10" viewBox="0 0 10 10">
  <defs>
    <style>
      .cls-1 {
        fill: #828282;
        fill-rule: evenodd;
      }
    </style>
  </defs>
  <path id="linkedin" class="cls-1" d="M1489.6,31.119v3.862h-2.14V31.386c0-.9-0.3-1.522-1.09-1.522a1.189,1.189,0,0,0-1.1.82,1.368,1.368,0,0,0-.07.551V35h-2.14s0.03-6.1,0-6.738h2.14v0.953l-0.01.017h0.01V29.213a2.151,2.151,0,0,1,1.94-1.12c1.41,0,2.46.953,2.46,3.026h0ZM1480.82,25a1.171,1.171,0,1,0-.03,2.341h0.02a1.171,1.171,0,1,0,.01-2.341h0Zm-1.09,9.982h2.15V28.243h-2.15v6.738Z" transform="translate(-1479.59 -25)"/>
</svg>
