<svg xmlns="http://www.w3.org/2000/svg" width="13.969" height="19.31" viewBox="0 0 13.969 19.31">
  <defs>
    <style>
      .cls-1 {
        fill: #0095da;
        fill-rule: evenodd;
      }
    </style>
  </defs>
  <path id="location" class="cls-1" d="M367.582,1836.96a7,7,0,0,0-7,6.99c0,4.79,6.26,11.82,6.527,12.11a0.628,0.628,0,0,0,.937,0c0.267-.29,6.527-7.32,6.527-12.11A7,7,0,0,0,367.582,1836.96Zm0,17.72c-2.107-2.5-5.736-7.44-5.736-10.73a5.736,5.736,0,0,1,11.471,0C373.317,1847.24,369.689,1852.18,367.582,1854.68Zm0-14.24a3.515,3.515,0,1,0,3.519,3.51A3.516,3.516,0,0,0,367.582,1840.44Zm0,5.77a2.26,2.26,0,1,1,2.259-2.26A2.26,2.26,0,0,1,367.582,1846.21Z" transform="translate(-360.594 -1836.97)"/>
</svg>
