<?xml version="1.0" encoding="utf-8"?>
<!-- Generator: Adobe Illustrator 23.0.5, SVG Export Plug-In . SVG Version: 6.00 Build 0)  -->
<svg version="1.1" id="Слой_1" xmlns="http://www.w3.org/2000/svg" xmlns:xlink="http://www.w3.org/1999/xlink" x="0px" y="0px"
	 viewBox="0 0 39 47" style="enable-background:new 0 0 39 47;" xml:space="preserve">
<style type="text/css">
	.st0{fill:#0095DA;}
	.st1{fill:#ED1C24;}
</style>
<path class="st0" d="M39,9.7c0-0.7-0.2-1-0.8-1.3c-6-2.7-12-5.4-17.9-8.2c-0.5-0.2-0.9-0.2-1.5,0c-6,2.7-11.9,5.5-17.9,8.2
	C0.2,8.6,0,9,0,9.7c0,4.4,0,8.9,0,13.3c0,1.8,0.2,3.6,0.4,5.3c0.4,3,1.5,5.7,3.4,8.1c1.5,2,3.4,3.6,5.4,5c3.2,2.3,6.6,4,10.1,5.6
	c0.1,0,0.2,0,0.4,0c1.9-0.9,3.8-1.8,5.7-2.8c2.9-1.6,5.7-3.4,8.1-5.8c2.5-2.4,4.2-5.3,4.9-8.6c0.5-2.2,0.6-4.5,0.6-6.8
	C39,18.5,39,14.1,39,9.7z M37,25.6c-0.1,4.3-1.5,8.1-4.7,11.2c-1.7,1.7-3.5,3.1-5.5,4.3c-2.3,1.3-4.7,2.5-7,3.8
	c-0.2,0.1-0.4,0.1-0.6,0c-3.1-1.4-6.1-3-8.9-5c-2.6-1.8-4.9-3.9-6.4-6.7c-1.1-2-1.7-4.2-1.8-6.5c-0.1-3.9-0.2-7.8-0.2-11.8
	c0-1.5,0-3,0-4.5c0-0.3,0.1-0.5,0.4-0.7C7.9,7.2,13.5,4.6,19.1,2c0.3-0.1,0.5-0.1,0.8,0c5.6,2.6,11.2,5.1,16.9,7.7
	c0.3,0.1,0.4,0.3,0.4,0.6c0,2.6,0,5.2,0,7.8c0,0,0,0,0,0C37.1,20.6,37.1,23.1,37,25.6z"/>
<path class="st0" d="M34,11.3c-0.7-0.3-1.5-0.7-2.2-1c-0.6-0.2-1.1-0.1-1.3,0.4c-0.2,0.5,0,1,0.5,1.3c0.5,0.2,0.9,0.4,1.4,0.6
	c0.3,0.1,0.3,0.2,0.3,0.5c0,1.5,0,3.1,0,4.6c0,3,0,5.9-0.2,8.9C32.3,29.5,31,32,28.9,34c-2,2-4.4,3.5-6.9,4.8
	c-0.5,0.3-1,0.6-1.6,0.9c0-0.2,0-0.4,0-0.5c0-1,0-2,0-3c0-0.7-0.5-1.1-1.1-1c-0.5,0.1-0.7,0.5-0.7,1c0,1.1,0,2.3,0,3.5
	c-0.1-0.1-0.2-0.1-0.2-0.1c-2.2-1.1-4.3-2.4-6.3-3.8c-1.6-1.2-3-2.6-4.1-4.3c-1.1-1.9-1.6-4-1.6-6.1c-0.1-4.1-0.1-8.2-0.1-12.3
	c0-0.3,0.2-0.4,0.4-0.5c4.1-1.9,8.3-3.8,12.4-5.7c0.3-0.1,0.5-0.1,0.7,0c0.9,0.4,1.9,0.9,2.8,1.3c0.7,0.3,1.2,0.1,1.4-0.6
	c0.1-0.4-0.1-0.8-0.6-1.1c-0.8-0.4-1.6-0.8-2.5-1.1c-1.7-0.8-1.3-0.8-3,0c-4.3,1.9-8.5,3.9-12.8,5.8c-0.5,0.2-0.8,0.5-0.8,1.1
	c0,3.9,0,7.8,0,11.7c0,1.8,0.1,3.5,0.6,5.2c0.8,2.9,2.5,5.2,4.7,7.1c2.8,2.4,5.9,4.1,9.2,5.7c0.3,0.1,0.7,0.1,1,0
	c3.2-1.6,6.4-3.3,9.1-5.6c1.4-1.2,2.5-2.5,3.5-4c1.2-2,1.8-4.3,1.8-6.6c0.1-4.5,0.1-9,0.1-13.6C34.5,11.8,34.3,11.5,34,11.3z"/>
<path class="st1" d="M18.6,11.9c-1.5,1.3-3.1,2.6-4.6,3.9c-1.2,1-2.4,2.1-3.7,3.1C10,19.2,9.8,19.6,10,20c0.2,0.4,0.5,0.6,1,0.6
	c0.2,0,0.5,0,0.7,0c0,0.2,0,0.4,0,0.6c0,2.5,0,4.9,0,7.4c0,1,0.3,1.3,1.3,1.3c4.3,0,8.6,0,12.9,0c1,0,1.3-0.3,1.3-1.3
	c0-2.5,0-4.9,0-7.4c0-0.2,0-0.4,0-0.6c0.3,0,0.5,0,0.7,0c0.5,0,0.9-0.1,1.1-0.6c0.2-0.5-0.1-0.8-0.4-1.2c-2.7-2.3-5.5-4.6-8.2-7
	C19.7,11.3,19.3,11.3,18.6,11.9z M25.4,20.2c0,2.4,0,4.9,0,7.3c0,0.2,0,0.3,0,0.5c-4,0-7.9,0-11.9,0c0-0.2,0-0.3,0-0.5
	c0-2.5,0-4.9,0-7.4c0-0.4-0.1-0.8-0.2-1.3c2-1.7,4.1-3.4,6.2-5.2c2.1,1.8,4.2,3.6,6.2,5.2C25.6,19.3,25.4,19.8,25.4,20.2z"/>
<path class="st0" d="M27.4,10.2c0.5,0,0.9-0.4,0.9-0.9c0-0.5-0.4-0.9-0.9-0.9c-0.5,0-0.9,0.4-0.9,0.9C26.4,9.8,26.9,10.2,27.4,10.2z
	"/>
<path class="st0" d="M18.6,32.8c0,0.5,0.4,0.9,0.9,0.9c0.5,0,0.9-0.4,0.9-0.9c0-0.5-0.4-0.9-0.9-0.9C19,31.8,18.6,32.3,18.6,32.8z"
	/>
<path class="st1" d="M18.1,22.7c-0.5-0.5-1-0.5-1.4-0.1c-0.4,0.4-0.4,0.9,0.1,1.4c0.4,0.4,0.8,0.8,1.3,1.3c0.6,0.6,1.1,0.6,1.7,0
	c1.2-1.2,2.4-2.4,3.6-3.5c0.1-0.1,0.2-0.2,0.3-0.4c0.2-0.4,0.2-0.8-0.1-1.1c-0.3-0.3-0.7-0.4-1.1-0.2c-0.2,0.1-0.3,0.3-0.5,0.4
	c-1,1-2,2-3.1,3C18.6,23.3,18.4,23,18.1,22.7z"/>
</svg>
