<svg xmlns="http://www.w3.org/2000/svg" width="20" height="19.969" viewBox="0 0 20 19.969">
  <defs>
    <style>
      .cls-1 {
        fill: #0095da;
        fill-rule: evenodd;
      }
    </style>
  </defs>
  <path id="phone" class="cls-1" d="M549.485,37.75L547,35.264a1.761,1.761,0,0,0-2.486,0l-1.13,1.13a1.334,1.334,0,0,1-1.884,0l-4.9-4.9a1.33,1.33,0,0,1,0-1.883c0.182-.183.7-0.705,1.13-1.13a1.757,1.757,0,0,0,0-2.487l-2.486-2.477a1.76,1.76,0,0,0-2.484,0c-0.512.506-.677,0.67-0.906,0.9a6.346,6.346,0,0,0,0,8.965l7.761,7.765a6.335,6.335,0,0,0,8.966,0l0.9-.9A1.759,1.759,0,0,0,549.485,37.75Zm-15.9-13.408a0.586,0.586,0,0,1,.829,0l2.486,2.477a0.586,0.586,0,0,1,0,.829l-0.414.414-3.313-3.312Zm6.857,15.969-7.761-7.765a5.152,5.152,0,0,1-.324-6.953l3.3,3.3a2.5,2.5,0,0,0,.109,3.424l4.9,4.9h0a2.5,2.5,0,0,0,3.424.11l3.3,3.3A5.143,5.143,0,0,1,540.444,40.311Zm8.213-.9-0.415.415-3.315-3.314,0.415-.415a0.586,0.586,0,0,1,.828,0l2.487,2.486A0.587,0.587,0,0,1,548.657,39.407Z" transform="translate(-530 -23.031)"/>
</svg>
