<svg xmlns="http://www.w3.org/2000/svg" width="20.03" height="20" viewBox="0 0 20.03 20">
  <defs>
    <style>
      .cls-1 {
        fill: #828282;
        fill-rule: evenodd;
      }
    </style>
  </defs>
  <path id="search" class="cls-1" d="M1599.36,101.985l-3.45-3.438,0.06-.116a9.13,9.13,0,0,0,1-3.981,8.485,8.485,0,1,0-8.49,8.451,9.152,9.152,0,0,0,4-1l0.12-.058,3.45,3.442a2.289,2.289,0,0,0,3.31,0A2.464,2.464,0,0,0,1599.36,101.985Zm-6.06-2.737a6.776,6.776,0,1,1,1.99-4.8A6.769,6.769,0,0,1,1593.3,99.248Z" transform="translate(-1580 -86)"/>
</svg>
