<svg xmlns="http://www.w3.org/2000/svg" width="17.81" height="17.81" viewBox="0 0 17.81 17.81">
  <defs>
    <style>
      .cls-1 {
        fill: #0095da;
        fill-rule: evenodd;
      }
    </style>
  </defs>
  <path id="subject" class="cls-1" d="M1109.87,7682.17l2.79,2.09v-2.09h3.17v-9.43h-6.31v-6.3H1098v9.43h3.17v2.09l2.78-2.09h0.35v6.3h5.57Zm4.91-1.04h-3.17v1.04l-1.39-1.04h-4.87v-7.35h9.43v7.35Zm-11.17-6.3-1.4,1.04v-1.04h-3.17v-7.35h9.44v5.26h-2.29l-2.41-4.82-2.56,5.11,0.94,0.47,0.64-1.28h1.96l0.26,0.52h-0.72v2.09h-0.69Zm0.63-3.66h-0.92l0.46-.92Zm5.07,7.12a2.709,2.709,0,0,1-1.35.72v1.04a3.716,3.716,0,0,0,2.09-1.01,3.657,3.657,0,0,0,2.09,1.01v-1.04a2.728,2.728,0,0,1-1.36-.72,3.884,3.884,0,0,0,.76-1.37h1.12v-1.05h-2.09v-1.04h-1.05v1.04h-2.08v1.05h1.11A3.884,3.884,0,0,0,1109.31,7678.29Zm0.74-.76a3.084,3.084,0,0,1-.39-0.61h0.77A3.523,3.523,0,0,1,1110.05,7677.53Z" transform="translate(-1098 -7666.44)"/>
</svg>
