<svg xmlns="http://www.w3.org/2000/svg" width="12.13" height="7.563" viewBox="0 0 12.13 7.563">
  <defs>
    <style>
      .cls-1 {
        fill: #828282;
        fill-rule: evenodd;
      }
    </style>
  </defs>
  <path id="vk" class="cls-1" d="M1560.64,32.667a5.838,5.838,0,0,0-1.21-1.506c-1.02-1.019-.88-0.854.35-2.616,0.74-1.073,1.04-1.729.95-2.009a0.676,0.676,0,0,0-.64-0.2l-1.83.011a0.371,0.371,0,0,0-.23.045,0.522,0.522,0,0,0-.16.211,11.565,11.565,0,0,1-.68,1.537c-0.81,1.49-1.14,1.569-1.27,1.477a1.791,1.791,0,0,1-.24-1.329c0-1.444.21-2.046-.39-2.2a2.939,2.939,0,0,0-.85-0.092,3.666,3.666,0,0,0-1.52.167c-0.21.11-.37,0.354-0.27,0.369a0.808,0.808,0,0,1,.54.292,2.144,2.144,0,0,1,.18.892s0.11,1.7-.25,1.911c-0.25.145-.59-0.151-1.31-1.5a12.153,12.153,0,0,1-.66-1.458,0.539,0.539,0,0,0-.15-0.219,0.744,0.744,0,0,0-.28-0.122l-1.74.012a0.542,0.542,0,0,0-.35.13,0.42,0.42,0,0,0-.01.334,21.758,21.758,0,0,0,2.9,5.159,4.018,4.018,0,0,0,3.02,1.482h0.72a0.631,0.631,0,0,0,.34-0.157,0.593,0.593,0,0,0,.09-0.344,1.513,1.513,0,0,1,.44-1.206c0.45-.152,1.02,1.016,1.63,1.466a1.091,1.091,0,0,0,.81.265l1.62-.024S1561.04,33.387,1560.64,32.667Z" transform="translate(-1548.59 -26)"/>
</svg>
