<?xml version="1.0" encoding="utf-8"?>
<!-- Generator: Adobe Illustrator 23.0.5, SVG Export Plug-In . SVG Version: 6.00 Build 0)  -->
<svg version="1.1" id="Слой_1" xmlns="http://www.w3.org/2000/svg" xmlns:xlink="http://www.w3.org/1999/xlink" x="0px" y="0px"
	 viewBox="0 0 5.1 10.4" style="enable-background:new 0 0 5.1 10.4;" xml:space="preserve">
<style type="text/css">
	.st0{fill-rule:evenodd;clip-rule:evenodd;fill:#B2B2B2;}
</style>
<path id="arrow_копия" class="st0" d="M2.5,0.1h0.2c0.2,0,0.3,0.1,0.3,0.3V10c0,0.2-0.1,0.3-0.3,0.3H2.5
	c-0.2,0-0.3-0.1-0.3-0.3V0.4C2.2,0.3,2.3,0.1,2.5,0.1C2.4,0.1,2.5,0.1,2.5,0.1z M2.9,0.4l2,3.5c0,0.2-0.1,0.3-0.3,0.4
	c-0.1,0.1-0.3,0.1-0.5,0L2.9,2.1L2.9,0.4z M2.2,0.4l-2,3.4c0,0.2,0.1,0.3,0.3,0.4c0.1,0.1,0.3,0.1,0.5,0l1.3-2.2L2.2,0.4z"/>
</svg>
