<?xml version="1.0" encoding="utf-8"?>
<!-- Generator: Adobe Illustrator 23.0.5, SVG Export Plug-In . SVG Version: 6.00 Build 0)  -->
<svg version="1.1" id="Слой_1" xmlns="http://www.w3.org/2000/svg" xmlns:xlink="http://www.w3.org/1999/xlink" x="0px" y="0px"
	 viewBox="0 0 5.1 10.4" style="enable-background:new 0 0 5.1 10.4;" xml:space="preserve">
<style type="text/css">
	.st0{fill-rule:evenodd;clip-rule:evenodd;fill:#B2B2B2;}
</style>
<path id="arrow_копия" class="st0" d="M2.6,10.3H2.4c-0.2,0-0.3-0.1-0.3-0.3V0.4c0-0.2,0.1-0.3,0.3-0.3h0.2
	c0.2,0,0.3,0.1,0.3,0.3V10C2.9,10.1,2.8,10.3,2.6,10.3C2.6,10.3,2.6,10.3,2.6,10.3z M2.1,10l-2-3.5c0-0.2,0.1-0.3,0.3-0.4
	C0.6,6,0.8,6,0.9,6.1l1.2,2.2L2.1,10z M2.9,10l2-3.4c0-0.2-0.1-0.3-0.3-0.4C4.5,6.1,4.3,6,4.2,6.1L2.9,8.3L2.9,10z"/>
</svg>
