<?xml version="1.0" encoding="iso-8859-1"?>
<!-- Generator: Adobe Illustrator 19.0.0, SVG Export Plug-In . SVG Version: 6.00 Build 0)  -->
<svg version="1.1" id="Capa_1" xmlns="http://www.w3.org/2000/svg" xmlns:xlink="http://www.w3.org/1999/xlink" x="0px" y="0px"
	 viewBox="0 0 512 512" style="enable-background:new 0 0 512 512;" xml:space="preserve">
<g>
	<g>
		<path d="M421.459,386.772c49.766,0,90.253-40.487,90.253-90.254l-68.045-175.856h17.892V90.58h-25.06V65.178h-30.082V90.58
			H298.648c-4.48-12.955-14.698-23.25-27.608-27.829V30.082h29.079V0h-88.241v30.082h29.079v32.669
			c-12.799,4.539-22.956,14.696-27.495,27.495H105.582V65.178H75.499v25.068H48.434v30.082h20.029L0.287,296.517
			c0,49.766,40.487,90.254,90.253,90.254c49.767,0,90.254-40.487,90.254-90.254l-68.176-176.189h100.845
			c4.539,12.799,14.696,22.956,27.495,27.495v273.93H114.614v60.164H83.529V512h31.085h282.772h31.085v-30.082h-31.085v-60.164
			H271.041v-273.93c12.688-4.5,22.785-14.518,27.382-27.16h100.826l-68.044,175.855
			C331.205,346.284,371.693,386.772,421.459,386.772z M90.54,356.689c-27.984,0-51.556-19.209-58.254-45.131h116.509
			C142.096,337.48,118.525,356.689,90.54,356.689z M143.676,281.476H37.407L90.54,146.381L143.676,281.476z M367.304,451.836v30.082
			H144.696v-30.082H367.304z M256,120.328c-8.294,0-15.041-6.747-15.041-15.041S247.706,90.246,256,90.246
			s15.041,6.747,15.041,15.041S264.294,120.328,256,120.328z M421.458,146.381l53.134,135.095H368.324L421.458,146.381z
			 M479.712,311.558c-6.698,25.922-30.269,45.131-58.254,45.131c-27.984,0-51.557-19.209-58.255-45.131H479.712z"/>
	</g>
</g>
<g>
</g>
<g>
</g>
<g>
</g>
<g>
</g>
<g>
</g>
<g>
</g>
<g>
</g>
<g>
</g>
<g>
</g>
<g>
</g>
<g>
</g>
<g>
</g>
<g>
</g>
<g>
</g>
<g>
</g>
</svg>
