<?xml version="1.0" encoding="utf-8"?>
<!-- Generator: Adobe Illustrator 24.0.1, SVG Export Plug-In . SVG Version: 6.00 Build 0)  -->
<svg version="1.1" id="Слой_1" xmlns="http://www.w3.org/2000/svg" xmlns:xlink="http://www.w3.org/1999/xlink" x="0px" y="0px"
	 viewBox="0 0 612 792" style="enable-background:new 0 0 612 792;" xml:space="preserve">
<g>
	<polygon points="330.9,419.8 330.9,419.8 330.9,419.8 	"/>
	<path d="M332.1,420.2c-0.3-0.3-0.7-0.5-1.2-0.5c-0.6,0-1.2,0-1.9,0c-0.2,0-0.4,0-0.6,0l0-1.5c1.7-0.8,2.3-1.7,2.3-3.6
		c0-0.1,0-0.2,0-0.4c0-0.8,0-1.6-0.4-2.3c-0.7-1.2-2.1-1.9-3.4-1.6c-1.4,0.3-2.4,1.4-2.5,2.8c-0.1,0.7-0.1,1.3,0,2.1
		c0.1,1.5,0.8,2.5,2.3,3v1.5h-3v-10.5c1.1-0.1,1.2-0.3,1.2-1.5c0-0.3,0-0.6,0-1c0-0.7,0-1.3,0-2c0-0.7-0.3-1-1-1.1
		c-0.4,0-0.8,0-1.2,0c-0.1,0-0.2,0-0.3,0v-23.9c1.2-0.2,1.2-0.3,1.2-1.6v-2.9c0-1.3-0.1-1.4-1.3-1.6c0-0.1,0-0.2,0-0.4
		c0-0.5,0-0.9,0-1.4c0-0.5-0.1-0.9-0.5-1.1l-0.1,0h-16.1l-0.1,0c-0.4,0.2-0.5,0.6-0.5,1.1c0,0.5,0,1,0,1.4c0,0.1,0,0.3,0,0.4
		c0,0,0,0,0,0c-1,0-1.2,0.3-1.2,1.2c0,1.2,0,2.4,0,3.5c0,0.9,0.3,1.2,1.2,1.2c0,0,0.1,0,0.1,0v1.4h-8.6l0-0.4c0-0.4,0-0.9,0-1.3
		c0-0.8-0.3-1.1-1-1.1c-1,0-2,0-2.7,0c-0.8,0-1.1,0.3-1.1,1.1c0,0.4,0,0.9,0,1.3l0,0.4c-0.2,0-0.4,0-0.5,0c-0.6,0-1.1,0-1.7,0
		c-0.7,0-1,0.3-1,1c0,0.9,0,1.8,0,2.6c0,0.5,0,1,0,1.5c0,0.6,0.3,0.9,0.9,1c0.1,0,0.2,0,0.3,0v32.5h-3.1l0-0.5c0-0.7,0-1.4,0-2.1
		c0,0,0.1-0.1,0.1-0.1c1.3-0.5,1.9-1.5,1.9-2.9c0-1.2,0-2.2,0-3.1c0-1.7-1.3-3.1-2.9-3.1c0,0,0,0,0,0c-1.6,0-2.9,1.3-2.9,3.1
		c0,0.5,0,1,0,1.5c0,0.5,0,1,0,1.5c0,1.5,0.6,2.5,2,3c0,0,0.1,0,0.1,0.1c0,0.7,0,1.5,0,2.2l0,0.4h-0.4c-0.2,0-0.4,0-0.6,0
		c-0.4,0-0.9,0-1.3,0c-0.6,0-0.9,0.3-1,0.8c0,0.2,0.1,0.4,0.2,0.6c0.2,0.2,0.4,0.3,0.8,0.3c0.1,0,0.1,0,0.2,0l5.3,0
		c14.1,0,28.7,0,43.1,0c0,0,0,0,0,0c0.3,0,0.8-0.1,1.1-0.5l0-0.1L332.1,420.2L332.1,420.2z M311.2,413.8c0-0.8-0.3-1.1-1.1-1.1
		c-1.2,0-2.5,0-3.7,0c-0.8,0-1.1,0.3-1.1,1.1c0,1.3,0,2.7,0,4l0,1.9h-2.1v-10.5h18.6v10.5h-10.6l0-3.5
		C311.3,415.4,311.3,414.6,311.2,413.8z M309.5,414.4v5.3h-2.4v-5.3H309.5z M286.8,413.2c0,0.4,0,0.8,0,1.1c0,0.7-0.5,1.2-1.2,1.2
		c0,0,0,0,0,0c-0.7,0-1.2-0.5-1.2-1.2c0-1.1,0-2.3,0-3.4c0-0.7,0.5-1.2,1.2-1.2c0,0,0,0,0,0c0.7,0,1.2,0.5,1.2,1.2
		c0,0.4,0,0.8,0,1.2c0,0.1,0,0.2,0,0.3l0,0.2C286.8,412.8,286.8,413,286.8,413.2z M293.3,381.2v-1h1.4v1H293.3z M320.5,372.6v1.2
		h-13.7v-1.2H320.5z M323.1,405.5v2H302v-2H323.1z M290.1,385.5V383h16.2v2.5H290.1z M305.5,378.1v-2.5h16.3v2.5H305.5z
		 M308.1,385.8l0-0.3c0-0.9,0-1.8,0-2.7c0-1.2-0.1-1.4-1.2-1.5v-1.4h13.6v23.9h-13.6v-16.4C308,387.2,308.1,387,308.1,385.8z
		 M291.3,387.3h13.8v16.4h-1.3c-0.2,0-0.5,0-0.7,0c-0.6,0-1.2,0-1.7,0c-0.7,0-1,0.3-1,1c0,1,0,1.9,0,2.9l0,0.4
		c0,0.9,0.2,1.1,1.2,1.2c0,0,0,0,0,0v10.5h-10.2V387.3z M329,414.7c0,0.2,0,0.4,0,0.6c0,0.8-0.6,1.3-1.4,1.4c-0.8,0-1.5-0.4-1.5-1.2
		c-0.1-0.8-0.1-1.5,0-2.3c0.1-0.7,0.7-1.2,1.4-1.2c0,0,0.1,0,0.1,0c0.7,0.1,1.3,0.6,1.3,1.4c0,0.2,0,0.4,0,0.7c0,0.1,0,0.2,0,0.3
		C329,414.5,329,414.6,329,414.7z"/>
	<path d="M294.9,407.5v-0.2h0l0-0.2c0-0.3,0-0.6,0-0.9c0-0.6-0.3-0.9-0.8-1c-0.2,0-0.4,0-0.6,0.2c-0.2,0.2-0.3,0.5-0.3,0.8
		c0,0.6,0,1.1,0,1.7c0,0.3,0,0.6,0,0.9c0,0.6,0.3,0.9,0.8,1c0,0,0.1,0,0.1,0c0.2,0,0.4-0.1,0.5-0.2c0.2-0.2,0.3-0.5,0.3-0.8
		c0-0.3,0-0.6,0-0.9C294.9,407.7,294.9,407.6,294.9,407.5z"/>
	<path d="M302.4,394.7C302.4,394.7,302.4,394.7,302.4,394.7c0.5,0,0.9-0.3,0.9-0.9c0-0.3,0-0.6,0-0.9l0-0.2l0-0.7c0-0.3,0-0.7,0-1
		c0-0.5-0.3-0.9-0.8-0.9c-0.2,0-0.4,0.1-0.6,0.2c-0.2,0.2-0.3,0.4-0.3,0.6c0,0.9,0,1.8,0,2.8C301.6,394.4,301.9,394.7,302.4,394.7z"
		/>
	<path d="M293.5,402c0.1,0.1,0.3,0.2,0.5,0.2c0,0,0,0,0,0c0.5,0,0.8-0.4,0.9-0.9c0-0.9,0-1.8,0-2.6c0-0.6-0.3-0.9-0.9-0.9
		c-0.2,0-0.4,0.1-0.6,0.2c-0.2,0.2-0.3,0.4-0.3,0.7c0,0.3,0,0.6,0,0.9c0,0.1,0,0.1,0,0.2l0,0.2c0,0.1,0,0.3,0,0.4c0,0.3,0,0.6,0,0.9
		C293.2,401.6,293.3,401.8,293.5,402z"/>
	<path d="M294.9,415v-0.2h0c0-0.1,0-0.1,0-0.2c0-0.3,0-0.6,0-1c0-0.3-0.1-0.5-0.3-0.7c-0.2-0.1-0.4-0.2-0.6-0.2
		c-0.5,0-0.8,0.4-0.8,0.9c0,0.7,0,1.5,0,2.2l0,0.4c0,0.6,0.3,0.9,0.8,1c0,0,0,0,0.1,0c0.2,0,0.4-0.1,0.5-0.2
		c0.2-0.2,0.3-0.4,0.3-0.8c0-0.3,0-0.6,0-0.9C294.9,415.2,294.9,415.1,294.9,415z"/>
	<path d="M301.8,402c0.1,0.1,0.3,0.2,0.6,0.2c0,0,0.1,0,0.1,0c0.5,0,0.8-0.4,0.8-0.9c0-0.3,0-0.6,0-0.9c0-0.1,0-0.3,0-0.4l0-0.3
		c0-0.3,0-0.7,0-1c0-0.6-0.3-0.9-0.8-0.9c-0.3,0-0.5,0.1-0.6,0.2c-0.2,0.2-0.3,0.4-0.3,0.7c0,1,0,1.9,0,2.8
		C301.5,401.6,301.6,401.9,301.8,402z"/>
	<path d="M294.6,390.4c-0.2-0.1-0.4-0.2-0.6-0.2c-0.5,0-0.8,0.4-0.8,1l0,0.2c0,0.8,0,1.6,0,2.4c0,0.3,0.1,0.6,0.3,0.8
		c0.1,0.1,0.3,0.2,0.5,0.2c0,0,0,0,0.1,0c0.5,0,0.8-0.4,0.8-1c0-0.3,0-0.6,0-0.9c0-0.1,0-0.1,0-0.2l0-0.2c0-0.1,0-0.3,0-0.4
		c0-0.3,0-0.6,0-0.9C294.9,390.8,294.8,390.5,294.6,390.4z"/>
	<path d="M298.2,394.7C298.2,394.7,298.2,394.7,298.2,394.7c0.5,0,0.8-0.3,0.8-0.9c0-0.3,0-0.6,0-0.9c0-0.1,0-0.3,0-0.4
		c0-0.1,0-0.3,0-0.4c0-0.3,0-0.6,0-1c0-0.6-0.3-0.9-0.9-0.9c-0.5,0-0.8,0.3-0.8,0.9c0,0.9,0,1.7,0,2.7
		C297.4,394.4,297.7,394.7,298.2,394.7z"/>
	<path d="M297.4,407.4v0.2h0l0,0.2c0,0.3,0,0.6,0,1c0,0.5,0.3,0.9,0.8,0.9c0,0,0,0,0,0c0.2,0,0.4-0.1,0.6-0.2
		c0.2-0.2,0.3-0.4,0.3-0.7c0-0.9,0-1.8,0-2.8c0-0.5-0.3-0.9-0.8-0.9c-0.5,0-0.9,0.3-0.9,0.9c0,0.3,0,0.6,0,1
		C297.4,407.2,297.4,407.3,297.4,407.4z"/>
	<path d="M298.2,412.7c-0.2,0-0.4,0.1-0.6,0.2c-0.2,0.2-0.3,0.4-0.3,0.7c0,0.8,0,1.7,0,2.7c0,0.3,0.1,0.6,0.3,0.7
		c0.1,0.1,0.3,0.2,0.5,0.2c0,0,0,0,0,0c0.3,0,0.8-0.2,0.8-1c0-0.3,0-0.6,0-0.9l0-0.4c0-0.1,0-0.3,0-0.4c0-0.3,0-0.6,0-1
		C299,413.1,298.7,412.7,298.2,412.7z"/>
	<path d="M297.4,401.3c0,0.5,0.3,0.9,0.8,0.9c0,0,0,0,0.1,0c0.3,0,0.5-0.1,0.6-0.2c0.2-0.2,0.3-0.4,0.3-0.7c0-0.9,0-1.8,0-2.8
		c0-0.5-0.3-0.9-0.8-0.9c0,0,0,0,0,0c-0.5,0-0.8,0.3-0.8,0.9c0,0.3,0,0.6,0,1c0,0.1,0,0.3,0,0.4l0,0.4
		C297.4,400.7,297.4,401,297.4,401.3z"/>
	<path d="M313.1,387c0.2,0.1,0.4,0.2,0.6,0.2c0,0,0,0,0,0h0c0.5,0,0.8-0.4,0.8-0.9c0-0.3,0-0.6,0-0.9c0-0.1,0-0.3,0-0.4
		c0-0.1,0-0.3,0-0.4c0-0.3,0-0.6,0-1c0-0.3-0.1-0.6-0.3-0.7c-0.2-0.1-0.4-0.2-0.6-0.2c-0.5,0-0.8,0.4-0.8,0.9c0,0.9,0,1.8,0,2.7
		C312.9,386.6,313,386.9,313.1,387z"/>
	<path d="M313.7,402.2C313.7,402.2,313.8,402.2,313.7,402.2c0.2,0,0.4-0.1,0.6-0.2c0.2-0.2,0.3-0.4,0.3-0.7c0-0.3,0-0.6,0-0.9
		c0-0.1,0-0.3,0-0.4c0-0.1,0-0.3,0-0.4c0-0.3,0-0.6,0-0.9c0-0.3-0.1-0.6-0.3-0.7c-0.2-0.1-0.4-0.2-0.6-0.2c-0.5,0-0.8,0.4-0.9,0.9
		c0,0.9,0,1.8,0,2.6C312.9,401.9,313.2,402.2,313.7,402.2z"/>
	<path d="M318.8,391.1L318.8,391.1c0-0.6-0.4-0.9-0.9-0.9c-0.5,0-0.8,0.4-0.8,1c0,0.4,0,0.8,0,1.2c0,0.5,0,1,0,1.4
		c0,0.3,0.1,0.6,0.3,0.8c0.1,0.1,0.3,0.2,0.5,0.2c0,0,0,0,0.1,0c0.5,0,0.8-0.4,0.8-1c0-0.3,0-0.6,0-0.9c0-0.1,0-0.3,0-0.4l0-0.2
		c0-0.1,0-0.1,0-0.2C318.8,391.7,318.8,391.4,318.8,391.1z"/>
	<path d="M309,394.5c0.1,0.1,0.3,0.2,0.6,0.2c0,0,0,0,0,0c0.5,0,0.8-0.4,0.8-0.9c0-0.3,0-0.6,0-1l0-0.6l0-0.2c0-0.3,0-0.6,0-1
		c0-0.5-0.3-0.9-0.8-0.9c-0.3,0-0.5,0.1-0.6,0.2c-0.2,0.2-0.3,0.4-0.3,0.7c0,0.9,0,1.8,0,2.8C308.7,394.1,308.8,394.3,309,394.5z"/>
	<path d="M317.1,386.4c0,0.5,0.3,0.8,0.8,0.8c0,0,0,0,0,0c0.5,0,0.8-0.3,0.8-0.8c0-1,0-2,0-2.9c0-0.2-0.1-0.5-0.2-0.6
		c-0.2-0.2-0.4-0.2-0.6-0.2c-0.5,0-0.8,0.3-0.8,0.9c0,0.3,0,0.6,0,1l0,0.4c0,0.1,0,0.3,0,0.4C317.1,385.7,317.1,386.1,317.1,386.4
		L317.1,386.4z"/>
	<path d="M313.7,394.7C313.7,394.7,313.7,394.7,313.7,394.7c0.5,0,0.8-0.4,0.9-1c0-0.3,0-0.6,0-0.9c0-0.1,0-0.3,0-0.4l0-0.4
		c0-0.3,0-0.6,0-0.9c0-0.6-0.3-0.9-0.8-1c-0.2,0-0.4,0.1-0.6,0.2c-0.2,0.2-0.3,0.4-0.3,0.7c0,0.9,0,1.8,0,2.6
		C312.9,394.3,313.3,394.7,313.7,394.7z"/>
	<path d="M309,387c0.1,0.1,0.3,0.2,0.6,0.2c0,0,0,0,0,0c0.5,0,0.8-0.4,0.8-0.9c0-0.3,0-0.6,0-0.9l0-0.4c0-0.1,0-0.3,0-0.4
		c0-0.3,0-0.6,0-1c0-0.5-0.3-0.8-0.8-0.9c-0.3,0-0.5,0.1-0.6,0.2c-0.2,0.2-0.3,0.4-0.3,0.7c0,0.8,0,1.7,0,2.8
		C308.7,386.7,308.8,386.9,309,387z"/>
	<path d="M310.4,399.9v-0.2h0l0-0.2c0-0.3,0-0.6,0-0.9c0-0.6-0.3-0.9-0.8-0.9c-0.3,0-0.5,0.1-0.6,0.2c-0.2,0.2-0.3,0.4-0.3,0.7
		c0,0.9,0,1.9,0,2.8c0,0.5,0.3,0.8,0.8,0.8c0,0,0,0,0,0c0.5,0,0.8-0.3,0.8-0.9c0-0.3,0-0.6,0-1C310.4,400.2,310.4,400.1,310.4,399.9
		z"/>
	<path d="M318.5,397.9c-0.2-0.1-0.4-0.2-0.6-0.2c-0.5,0-0.8,0.3-0.8,0.9c0,0.3,0,0.7,0,1l0,0.4c0,0.1,0,0.3,0,0.4c0,0.3,0,0.7,0,1
		c0,0.5,0.3,0.8,0.8,0.8c0,0,0,0,0,0c0.5,0,0.8-0.3,0.8-0.8c0-0.9,0-1.9,0-2.9C318.8,398.3,318.7,398.1,318.5,397.9z"/>
	<path d="M317.8,414.9c0,0.1,0,0.3,0,0.4c0,0.3,0,0.6,0,1c0,0.3,0.1,0.6,0.3,0.7c0.1,0.1,0.3,0.2,0.5,0.2c0,0,0,0,0.1,0
		c0.5,0,0.8-0.4,0.8-0.9c0-0.9,0-1.8,0-2.7c0-0.5-0.3-0.9-0.8-0.9c-0.2,0-0.4,0.1-0.6,0.2c-0.2,0.2-0.3,0.4-0.3,0.7
		c0,0.3,0,0.6,0,0.9C317.8,414.7,317.8,414.8,317.8,414.9z"/>
	<path d="M313.9,417c0.1,0.1,0.4,0.2,0.6,0.2c0,0,0,0,0,0c0.5,0,0.8-0.3,0.8-0.9c0-0.3,0-0.6,0-1c0-0.1,0-0.1,0-0.2l0-0.2
		c0-0.1,0-0.3,0-0.4c0-0.3,0-0.7,0-1c0-0.5-0.3-0.8-0.8-0.9c-0.3,0-0.5,0.1-0.6,0.2c-0.2,0.1-0.2,0.4-0.2,0.6c0,1,0,1.9,0,2.8
		C313.6,416.6,313.7,416.8,313.9,417z"/>
</g>
</svg>
