<?xml version="1.0" encoding="utf-8"?>
<!-- Generator: Adobe Illustrator 21.0.2, SVG Export Plug-In . SVG Version: 6.00 Build 0)  -->
<svg version="1.1" id="Capa_1" xmlns="http://www.w3.org/2000/svg" xmlns:xlink="http://www.w3.org/1999/xlink" x="0px" y="0px"
	 viewBox="0 0 376.4 376.4" style="enable-background:new 0 0 376.4 376.4;" xml:space="preserve">
<path d="M274.1,48.5c36.6,0,66.4,33.2,66.4,74.1c0,12.5-4,25.6-11.9,39c-4.7,7.9-10.6,15.7-17.2,22.5c-0.1,0.1-0.2,0.2-0.3,0.4
	L188.2,318.3L65.3,184.5c0,0,0,0,0,0l-0.4-0.4c-24-25.9-29.1-47.7-29.1-61.5c0-40.9,29.8-74.1,66.4-74.1c16.2,0,31.8,6.6,44,18.6
	c12.5,12.3,20.3,29.2,22,47.6c1,10.3,9.6,18.1,19.9,18.1s18.9-7.8,19.9-18.1c1.7-18.4,9.6-35.3,22-47.6
	C242.3,55.1,257.9,48.5,274.1,48.5 M274.1,28.5c-44.7,0-81.5,37-85.9,84.4c-4.5-47.4-41.2-84.4-85.9-84.4
	c-47.7,0-86.4,42.1-86.4,94.1c0,38.6,28.5,68.7,34.7,75.4l137.6,149.9L325.8,198c7.1-7.3,34.7-37.5,34.7-75.4
	C360.5,70.6,321.9,28.5,274.1,28.5L274.1,28.5z"/>
</svg>
