<?xml version="1.0" encoding="utf-8"?>
<!-- Generator: Adobe Illustrator 21.0.2, SVG Export Plug-In . SVG Version: 6.00 Build 0)  -->
<svg version="1.1" id="Layer_1" xmlns="http://www.w3.org/2000/svg" xmlns:xlink="http://www.w3.org/1999/xlink" x="0px" y="0px"
	 viewBox="0 0 89.8 89.8" style="enable-background:new 0 0 89.8 89.8;" xml:space="preserve">
<g>
	<path d="M44.9,31.1C37.2,31.1,31,37.3,31,45c0,7.7,6.2,13.9,13.9,13.9c7.7,0,13.9-6.2,13.9-13.9C58.8,37.3,52.5,31.1,44.9,31.1z
		 M44.9,53c-4.4,0-8-3.6-8-8c0-4.4,3.6-8,8-8c4.4,0,8,3.6,8,8C52.9,49.4,49.3,53,44.9,53z"/>
	<path d="M58.3,17.9H31.5c-7.6,0-13.7,6.2-13.7,13.7v26.8c0,7.6,6.2,13.7,13.7,13.7h26.8C65.8,72.1,72,66,72,58.4V31.6
		C72,24,65.8,17.9,58.3,17.9z M66,58.4c0,4.3-3.5,7.7-7.7,7.7H31.5c-4.3,0-7.7-3.5-7.7-7.7V31.6c0-4.3,3.5-7.7,7.7-7.7h26.8
		c4.3,0,7.7,3.5,7.7,7.7V58.4z"/>
	<circle cx="59.2" cy="30.7" r="3.3"/>
</g>
</svg>
