<?xml version="1.0"?>
<svg xmlns="http://www.w3.org/2000/svg" viewBox="0 0 64 64" width="512" height="512"><g id="outline"><path d="M29,52h4a1,1,0,0,0,1-1V47a1,1,0,0,0-1-1H29a1,1,0,0,0-1,1v4A1,1,0,0,0,29,52Zm1-4h2v2H30Z"/><path d="M49,52h4a1,1,0,0,0,1-1V47a1,1,0,0,0-1-1H49a1,1,0,0,0-1,1v4A1,1,0,0,0,49,52Zm1-4h2v2H50Z"/><path d="M6.168,14.555A1,1,0,0,0,7,15h5v2a1,1,0,0,0,1,1h4a1,1,0,0,0,1-1V15h2v4a1,1,0,0,0,1,1h4a1,1,0,0,0,1-1V15h5.94a8.954,8.954,0,0,0,5.5,4.628A23.229,23.229,0,0,0,36,27c0,3.541,1.3,5.285,2.568,6.15L21.534,42.115A1,1,0,0,0,22,44h2V61a1,1,0,0,0,1,1H57a1,1,0,0,0,1-1V44h2a1,1,0,0,0,.466-1.885L43.432,33.15C44.7,32.285,46,30.541,46,27a24.441,24.441,0,0,0-1.68-8.108A9,9,0,1,0,31.94,7H7a1,1,0,0,0-.832.445l-2,3a1,1,0,0,0,0,1.11ZM44,60H38V50h6Zm12-4H48v2h8v2H46V49a1,1,0,0,0-1-1H37a1,1,0,0,0-1,1V60H26V58h4V56H26V44H56Zm-.047-14H26.047L41,34.13ZM41.013,32C40.7,31.992,38,31.781,38,27a21.646,21.646,0,0,1,1.439-7.039c.187.011.371.039.561.039a8.944,8.944,0,0,0,2.463-.351A22.377,22.377,0,0,1,44,27C44,31.781,41.3,31.992,41.013,32ZM41,13a2,2,0,1,1,2-2A2,2,0,0,1,41,13ZM7.535,9H13v2h2V9h2v2h2V9h2v2h2V9h6v2h2V9h1.587a1,1,0,0,0,.927-.625,7,7,0,1,1,10.058,8.634c-.4-.929-.771-1.712-1.07-2.307a4.014,4.014,0,1,0-2.132.234c.286.54.8,1.543,1.351,2.841a6.956,6.956,0,0,1-8.207-4.152A1,1,0,0,0,32.587,13H25a1,1,0,0,0-1,1v4H22V14a1,1,0,0,0-1-1H17a1,1,0,0,0-1,1v2H14V14a1,1,0,0,0-1-1H7.535L6.2,11Z"/><rect x="32" y="56" width="2" height="2"/></g></svg>
