<?xml version="1.0" encoding="iso-8859-1"?>
<!-- Generator: Adobe Illustrator 19.0.0, SVG Export Plug-In . SVG Version: 6.00 Build 0)  -->
<svg version="1.1" id="Capa_1" xmlns="http://www.w3.org/2000/svg" xmlns:xlink="http://www.w3.org/1999/xlink" x="0px" y="0px"
	 viewBox="0 0 512.001 512.001" style="enable-background:new 0 0 512.001 512.001;" xml:space="preserve">
<g>
	<g>
		<polygon points="286.086,451.925 226.109,452.13 121.149,469.219 121.149,511.902 391.046,511.902 391.046,469.219 		"/>
	</g>
</g>
<g>
	<g>
		<g>
			<path d="M447.585,61.075h0.001C447.318,60.264,447.329,60.298,447.585,61.075z"/>
			<path d="M447.585,61.075H298.318c-4.53-12.703-14.523-22.696-27.227-27.227V0.098h-29.989v33.75
				c-12.703,4.53-22.696,14.523-27.227,27.227H64.083C63.094,64.084-4.087,269.041,0.196,256
				c-0.001,41.337,33.634,74.971,74.97,74.971c41.337,0,74.971-33.634,74.971-74.971L95.971,91.063h117.907
				c4.53,12.703,14.523,22.696,27.227,27.227v182.693H226.11v120.954h59.977V300.983h-14.994V118.29
				c12.703-4.53,22.696-14.623,27.227-27.327h117.784c-0.983,3-57.553,175.745-54.045,165.037c0,41.337,33.634,74.971,74.971,74.971
				s74.971-33.634,74.971-74.971C511.067,253.181,451.444,72.774,447.585,61.075z M114.353,241.006H35.981L75.167,123.19
				L114.353,241.006z M397.842,241.006l39.186-117.816l39.186,117.816H397.842z"/>
		</g>
	</g>
</g>
<g>
</g>
<g>
</g>
<g>
</g>
<g>
</g>
<g>
</g>
<g>
</g>
<g>
</g>
<g>
</g>
<g>
</g>
<g>
</g>
<g>
</g>
<g>
</g>
<g>
</g>
<g>
</g>
<g>
</g>
</svg>
