<svg height="512" viewBox="0 0 60 48" width="512" xmlns="http://www.w3.org/2000/svg"><g id="Page-1" fill="none" fill-rule="evenodd"><g id="004---AR-Maps" fill="rgb(0,0,0)" fill-rule="nonzero" transform="translate(0 -1)"><path id="Shape" d="m1.678 26.814c.27874146.2330642.66196616.2965996 1.00100684.1659583.33904069-.1306413.58054432-.4349009.63082257-.7947451s-.09858091-.7186462-.38882941-.9372132l-.655-.52c-.02096119-.37275-.2478166-.7027833-.58831561-.8558922s-.73793251-.1037935-1.03068439.1278922l-.268.212c-.23917502.1896891-.37860822.4782351-.37860822.7835s.1394332.5938109.37860822.7835z"/><path id="Shape" d="m4.4 23.3c.2255486-.0002306.44439547-.0767037.621-.217l.979-.773v5.4c-.43944297-.2910407-1.02965796-.1884683-1.34514147.2337698-.31548352.422238-.24653371 1.0173185.15714147 1.3562302l1.188.943v6.757c-.00846408 1.583908.9293435 3.0199381 2.383 3.649.50712918.232995 1.05891081.3527695 1.617.351h9.562l1.294 1.026c.4318933.3398955 1.057142.2675453 1.4-.162.1918362-.244063.2564103-.5647068.174-.864h15.3c-.034154.3966375.1702135.7757532.5203286.9652451s.7792796.1532612 1.0926714-.0922451l1.1-.873h9.557c2.209139 0 4-1.790861 4-4v-7.066c.011 0 .021.007.033.007.2254292.0000539.4442635-.0760624.621-.216l1.567-1.243c.4327151-.343245.505245-.9722849.162-1.405s-.9722849-.505245-1.405-.162l-.978.775v-5.39c.4417906.2732661 1.0192461.1627576 1.3289249-.2543183.3096788-.4170758.248443-1.0018126-.1409249-1.3456817l-1.188-.943v-6.757c.0042698-.225323-.0168635-.4504096-.063-.671-.3128719-1.9281163-1.9837004-3.34091488-3.937-3.329h-9.561l-1.1-.873c-.313372-.24618104-.7429992-.28280201-1.0935161-.09321017s-.5550077.5692023-.5204839.96621017h-3.625c-2.5713879-1.33064041-5.6286121-1.33064041-8.2 0h-3.47c.083805-.29850688.0211023-.61906989-.169-.864-.342858-.42954533-.9681067-.50189553-1.4-.162l-1.299 1.026h-9.562c-2.209139 0-4 1.790861-4 4v7.072c-.23479388-.0127874-.46651836.0580764-.654.2l-1.567 1.246c-.33204163.2646453-.46075529.7101228-.32102843 1.1110781s.51742527.6699558.94202843.6709219zm7.834 15.7 16.8-9.2c.3102684.1124138.6370397.172564.967.178.1200382-.0054134.2396119-.0184396.358-.039l8 9.06zm28.787 0-8.821-10c.027-.029.059-.051.085-.081.4-.47.807-.965 1.216-1.475l10.184 11.556zm5.979-2c.0085562.686625-.3299099 1.331215-.9 1.714l-10.863-12.314 11.763-6.443zm0-19.323-10.617 5.811c.6783325-1.0310771 1.274825-2.1137243 1.784-3.238l8.833-4.841zm1.467-6.677h1.533c.9951363.0016437 1.8376821.7346627 1.977 1.72.018198.0921678.0259137.186098.023.28v24c0 1.1045695-.8954305 2-2 2h-1.533c.3463739-.6098723.5299298-1.2986372.533-2v-24c-.0030702-.7013628-.1866261-1.3901277-.533-2zm-3.3 0c1.0572748.0486406 1.876498.9425011 1.833 2v.128l-8.035 4.4c.0206876-.1752857.0323696-.3515173.035-.528-.0006358-2.2171948-.8241427-4.3552482-2.311-6zm-15.167-1c3.8641657.0044086 6.9955914 3.1358343 7 7 0 2.044-2.334 6.017-6.243 10.627-.1920613.216472-.4676081.3403639-.757.3403639s-.5649387-.1238919-.757-.3403639c-3.909-4.61-6.243-8.583-6.243-10.627.0044086-3.8641657 3.1358343-6.9955914 7-7zm-22 9.308 1.368 1.282c.40269492.378896.63133176.907076.632 1.46v5.9c.0000099.5527743-.22876112 1.0809024-.632 1.459l-1.368 1.282zm0 14.125 2.735-2.565c.80575-.7567936 1.2634477-1.8125738 1.265-2.918v-5.9c-.0020859-1.1054015-.4592592-2.1611681-1.264-2.919l-2.736-2.564v-3.567c0-1.1045695.8954305-2 2-2h13.311c-1.4868573 1.6447518-2.3103642 3.7828052-2.311 6 0 2.284 1.746 5.38 3.837 8.268l-16.837 9.224zm0 3.34 18.054-9.892c.425.543.852 1.069 1.273 1.574l-18.51 10.136c-.51201608-.3683701-.81595017-.9602418-.817-1.591z"/><path id="Shape" d="m23.828 43.106c-.1648494.2077903-.2403942.4725604-.2100127.7360545.0303815.263494.1642002.504124.3720127.6689455l1.567 1.243c.2799176.2220406.6570293.2778803.9892809.1464848s.569166-.430064.6215-.7835-.0878633-.7079442-.3677809-.9299848l-1.567-1.243c-.2077903-.1648494-.4725604-.2403942-.7360545-.2100127-.263494.0303815-.504124.1642002-.6689455.3720127z"/><path id="Shape" d="m30.259 46.519-.259.2-.066-.052c-.279071-.2313967-.6615213-.293635-.9995624-.1626644-.3380412.1309706-.5787257.4346362-.6290471.7936527-.0503213.3590165.0976023.7171512.3866095.9360117l.687.545c.3638252.2882526.8781748.2882526 1.242 0l.88-.7c.2890072-.2188605.4369308-.5769952.3866095-.9360117-.0503214-.3590165-.2910059-.6626821-.6290471-.7936527-.3380411-.1309706-.7204914-.0687323-.9995624.1626644z"/><path id="Shape" d="m34.961 42.791-1.567 1.242c-.4185286.3470305-.4831129.9648641-.1454006 1.3909471.3377122.426083.9539705.5042825 1.3874006.1760529l1.564-1.242c.2890072-.2188605.4369308-.5769952.3866095-.9360117-.0503214-.3590165-.2910059-.6626821-.6290471-.7936527-.3380411-.1309706-.7204914-.0687323-.9995624.1626644z"/><path id="Shape" d="m58.322 23.186c-.2787415-.2330642-.6619662-.2965996-1.0010068-.1659583-.3390407.1306413-.5805444.4349009-.6308226.7947451-.0502783.3598442.0985809.7186462.3888294.9372132l.655.52c.0209612.37275.2478166.7027833.5883156.8558922s.7379325.1037935 1.0306844-.1278922l.268-.212c.239175-.1896891.3786082-.4782351.3786082-.7835s-.1394332-.5938109-.3786082-.7835z"/><path id="Shape" d="m24.612 7.272c.225509.00052794.4444951-.07564116.621-.216l1.567-1.243c.2799176-.22204056.4201149-.57654876.3677809-.92998479-.052334-.35343604-.2892484-.65210455-.6215-.78350001-.3322516-.13139547-.7093633-.07555577-.9892809.1464848l-1.567 1.243c-.3330194.26455335-.4622653.71080501-.3221746 1.11238314.1400906.40157812.5188625.67060763.9441746.67061686z"/><path id="Shape" d="m29.934 3.328.066-.052.259.205c.2785928.23613757.6637575.3016235 1.0047368.1708259.3409793-.13079759.5835381-.43707449.6327364-.79895073.0491982-.36187624-.1027893-.72179302-.3964732-.93887517l-.88-.7c-.3638252-.28825258-.8781748-.28825258-1.242 0l-.687.545c-.2890072.21886052-.4369308.57699521-.3866095.93601171.0503214.3590165.2910059.66268212.6290471.79365273.3380411.13097061.7204914.06873231.9995624-.16266444z"/><path id="Shape" d="m34.961 7.209c.2778987.24251144.6667276.31236233 1.0116579.18173861.3449303-.13062373.5899535-.44051183.6375033-.80626929.0475497-.36575746-.110095-.72799379-.4101612-.94246932l-1.564-1.242c-.4329912-.34296881-1.0620312-.26999122-1.405.16300002-.3429688.43299123-.2699912 1.06203115.163 1.40499998z"/><path id="Shape" d="m30 21c2.209139 0 4-1.790861 4-4s-1.790861-4-4-4-4 1.790861-4 4 1.790861 4 4 4zm0-6c1.1045695 0 2 .8954305 2 2s-.8954305 2-2 2-2-.8954305-2-2 .8954305-2 2-2z"/></g></g></svg>