<?xml version="1.0" encoding="utf-8"?>
<!-- Generator: Adobe Illustrator 24.0.1, SVG Export Plug-In . SVG Version: 6.00 Build 0)  -->
<svg version="1.1" id="Слой_1" xmlns="http://www.w3.org/2000/svg" xmlns:xlink="http://www.w3.org/1999/xlink" x="0px" y="0px"
	 viewBox="0 0 334.31 430.42" style="enable-background:new 0 0 334.31 430.42;" xml:space="preserve">
<path d="M334.31,95.37c0.02-5.7-2.08-9.07-7.25-11.43c-51.47-23.54-102.89-47.19-154.27-70.93c-4.35-2.01-8.15-2-12.5,0.01
	C108.91,36.74,57.49,60.38,6.01,83.92c-5.16,2.36-7.26,5.75-7.23,11.45c0.17,38.59-0.2,77.18,0.25,115.77
	c0.18,15.39,1.36,30.84,3.2,46.12c3.15,26,13.09,49.4,29.1,70.23c13.12,17.06,29.19,30.94,46.52,43.41
	c27.19,19.56,56.77,34.91,87.1,48.91c1.06,0,2.13,0,3.19,0c16.24-8.2,32.73-15.93,48.65-24.7c25.24-13.89,49.04-29.94,69.64-50.31
	c21.21-20.97,35.88-45.64,42.28-74.98c4.22-19.34,5.37-38.99,5.45-58.69C334.35,172.55,334.15,133.96,334.31,95.37z M317.34,233.83
	c-1.25,37.41-13.17,70.54-40.02,97.52c-14.34,14.41-30.11,27.13-47.58,37.38c-19.8,11.62-40.29,22.08-60.58,32.87
	c-1.41,0.75-3.87,0.64-5.38-0.07c-26.5-12.46-52.36-26.09-76.15-43.28c-22.05-15.93-41.99-33.93-55.22-58.29
	c-9.64-17.73-15.05-36.8-15.77-56.76c-1.22-34.02-1.31-68.08-1.76-102.13c-0.17-13.17,0.06-26.35-0.1-39.52
	c-0.04-2.91,0.72-4.39,3.49-5.66c48.32-22.11,96.6-44.33,144.85-66.59c2.34-1.08,4.21-1.23,6.65-0.1
	c48.36,22.35,96.76,44.61,145.2,66.79c2.57,1.18,3.37,2.57,3.35,5.33c-0.12,22.49-0.06,44.98-0.06,67.46c0.12,0,0.25,0,0.37,0.01
	C318.22,190.47,318.07,212.16,317.34,233.83z"/>
<path d="M290.96,109.65c-6.37-3-12.73-6.02-19.18-8.83c-4.88-2.13-9.29-0.66-11.27,3.4c-2.06,4.23-0.26,8.72,4.67,11.14
	c3.93,1.93,7.92,3.79,11.98,5.43c2.19,0.89,2.86,2.14,2.84,4.47c-0.11,13.44,0.12,26.88-0.09,40.32
	c-0.4,25.66-0.34,51.36-1.74,76.98c-1.39,25.31-12.33,46.69-30.48,64.44c-17.48,17.09-37.83,30.06-59.02,41.88
	c-4.47,2.49-9.02,4.84-14.08,7.54c0-2.07,0-3.37,0-4.67c-0.01-8.78,0.07-17.56-0.05-26.34c-0.08-6.2-4.21-9.75-9.71-8.63
	c-3.91,0.8-6.18,3.97-6.21,8.99c-0.05,9.96-0.02,19.92-0.02,30.46c-1.13-0.49-1.61-0.66-2.06-0.89
	c-18.8-9.73-37.03-20.42-53.84-33.34c-13.69-10.52-26.01-22.4-34.92-37.4c-9.71-16.34-13.44-34.4-13.75-53.07
	c-0.6-35.52-0.53-71.04-0.91-106.56c-0.03-2.9,1.55-3.54,3.51-4.44c35.62-16.34,71.24-32.68,106.82-49.12c2.28-1.06,4.03-1.09,6.3,0
	c8.02,3.86,16.12,7.56,24.26,11.16c5.75,2.54,10.65,0.44,12.05-4.92c1.02-3.89-0.81-7.37-5.31-9.51
	c-7.07-3.37-14.19-6.67-21.34-9.88c-14.71-6.59-10.97-6.67-25.51-0.01C117.26,75,80.71,91.87,44.12,108.65
	c-4.05,1.86-6.94,4.29-6.92,9.18c0.09,33.93-0.03,67.86,0.27,101.79c0.13,15.29,1.22,30.56,5.08,45.48
	c6.52,25.18,21.34,44.89,40.68,61.55c23.87,20.56,51.16,35.73,79.29,49.47c2.24,1.1,5.97,1.02,8.24-0.08
	c27.89-13.62,54.92-28.68,78.65-48.99c11.69-10,21.92-21.29,29.83-34.59c10.46-17.6,15.23-36.96,15.67-57.07
	c0.86-39.23,0.72-78.49,0.99-117.74C295.92,113.96,294.29,111.22,290.96,109.65z"/>
<path d="M158.89,115.09c-13.15,11.24-26.28,22.49-39.42,33.74c-10.51,9-21,18.02-31.55,26.98c-3.15,2.67-4.74,5.87-3.26,9.86
	c1.43,3.83,4.6,5.27,8.6,5.11c1.96-0.08,3.92-0.01,6.34-0.01c0,1.96,0,3.52,0,5.08c0,21.42-0.01,42.85,0,64.27
	c0,8.62,2.62,11.28,11.12,11.28c37.13,0,74.25-0.01,111.38-0.02c8.92,0,11.42-2.48,11.42-11.36c0.01-21.42,0-42.85,0-64.27
	c0-1.54,0-3.09,0-4.98c2.24,0,3.95-0.08,5.65,0.02c4.24,0.24,7.81-0.97,9.33-5.21c1.51-4.19-0.45-7.35-3.68-10.1
	c-23.59-20.11-47.12-40.3-70.68-60.45C168.03,109.8,165.06,109.82,158.89,115.09z M217.63,186.72c-0.18,21.27-0.09,42.54-0.09,63.81
	c0,1.44,0,2.87,0,4.74c-34.19,0-67.8,0-101.98,0c0-1.54,0-2.95,0-4.36c0-21.4,0.1-42.81-0.08-64.21c-0.03-3.63-1.21-7.25-2.02-11.72
	c16.96-14.51,34.92-29.86,53.08-45.39c18.18,15.55,36.13,30.9,53.08,45.39C218.83,179.46,217.66,183.09,217.63,186.72z"/>
<path d="M234.37,100.34c4.09,0.19,7.89-3.51,7.99-7.78c0.1-4.29-3.67-8.06-8.13-8.14c-4.35-0.08-7.9,3.38-7.93,7.73
	C226.27,96.54,229.8,100.13,234.37,100.34z"/>
<path d="M158.62,296.08c0.05,4.17,3.85,7.89,8.02,7.85c4.15-0.03,7.9-3.87,7.84-8.03c-0.06-4.18-3.86-7.88-8.02-7.83
	C162.27,288.14,158.57,291.92,158.62,296.08z"/>
<path d="M154.44,209.09c-4.15-4.1-8.93-4.49-12.31-1.16c-3.4,3.35-3.07,8.19,0.95,12.33c3.61,3.71,7.29,7.36,10.97,11
	c5.3,5.25,9.33,5.24,14.66-0.07c10.25-10.22,20.48-20.47,30.69-30.73c1.02-1.03,2.02-2.13,2.78-3.36c1.91-3.1,1.41-7.02-1.22-9.49
	c-2.68-2.52-5.84-3.19-9.13-1.36c-1.59,0.89-2.97,2.23-4.27,3.53c-8.66,8.6-17.27,17.25-26.48,26.47
	C158.74,213.72,156.69,211.31,154.44,209.09z"/>
</svg>
