<svg height="455pt" viewBox="0 -10 455.71029 455" width="455pt" xmlns="http://www.w3.org/2000/svg"><path d="m8 199.828125h39.75v224.46875c.019531 2.089844.878906 4.085937 2.375 5.542969 1.5 1.457031 3.519531 2.257812 5.609375 2.222656l323.5625 2.765625h.074219c2.132812.085937 4.222656-.660156 5.816406-2.082031 1.5625-1.390625 2.488281-3.359375 2.5625-5.449219v-94.433594l30.597656 18.871094c1.222656.769531 2.640625 1.179687 4.085938 1.179687 1.421875 0 2.816406-.347656 4.070312-1.019531 2.5625-1.398437 4.183594-4.058593 4.25-6.980469v-99.738281c15.746094-13.238281 24.875-32.734375 24.957032-53.308593-.03125-21.789063-10.320313-42.296876-27.773438-55.34375-17.453125-13.050782-40.03125-17.121094-60.941406-10.984376l-141.949219-123.222656c-3.007813-2.613281-7.480469-2.613281-10.492187-.007812l-211.789063 183.394531c-2.523437 2.195313-3.425781 5.730469-2.265625 8.871094 1.164062 3.136719 4.148438 5.230469 7.5 5.253906zm257.75 218.414063-91-.839844v-101.574219h91zm16 .148437v-110.683594c-.015625-2.113281-.871094-4.132812-2.382812-5.613281-1.507813-1.480469-3.546876-2.296875-5.660157-2.265625h-106.695312c-4.445313-.078125-8.128907 3.433594-8.261719 7.878906v109.546875l-95-.882812v-216.542969h253.957031c1.988281 17.839844 11 34.15625 25.042969 45.34375v99.742187c-.070312 2.867188 1.433594 5.546876 3.917969 6.980469 2.5625 1.414063 5.6875 1.351563 8.191406-.160156l16.890625-10.289063v77.78125zm133-87.765625-23.992188-14.578125c-2.542968-1.574219-5.753906-1.574219-8.292968 0l-23.714844 14.578125v-75.5625c8.792969 3.972656 18.347656 5.996094 28 5.933594 9.640625-.042969 19.167969-2.058594 28-5.933594zm24.75-138.757812c-.003906 29.34375-23.789062 53.128906-53.128906 53.128906-29.34375 0-53.128906-23.789063-53.128906-53.128906 0-29.34375 23.785156-53.128907 53.128906-53.128907 29.328125.035157 53.09375 23.800781 53.128906 53.128907zm-219.734375-172.882813 130.96875 113.730469c-18.359375 10.96875-30.558594 29.863281-33 51.113281h-288.277344zm0 0"/><path d="m345.558594 181.941406c-.9375 2.894532-.15625 6.074219 2.027344 8.199219l13.585937 13.246094-3.207031 18.699219c-.515625 3.003906.71875 6.035156 3.183594 7.824218 2.464843 1.789063 5.730468 2.027344 8.425781.609375l16.800781-8.832031 16.796875 8.832031c2.695313 1.417969 5.960937 1.179688 8.425781-.609375 2.464844-1.789062 3.695313-4.824218 3.183594-7.824218l-3.207031-18.699219 13.585937-13.246094c2.183594-2.125 2.96875-5.304687 2.027344-8.199219-.941406-2.898437-3.445312-5.007812-6.460938-5.445312l-18.777343-2.730469-8.402344-17.015625c-1.347656-2.730469-4.128906-4.460938-7.171875-4.460938-3.046875 0-5.824219 1.730469-7.171875 4.460938l-8.402344 17.015625-18.777343 2.730469c-3.015626.433594-5.523438 2.546875-6.464844 5.445312zm31.703125 7.054688c2.605469-.378906 4.855469-2.015625 6.023437-4.375l3.085938-6.253906 3.085937 6.253906c1.164063 2.359375 3.417969 3.996094 6.023438 4.375l6.898437 1-4.992187 4.867187c-1.882813 1.839844-2.746094 4.488281-2.300781 7.082031l1.179687 6.871094-6.171875-3.242187c-2.332031-1.226563-5.113281-1.226563-7.445312 0l-6.171876 3.242187 1.179688-6.871094c.445312-2.59375-.414062-5.242187-2.300781-7.082031l-4.992188-4.867187zm0 0"/></svg>