<?xml version="1.0" encoding="utf-8"?>
<!-- Generator: Adobe Illustrator 24.0.1, SVG Export Plug-In . SVG Version: 6.00 Build 0)  -->
<svg version="1.1" id="Слой_1" xmlns="http://www.w3.org/2000/svg" xmlns:xlink="http://www.w3.org/1999/xlink" x="0px" y="0px"
	 viewBox="0 0 84 84" style="enable-background:new 0 0 84 84;" xml:space="preserve">
<g>
	<path d="M27.9,41.3c0-1.4,0-2.7,0-4c0-1.5,0.2-1.6,1.7-1.6c0.3,0,0.7,0,1.1,0c0-1.1,0-2.2,0-3.3c0-1,0.3-1.3,1.3-1.3
		c1.2,0,2.4,0,3.8,0c0-0.4,0-0.7,0-1c0-4.6,0-9.1,0-13.7c0-1.1,0.2-1.3,1.3-1.3c1.3,0,2.7,0,4.1,0c0-1.4,0-2.7,0-4.1
		c0-0.6,0-1.3,0-1.9c0-0.6,0.3-0.9,0.8-1c0.6,0,0.9,0.4,0.9,1c0,1.8,0,3.7,0,5.5c0,0.1,0,0.2,0,0.4c1.3,0,2.6,0,3.8,0
		c1.4,0,1.5,0.1,1.5,1.6c0,4.5,0,8.9,0,13.4c0,0.3,0,0.6,0,1c1.3,0,2.5,0,3.7,0c1.2,0,1.4,0.2,1.4,1.4c0,1,0,2.1,0,3.2
		c0.4,0,0.6,0,0.9,0c1.8,0,1.8,0.1,1.8,1.9c0,1.2,0,2.4,0,3.5c0,0,0,0.1,0.1,0.2c0.4,0,0.8,0,1.2,0c1,0,1.2,0.3,1.2,1.2
		c0,5.4,0,10.8,0,16.2c0,0.7,0,1.3,0,2.1c1.2,0,2.3,0,3.4,0c1.2,0,1.4,0.2,1.4,1.4c0,4,0,8.1,0,12.1c0,1.1-0.2,1.3-1.3,1.3
		c-13.4,0-26.7,0-40.1,0c-1.2,0-1.4-0.2-1.4-1.4c0-4,0-8,0-12c0-1.2,0.2-1.4,1.4-1.4c1.1,0,2.2,0,3.4,0c0-0.3,0-0.6,0-0.9
		c0-5.7,0-11.4,0-17c0-1.4,0.1-1.6,1.6-1.6C27.3,41.4,27.5,41.4,27.9,41.3z M56.9,43.2c-10,0-19.9,0-29.9,0c0,0.4,0,0.7,0,1.1
		c0,5.6,0,11.2,0,16.9c0,1.4-0.1,1.5-1.5,1.5c-1.1,0-2.2,0-3.2,0c0,3.9,0,7.6,0,11.3c4.6,0,9.2,0,13.8,0c0-0.4,0-0.8,0-1.1
		c0-6.3,0-12.6,0-18.9c0-0.6,0.1-1.2,0.8-1.2c0.7,0,0.9,0.5,0.9,1.2c0,0.2,0,0.4,0,0.7c0,6.1,0,12.3,0,18.4c0,0.3,0,0.6,0,1
		c1.2,0,2.2,0,3.3,0c0-0.4,0-0.7,0-1c0-6.2,0-12.5,0-18.7c0-0.2-0.1-0.5,0-0.6c0.2-0.3,0.5-0.6,0.8-0.9c0.3,0.3,0.6,0.5,0.8,0.8
		c0.1,0.1,0,0.4,0,0.6c0,6.3,0,12.5,0,18.8c0,0.3,0,0.7,0,1c1.2,0,2.2,0,3.3,0c0-0.3,0-0.6,0-0.8c0-6.3,0-12.6,0-18.8
		c0-1.1,0.3-1.6,0.9-1.6c0.9,0.1,0.8,0.9,0.8,1.5c0,6.2,0,12.5,0,18.7c0,0.3,0,0.6,0,1c4.7,0,9.3,0,13.8,0c0-3.8,0-7.5,0-11.3
		c-1.2,0-2.3,0-3.4,0c-1.2,0-1.3-0.2-1.3-1.3c0-5.7,0-11.4,0-17C56.9,43.9,56.9,43.6,56.9,43.2z M32.4,35.7c6.5,0,12.8,0,19.2,0
		c0-0.9,0-1.8,0-2.8c-1.3,0-2.5,0-3.7,0c-1.1,0-1.4-0.2-1.4-1.3c0-4.6,0-9.1,0-13.7c0-0.3,0-0.6,0-0.9c-3.1,0-6.1,0-9.2,0
		c0,0.3,0,0.6,0,0.9c0,4.3,0,8.7,0,13c0,2,0,2-2,2c-1,0-2,0-3,0C32.4,33.9,32.4,34.8,32.4,35.7z M29.7,41.3c8.3,0,16.5,0,24.7,0
		c0-1.3,0-2.5,0-3.8c-8.2,0-16.4,0-24.7,0C29.7,38.8,29.7,40,29.7,41.3z"/>
	<path d="M32.8,65.1c0,1.4,0,2.7,0,4.1c0,0.6,0,1.2-0.9,1.2c-0.8,0-0.8-0.6-0.8-1.2c0-2.8,0-5.5,0-8.3c0-0.6,0.1-1.1,0.8-1.2
		c0.8,0,0.9,0.5,0.9,1.1C32.8,62.3,32.8,63.7,32.8,65.1z"/>
	<path d="M52.8,65.1c0,1.4,0,2.8,0,4.2c0,0.6-0.1,1.1-0.8,1.2c-0.8,0-0.8-0.5-0.8-1.1c0-2.8,0-5.6,0-8.4c0-0.6,0.1-1.2,0.9-1.2
		c0.7,0,0.8,0.6,0.8,1.2C52.8,62.3,52.8,63.7,52.8,65.1C52.8,65.1,52.8,65.1,52.8,65.1z"/>
	<path d="M47.8,47.9c0,0.5,0.1,1,0,1.4c-0.1,0.3-0.5,0.8-0.7,0.8c-0.3,0-0.8-0.4-0.9-0.7c-0.1-1-0.1-2,0-2.9c0-0.3,0.5-0.8,0.8-0.7
		c0.3,0,0.7,0.4,0.8,0.8C47.9,46.9,47.8,47.4,47.8,47.9C47.8,47.9,47.8,47.9,47.8,47.9z"/>
	<path d="M37.9,47.9c0,0.4,0,0.9,0,1.3c0,0.5-0.3,1-0.9,0.9c-0.3-0.1-0.8-0.5-0.8-0.8c-0.1-0.9-0.1-1.9,0-2.8c0-0.3,0.5-0.8,0.8-0.8
		c0.5-0.1,0.8,0.3,0.9,0.9C37.9,47,37.9,47.5,37.9,47.9C37.9,47.9,37.9,47.9,37.9,47.9z"/>
	<path d="M32.8,47.9c0,0.5,0.1,1,0,1.4c-0.1,0.3-0.5,0.8-0.8,0.8c-0.5,0.1-0.9-0.3-0.9-0.8c0-0.9-0.1-1.9,0-2.8
		c0-0.3,0.5-0.6,0.8-0.8c0.3,0.3,0.7,0.5,0.8,0.9C32.9,46.9,32.8,47.4,32.8,47.9C32.8,47.9,32.8,47.9,32.8,47.9z"/>
	<path d="M42.8,47.9c0,0.5,0,0.9,0,1.4c0,0.6-0.3,1-0.8,0.9c-0.3-0.1-0.7-0.5-0.8-0.8c-0.1-0.9-0.1-1.9,0-2.8c0-0.3,0.5-0.8,0.8-0.8
		c0.5-0.1,0.8,0.3,0.8,0.9C42.8,47,42.8,47.4,42.8,47.9z"/>
	<path d="M52.8,47.9c0,0.5,0.1,1,0,1.4c-0.1,0.3-0.5,0.6-0.8,0.8c-0.3-0.3-0.8-0.5-0.8-0.8c-0.1-0.9-0.1-1.9,0-2.9
		c0-0.3,0.5-0.8,0.7-0.7c0.3,0,0.7,0.4,0.9,0.8C52.9,46.9,52.8,47.4,52.8,47.9z"/>
	<path d="M32.8,55.1c0,0.5,0.1,1,0,1.4c-0.1,0.3-0.5,0.7-0.8,0.7c-0.3,0-0.8-0.4-0.8-0.7c-0.1-1-0.1-2,0-3c0-0.3,0.5-0.7,0.8-0.7
		c0.3,0,0.7,0.4,0.8,0.7C32.9,54,32.8,54.5,32.8,55.1z"/>
	<path d="M52.8,54.9c0,0.5,0,0.9,0,1.4c0,0.5-0.3,1-0.9,0.9c-0.3-0.1-0.7-0.5-0.8-0.8c-0.1-0.9-0.1-1.9,0-2.8c0-0.3,0.5-0.6,0.8-0.9
		c0.3,0.3,0.7,0.5,0.8,0.8C52.9,54,52.8,54.5,52.8,54.9C52.8,54.9,52.8,54.9,52.8,54.9z"/>
	<path d="M41.2,26.2c0-1.7,0-3.3,0-5c0-0.6,0.2-1.1,0.9-1.1c0.6,0,0.8,0.5,0.8,1.1c0,3.4,0,6.8,0,10.2c0,0.6-0.1,1.1-0.9,1.1
		c-0.7,0-0.8-0.6-0.8-1.2C41.2,29.6,41.2,27.9,41.2,26.2z"/>
</g>
</svg>
