<?xml version="1.0" encoding="utf-8"?>
<!-- Generator: Adobe Illustrator 21.0.2, SVG Export Plug-In . SVG Version: 6.00 Build 0)  -->
<svg version="1.1" id="Capa_1" xmlns="http://www.w3.org/2000/svg" xmlns:xlink="http://www.w3.org/1999/xlink" x="0px" y="0px"
	 viewBox="0 0 513.3 513.3" style="enable-background:new 0 0 513.3 513.3;" xml:space="preserve">
<path d="M491.8,417.6l-86.7-86.7l1.5-2.9c11.5-22.9,25.1-58.9,25.1-100.4c0-117.5-95.6-213.1-213.1-213.1S5.5,110.1,5.5,227.6
	c0,117.5,95.6,213.1,213.1,213.1c41.4,0,77.5-13.7,100.4-25.1l2.9-1.5l86.8,86.8c11.5,11.5,26.3,17.9,41.6,17.9
	c15.3,0,30-6.3,41.5-17.8C513.1,477.2,513.1,441.4,491.8,417.6z M339.5,348.5c-32.2,32.2-75.2,50-120.9,50
	c-45.8,0-88.7-17.7-120.9-50s-50-75.2-50-120.9c0-45.8,17.7-88.7,50-120.9c32.2-32.2,75.2-50,120.9-50c45.8,0,88.7,17.7,120.9,50
	s50,75.2,50,120.9C389.5,273.4,371.7,316.3,339.5,348.5z"/>
</svg>
