<?xml version="1.0" encoding="utf-8"?>
<!-- Generator: Adobe Illustrator 24.0.1, SVG Export Plug-In . SVG Version: 6.00 Build 0)  -->
<svg version="1.1" xmlns="http://www.w3.org/2000/svg" xmlns:xlink="http://www.w3.org/1999/xlink" x="0px" y="0px"
	 viewBox="0 0 1662 716" style="enable-background:new 0 0 1662 716;" xml:space="preserve">
<style type="text/css">
	.st0{opacity:0.55;fill:#0095DA;}
	.st1{opacity:0.55;fill:#FFFFFF;}
</style>
<g id="дом">
	<image style="overflow:visible;" width="1662" height="716" xlink:href="../дом.png" >
	</image>
</g>
<g id="hous_left">
	<g id="floor_1">
		<polygon id="hover" class="st0" points="106.7,544.6 106.7,545.1 129.3,545.1 129.3,578.8 106.7,578.8 106.7,603.9 129.3,603.9 
			129.3,604.2 655.3,604.2 655.3,544.6 		"/>
		<polygon id="normal" class="st1" points="106.7,544.6 106.7,545.1 129.3,545.1 129.3,578.8 106.7,578.8 106.7,603.9 129.3,603.9 
			129.3,604.2 655.3,604.2 655.3,544.6 		"/>
	</g>
	<g id="floor_2">
		<polygon id="hover_1_" class="st0" points="129.3,518.2 128,518.2 106.7,518.2 106.7,544.6 655.3,544.6 655.3,485 129.3,485 		"/>
		<polygon id="normal_1_" class="st1" points="129.3,518.2 128,518.2 106.7,518.2 106.7,544.6 655.3,544.6 655.3,485 129.3,485 		
			"/>
	</g>
	<g id="floor_3">
		<polygon id="hover_3_" class="st0" points="129.3,457.6 106.7,457.6 106.7,485 129.3,485 655.3,485 655.3,469 681.7,469 
			681.7,425.5 129.3,425.5 		"/>
		<polygon id="normal_2_" class="st1" points="129.3,457.6 106.7,457.6 106.7,485 129.3,485 655.3,485 655.3,469 681.7,469 
			681.7,425.5 129.3,425.5 		"/>
	</g>
	<g id="floor_4">
		<polygon id="hover_2_" class="st0" points="129.3,371.5 129.3,400.1 106.7,400.1 106.7,424.2 129.3,424.2 129.3,425.5 
			681.7,425.5 681.7,365.9 129.3,365.9 		"/>
		<polygon id="normal_3_" class="st1" points="129.3,371.5 129.3,400.1 106.7,400.1 106.7,424.2 129.3,424.2 129.3,425.5 
			681.7,425.5 681.7,365.9 129.3,365.9 		"/>
	</g>
	<g id="floor_5">
		<polygon id="hover_4_" class="st0" points="129.3,340 106.7,340 106.7,365.6 129.3,365.6 129.3,365.9 681.7,365.9 681.7,307.4 
			129.3,307.4 		"/>
		<polygon id="normal_5_" class="st1" points="129.3,340 106.7,340 106.7,365.6 129.3,365.6 129.3,365.9 681.7,365.9 681.7,307.4 
			129.3,307.4 		"/>
	</g>
	<g id="floor_6">
		<polygon id="hover_5_" class="st0" points="129.3,255.6 129.3,279.9 106.7,279.9 106.7,306 129.3,306 129.3,307.4 681.7,307.4 
			681.7,246.7 129.3,246.7 		"/>
		<polygon id="normal_4_" class="st1" points="129.3,255.6 129.3,279.9 106.7,279.9 106.7,306 129.3,306 129.3,307.4 681.7,307.4 
			681.7,246.7 129.3,246.7 		"/>
	</g>
	<g id="floor_7">
		<polygon id="hover_6_" class="st0" points="106.7,186.4 129.3,186.4 129.3,219.8 106.7,219.8 106.7,246.2 129.3,246.2 
			129.3,246.7 681.7,246.7 681.7,186 106.7,186 		"/>
		<polygon id="normal_6_" class="st1" points="106.7,186.4 129.3,186.4 129.3,219.8 106.7,219.8 106.7,246.2 129.3,246.2 
			129.3,246.7 681.7,246.7 681.7,186 106.7,186 		"/>
	</g>
	<g id="floor_8">
		<polygon id="hover_7_" class="st0" points="103.4,126.8 129.3,126.8 129.3,160.3 106.7,160.3 106.7,186 681.7,186 681.7,126.5 
			103.4,126.5 		"/>
		<polygon id="normal_7_" class="st1" points="103.4,126.8 129.3,126.8 129.3,160.3 106.7,160.3 106.7,186 681.7,186 681.7,126.5 
			103.4,126.5 		"/>
	</g>
	<g id="floor_9">
		<polygon id="hover_8_" class="st0" points="129.3,100.7 103.4,100.7 103.4,126.5 681.7,126.5 681.7,119.5 695.2,111.3 690.8,97.1 
			695.2,96.5 686.2,67.1 88,67.1 129.3,92.8 		"/>
		<polygon id="normal_8_" class="st1" points="129.3,100.7 103.4,100.7 103.4,126.5 681.7,126.5 681.7,119.5 695.2,111.3 
			690.8,97.1 695.2,96.5 686.2,67.1 88,67.1 129.3,92.8 		"/>
	</g>
	<g id="floor_10">
		<polygon id="hover_9_" class="st0" points="678.6,42.6 678.6,40.8 671.4,40.8 656.6,19.3 579.9,19.3 578.3,22.5 565.9,22.5 
			565.9,19.3 487.3,19.3 485.3,22.9 477,22.9 477,19.3 399.3,19.3 397.3,22.9 385.7,22.9 385.7,19.3 308.3,19.3 305.6,22.8 
			295.2,22.8 295.2,19.3 217.1,19.3 214.6,21.9 203.6,21.9 203.6,19.3 124.7,19.3 111.7,37.1 82.8,37.1 82.8,40.6 69.4,40.6 
			77.8,51.8 77.8,58.1 73.5,58.1 87.9,67.1 686.1,67.1 		"/>
		<polygon id="normal_9_" class="st1" points="678.6,42.6 678.6,40.8 671.4,40.8 656.6,19.3 579.9,19.3 578.3,22.5 565.9,22.5 
			565.9,19.3 487.3,19.3 485.3,22.9 477,22.9 477,19.3 399.3,19.3 397.3,22.9 385.7,22.9 385.7,19.3 308.3,19.3 305.6,22.8 
			295.2,22.8 295.2,19.3 217.1,19.3 214.6,21.9 203.6,21.9 203.6,19.3 124.7,19.3 111.7,37.1 82.8,37.1 82.8,40.6 69.4,40.6 
			77.8,51.8 77.8,58.1 73.5,58.1 87.9,67.1 686.1,67.1 		"/>
	</g>
</g>
<g id="hous_right">
	<g id="floor_1_1_">
		<polygon id="hover_17_" class="st0" points="1601.4,544.6 1601.4,545.1 1578.8,545.1 1578.8,578.8 1601.4,578.8 1601.4,603.9 
			1578.8,603.9 1578.8,604.2 1052.7,604.2 1052.7,544.6 		"/>
		<polygon id="normal_10_" class="st1" points="1601.4,544.6 1601.4,545.1 1578.8,545.1 1578.8,578.8 1601.4,578.8 1601.4,603.9 
			1578.8,603.9 1578.8,604.2 1052.7,604.2 1052.7,544.6 		"/>
	</g>
	<g id="floor_2_1_">
		<polygon id="hover_16_" class="st0" points="1578.8,518.2 1580.1,518.2 1601.4,518.2 1601.4,544.6 1052.7,544.6 1052.7,485 
			1578.8,485 		"/>
		<polygon id="normal_19_" class="st1" points="1578.8,518.2 1580.1,518.2 1601.4,518.2 1601.4,544.6 1052.7,544.6 1052.7,485 
			1578.8,485 		"/>
	</g>
	<g id="floor_3_1_">
		<polygon id="hover_19_" class="st0" points="1578.8,457.6 1601.4,457.6 1601.4,485 1578.8,485 1052.7,485 1052.7,469 1026.4,469 
			1026.4,425.5 1578.8,425.5 		"/>
		<polygon id="normal_18_" class="st1" points="1578.8,457.6 1601.4,457.6 1601.4,485 1578.8,485 1052.7,485 1052.7,469 1026.4,469 
			1026.4,425.5 1578.8,425.5 		"/>
	</g>
	<g id="floor_4_1_">
		<polygon id="hover_18_" class="st0" points="1578.8,371.5 1578.8,400.1 1601.4,400.1 1601.4,424.2 1578.8,424.2 1578.8,425.5 
			1026.4,425.5 1026.4,365.9 1578.8,365.9 		"/>
		<polygon id="normal_17_" class="st1" points="1578.8,371.5 1578.8,400.1 1601.4,400.1 1601.4,424.2 1578.8,424.2 1578.8,425.5 
			1026.4,425.5 1026.4,365.9 1578.8,365.9 		"/>
	</g>
	<g id="floor_5_1_">
		<polygon id="hover_15_" class="st0" points="1578.8,340 1601.4,340 1601.4,365.6 1578.8,365.6 1578.8,365.9 1026.4,365.9 
			1026.4,307.4 1578.8,307.4 		"/>
		<polygon id="normal_15_" class="st1" points="1578.8,340 1601.4,340 1601.4,365.6 1578.8,365.6 1578.8,365.9 1026.4,365.9 
			1026.4,307.4 1578.8,307.4 		"/>
	</g>
	<g id="floor_6_1_">
		<polygon id="hover_14_" class="st0" points="1578.8,255.6 1578.8,279.9 1601.4,279.9 1601.4,306 1578.8,306 1578.8,307.4 
			1026.4,307.4 1026.4,246.7 1578.8,246.7 		"/>
		<polygon id="normal_16_" class="st1" points="1578.8,255.6 1578.8,279.9 1601.4,279.9 1601.4,306 1578.8,306 1578.8,307.4 
			1026.4,307.4 1026.4,246.7 1578.8,246.7 		"/>
	</g>
	<g id="floor_7_1_">
		<polygon id="hover_13_" class="st0" points="1601.4,186.4 1578.8,186.4 1578.8,219.8 1601.4,219.8 1601.4,246.2 1578.8,246.2 
			1578.8,246.7 1026.4,246.7 1026.4,186 1601.4,186 		"/>
		<polygon id="normal_14_" class="st1" points="1601.4,186.4 1578.8,186.4 1578.8,219.8 1601.4,219.8 1601.4,246.2 1578.8,246.2 
			1578.8,246.7 1026.4,246.7 1026.4,186 1601.4,186 		"/>
	</g>
	<g id="floor_8_1_">
		<polygon id="hover_12_" class="st0" points="1604.6,126.8 1578.8,126.8 1578.8,160.3 1601.4,160.3 1601.4,186 1026.4,186 
			1026.4,126.5 1604.6,126.5 		"/>
		<polygon id="normal_13_" class="st1" points="1604.6,126.8 1578.8,126.8 1578.8,160.3 1601.4,160.3 1601.4,186 1026.4,186 
			1026.4,126.5 1604.6,126.5 		"/>
	</g>
	<g id="floor_9_1_">
		<polygon id="hover_11_" class="st0" points="1578.9,100.7 1604.6,100.7 1604.6,126.5 1026.4,126.5 1026.4,111.8 1010.5,111.3 
			1017.2,97.1 1008.3,96.5 1021.9,67.1 1627.6,67.1 1578.9,95.4 		"/>
		<polygon id="normal_12_" class="st1" points="1578.9,100.7 1604.6,100.7 1604.6,126.5 1026.4,126.5 1026.4,111.8 1010.5,111.3 
			1017.2,97.1 1008.3,96.5 1021.9,67.1 1627.6,67.1 1578.9,95.4 		"/>
	</g>
	<g id="floor_10_1_">
		<polygon id="hover_10_" class="st0" points="1033.8,40.8 1036.6,40.8 1051.4,19.3 1128.1,19.3 1129.7,22.5 1142.1,22.5 
			1142.1,19.3 1220.7,19.3 1222.8,22.9 1231,22.9 1231,19.3 1308.7,19.3 1310.7,22.9 1322.3,22.9 1322.3,19.3 1399.7,19.3 
			1402.4,22.8 1412.8,22.8 1412.8,19.3 1490.9,19.3 1493.4,21.9 1504.4,21.9 1504.4,19.3 1583.4,19.3 1596.3,37.1 1625.2,37.1 
			1625.2,40.6 1643.6,40.6 1635.3,51.8 1635.3,58.1 1642,58.1 1627.6,67.1 1021.9,67.1 		"/>
		<polygon id="normal_11_" class="st1" points="1033.8,40.8 1036.6,40.8 1051.4,19.3 1128.1,19.3 1129.7,22.5 1142.1,22.5 
			1142.1,19.3 1220.7,19.3 1222.8,22.9 1231,22.9 1231,19.3 1308.7,19.3 1310.7,22.9 1322.3,22.9 1322.3,19.3 1399.7,19.3 
			1402.4,22.8 1412.8,22.8 1412.8,19.3 1490.9,19.3 1493.4,21.9 1504.4,21.9 1504.4,19.3 1583.4,19.3 1596.3,37.1 1625.2,37.1 
			1625.2,40.6 1643.6,40.6 1635.3,51.8 1635.3,58.1 1642,58.1 1627.6,67.1 1021.9,67.1 		"/>
	</g>
</g>
</svg>
