<svg xmlns="http://www.w3.org/2000/svg" width="5.531" height="9.18" viewBox="0 0 5.531 9.18">
  <defs>
    <style>
      .cls-1 {
        fill: #282828;
        fill-rule: evenodd;
      }
    </style>
  </defs>
  <path id="arrow01_копия_2" data-name="arrow01 копия 2" class="cls-1" d="M928.125,1123.91a0.587,0.587,0,0,1-.109.14,0.468,0.468,0,0,1-.135.1l-3.947,3.76a0.733,0.733,0,0,1-1,0,0.65,0.65,0,0,1,0-.95l3.588-3.41-3.543-3.5a0.682,0.682,0,0,1,0-.97,0.712,0.712,0,0,1,.979,0l3.844,3.8a0.673,0.673,0,0,1,.256.15A0.652,0.652,0,0,1,928.125,1123.91Z" transform="translate(-922.75 -1118.91)"/>
</svg>
