<svg xmlns="http://www.w3.org/2000/svg" width="18.937" height="12" viewBox="0 0 18.937 12">
  <defs>
    <style>
      .cls-1 {
        fill: #828282;
        fill-rule: evenodd;
      }
    </style>
  </defs>
  <path id="eye" class="cls-1" d="M691.77,6928.26c-0.169-.23-4.2-5.65-9.347-5.65s-9.179,5.42-9.348,5.65a0.615,0.615,0,0,0,0,.73c0.169,0.23,4.2,5.65,9.348,5.65s9.178-5.42,9.347-5.65A0.612,0.612,0,0,0,691.77,6928.26Zm-9.347,5.13c-3.792,0-7.076-3.59-8.049-4.76,0.971-1.18,4.249-4.77,8.049-4.77s7.075,3.59,8.048,4.77C689.5,6929.8,686.223,6933.39,682.423,6933.39Zm0-8.49a3.73,3.73,0,1,0,3.745,3.73A3.74,3.74,0,0,0,682.423,6924.9Zm0,6.21a2.485,2.485,0,1,1,2.5-2.48A2.49,2.49,0,0,1,682.423,6931.11Z" transform="translate(-672.969 -6922.63)"/>
</svg>
