<?xml version="1.0" encoding="utf-8"?>
<!-- Generator: Adobe Illustrator 23.0.5, SVG Export Plug-In . SVG Version: 6.00 Build 0)  -->
<svg version="1.1" id="Слой_1" xmlns="http://www.w3.org/2000/svg" xmlns:xlink="http://www.w3.org/1999/xlink" x="0px" y="0px"
	 viewBox="0 0 46 48" style="enable-background:new 0 0 46 48;" xml:space="preserve">
<style type="text/css">
	.st0{fill:#0095DA;}
	.st1{fill:#ED1C24;}
</style>
<g id="outline">
	<path class="st0" d="M20.2,40h3.2c0.4,0,0.8-0.4,0.8-0.8V36c0-0.4-0.4-0.8-0.8-0.8h-3.2c-0.4,0-0.8,0.4-0.8,0.8v3.2
		C19.4,39.6,19.7,40,20.2,40z M21,36.8h1.6v1.6H21V36.8z"/>
	<path class="st0" d="M36.3,40h3.2c0.4,0,0.8-0.4,0.8-0.8V36c0-0.4-0.4-0.8-0.8-0.8h-3.2c-0.4,0-0.8,0.4-0.8,0.8v3.2
		C35.5,39.6,35.9,40,36.3,40z M37.1,36.8h1.6v1.6h-1.6V36.8z"/>
	<path class="st0" d="M1.7,10c0.1,0.2,0.4,0.4,0.7,0.4h4V12c0,0.4,0.4,0.8,0.8,0.8h3.2c0.4,0,0.8-0.4,0.8-0.8v-1.6h1.6v3.2
		c0,0.4,0.4,0.8,0.8,0.8h3.2c0.4,0,0.8-0.4,0.8-0.8v-3.2h4.8c0.9,1.8,2.5,3.1,4.4,3.7C26.3,16,25.9,18,25.8,20c0,2.8,1,4.2,2.1,4.9
		l-13.7,7.2c-0.4,0.2-0.5,0.7-0.3,1.1c0.1,0.3,0.4,0.4,0.7,0.4h1.6v13.6c0,0.4,0.4,0.8,0.8,0.8h25.8c0.4,0,0.8-0.4,0.8-0.8V33.6h1.6
		c0.4,0,0.8-0.4,0.8-0.8c0-0.3-0.2-0.6-0.4-0.7l-13.7-7.2c1-0.7,2.1-2.1,2.1-4.9c-0.1-2.2-0.5-4.4-1.4-6.5c3.5-1.9,4.8-6.3,2.9-9.8
		c-1.9-3.5-6.3-4.8-9.9-2.9c-1.3,0.7-2.4,1.8-3,3.1H2.4C2.2,4,1.9,4.1,1.7,4.4L0.1,6.8C0,7,0,7.4,0.1,7.6L1.7,10z M32.3,46.4h-4.8
		v-8h4.8V46.4z M42,43.2h-6.5v1.6H42v1.6h-8.1v-8.8c0-0.4-0.4-0.8-0.8-0.8h-6.5c-0.4,0-0.8,0.4-0.8,0.8v8.8h-8.1v-1.6H21v-1.6h-3.2
		v-9.6H42V43.2z M41.9,32H17.8l12.1-6.3L41.9,32z M29.9,24c-0.3,0-2.4-0.2-2.4-4c0.1-1.9,0.5-3.8,1.2-5.6c0.2,0,0.3,0,0.5,0
		c0.7,0,1.3-0.1,2-0.3c0.7,1.9,1.2,3.9,1.2,5.9C32.3,23.8,30.1,24,29.9,24z M29.9,8.8c-0.9,0-1.6-0.7-1.6-1.6s0.7-1.6,1.6-1.6
		s1.6,0.7,1.6,1.6S30.8,8.8,29.9,8.8z M2.9,5.6h4.4v1.6h1.6V5.6h1.6v1.6h1.6V5.6h1.6v1.6h1.6V5.6h4.8v1.6h1.6V5.6h1.3
		c0.3,0,0.6-0.2,0.7-0.5C25,2.2,28.3,0.8,31.2,2s4.3,4.4,3.1,7.3c-0.5,1.1-1.3,2.1-2.4,2.7c-0.3-0.7-0.6-1.4-0.9-1.8
		c1.7-0.7,2.5-2.5,1.8-4.2c-0.7-1.6-2.5-2.4-4.2-1.8c-1.7,0.7-2.5,2.5-1.8,4.2c0.4,1,1.4,1.8,2.5,2c0.2,0.4,0.6,1.2,1.1,2.3
		c-2.7,0.7-5.6-0.7-6.6-3.3c-0.1-0.3-0.4-0.5-0.7-0.5h-6.1c-0.4,0-0.8,0.4-0.8,0.8v3.2h-1.6V9.6c0-0.4-0.4-0.8-0.8-0.8h-3.2
		c-0.4,0-0.8,0.4-0.8,0.8v1.6H8.1V9.6c0-0.4-0.4-0.8-0.8-0.8H2.9L1.8,7.2L2.9,5.6z"/>
	<rect x="22.6" y="43.2" class="st0" width="1.6" height="1.6"/>
</g>
<path class="st1" d="M20.2,40h3.2c0.4,0,0.8-0.4,0.8-0.8V36c0-0.4-0.4-0.8-0.8-0.8h-3.2c-0.4,0-0.8,0.4-0.8,0.8v3.2
	C19.4,39.6,19.7,40,20.2,40z M21,36.8h1.6v1.6H21V36.8z"/>
<path class="st1" d="M36.3,40h3.2c0.4,0,0.8-0.4,0.8-0.8V36c0-0.4-0.4-0.8-0.8-0.8h-3.2c-0.4,0-0.8,0.4-0.8,0.8v3.2
	C35.5,39.6,35.9,40,36.3,40z M37.1,36.8h1.6v1.6h-1.6V36.8z"/>
<path class="st1" d="M29.9,24l-2,0.9l-13.7,7.2c-0.4,0.2-0.5,0.7-0.3,1.1c0.1,0.3,0.4,0.4,0.7,0.4h1.6v13.6c0,0.4,0.4,0.8,0.8,0.8
	h25.8c0.4,0,0.8-0.4,0.8-0.8V33.6h1.6c0.4,0,0.8-0.4,0.8-0.8c0-0.3-0.2-0.6-0.4-0.7l-13.7-7.2L29.9,24z M32.3,46.4h-4.8v-8h4.8V46.4
	z M42,43.2h-6.5v1.6H42v1.6h-8.1v-8.8c0-0.4-0.4-0.8-0.8-0.8h-6.5c-0.4,0-0.8,0.4-0.8,0.8v8.8h-8.1v-1.6H21v-1.6h-3.2v-9.6H42V43.2z
	 M41.9,32H17.8l12.1-6.3L41.9,32z M29.9,24"/>
<rect x="22.6" y="43.2" class="st1" width="1.6" height="1.6"/>
</svg>
