<svg xmlns="http://www.w3.org/2000/svg" width="17.97" height="12" viewBox="0 0 17.97 12">
  <defs>
    <style>
      .cls-1 {
        fill: #0095da;
        fill-rule: evenodd;
      }
    </style>
  </defs>
  <path id="letter" class="cls-1" d="M1114.19,7629.61h-14.46a1.761,1.761,0,0,0-1.76,1.75v8.51a1.752,1.752,0,0,0,1.76,1.74h14.46a1.752,1.752,0,0,0,1.76-1.74v-8.51A1.761,1.761,0,0,0,1114.19,7629.61Zm-0.05,1.17c-0.3.29-6.56,6.49-6.77,6.7a0.585,0.585,0,0,1-.83,0c-0.2-.21-6.47-6.41-6.77-6.7h14.37Zm-15,9.04v-8.03l4.06,4.02Zm1.02,0.63,3.87-3.82,1.68,1.67a1.775,1.775,0,0,0,2.49,0l1.69-1.67,3.86,3.82h-13.59Zm14.61-.63-4.05-4.01,4.05-4.02v8.03h0Z" transform="translate(-1097.97 -7629.63)"/>
</svg>
