<svg xmlns="http://www.w3.org/2000/svg" width="12" height="10" viewBox="0 0 12 10">
  <defs>
    <style>
      .cls-1 {
        fill: #828282;
        fill-rule: evenodd;
      }
    </style>
  </defs>
  <path id="twitter" class="cls-1" d="M1525.61,26.166a4.521,4.521,0,0,1-1.42.4,2.551,2.551,0,0,0,1.09-1.393,5.223,5.223,0,0,1-1.57.622,2.4,2.4,0,0,0-1.8-.791,2.491,2.491,0,0,0-2.46,2.524,3.635,3.635,0,0,0,.05.583,6.96,6.96,0,0,1-5.07-2.636,2.487,2.487,0,0,0-.33,1.261,2.548,2.548,0,0,0,1.1,2.11,2.533,2.533,0,0,1-1.12-.32v0.037a2.5,2.5,0,0,0,1.99,2.468,2.465,2.465,0,0,1-.65.094,3.58,3.58,0,0,1-.46-0.038,2.5,2.5,0,0,0,2.3,1.751,4.865,4.865,0,0,1-3.07,1.075c-0.2,0-.38-0.02-0.59-0.038a6.875,6.875,0,0,0,3.79,1.13,7.058,7.058,0,0,0,7.02-7.194v-0.32a5.839,5.839,0,0,0,1.2-1.319h0Z" transform="translate(-1513.59 -25)"/>
</svg>
