<svg xmlns="http://www.w3.org/2000/svg" width="12" height="8.063" viewBox="0 0 12 8.063">
  <defs>
    <style>
      .cls-1 {
        fill: #828282;
        fill-rule: evenodd;
      }
    </style>
  </defs>
  <path id="youtube" class="cls-1" d="M1595.47,27.26a1.475,1.475,0,0,0-1.05-1.017,36.611,36.611,0,0,0-4.7-.247,37.887,37.887,0,0,0-4.69.238,1.486,1.486,0,0,0-1.05,1.026,15.521,15.521,0,0,0,0,5.549,1.458,1.458,0,0,0,1.05,1.017,36.551,36.551,0,0,0,4.69.247,38.031,38.031,0,0,0,4.7-.238,1.475,1.475,0,0,0,1.05-1.017,14.494,14.494,0,0,0,.25-2.775A13.754,13.754,0,0,0,1595.47,27.26Zm-6.94,4.5V28.3l3.12,1.73Z" transform="translate(-1583.72 -26)"/>
</svg>
