<?xml version="1.0" encoding="utf-8"?>
<!-- Generator: Adobe Illustrator 23.0.5, SVG Export Plug-In . SVG Version: 6.00 Build 0)  -->
<svg version="1.1" id="Слой_1" xmlns="http://www.w3.org/2000/svg" xmlns:xlink="http://www.w3.org/1999/xlink" x="0px" y="0px"
	 viewBox="0 0 512 512" style="enable-background:new 0 0 512 512;" xml:space="preserve">
<style type="text/css">
	.st0{fill:#0095DA;}
	.st1{fill:#ED1C24;}
</style>
<path class="st0" d="M504.5,416.8H504v-80.7c0-19.3-13.8-35.3-32.1-38.9v-81.4c0-21.8-17.8-39.6-39.6-39.6H79.7
	c-21.8,0-39.6,17.8-39.6,39.6v81.4C21.8,300.8,8,316.9,8,336.2v80.7H7.5c-4.2,0-7.5,3.4-7.5,7.5v80.2c0,4.2,3.4,7.5,7.5,7.5h40.1
	c3.1,0,5.8-1.9,7-4.7l14.1-35.4h374.6l14.1,35.4c1.1,2.9,3.9,4.7,7,4.7h40.1c4.2,0,7.5-3.4,7.5-7.5v-80.2
	C512,420.2,508.6,416.8,504.5,416.8z M79.7,191.4h352.7c13.5,0,24.5,11,24.5,24.5v80.7h-25v-54.8l7.2-14.4c1.4-2.9,0.9-6.4-1.4-8.7
	c-2.3-2.3-5.8-2.9-8.7-1.4l-13.4,6.7c-18-5-36.6-7.5-55.4-7.5c-18.7,0-37.3,2.5-55.4,7.5l-13.4-6.7c-2.9-1.4-6.4-0.9-8.7,1.4
	c-2.3,2.3-2.9,5.8-1.4,8.7l7.2,14.4v54.8h-65.1v-54.8l7.2-14.4c1.4-2.9,0.9-6.4-1.4-8.7c-2.3-2.3-5.8-2.9-8.7-1.4l-13.4,6.7
	c-18-5-36.6-7.5-55.4-7.5s-37.3,2.5-55.4,7.5L83,217.2c-2.9-1.4-6.4-0.9-8.7,1.4c-2.3,2.3-2.9,5.8-1.4,8.7l7.2,14.4v54.8h-25v-80.7
	C55.1,202.4,66.1,191.4,79.7,191.4z M416.8,304.6c-0.9-0.1-1.8,0-2.6,0.3c-17.6,5.1-35.7,7.7-54,7.7s-36.5-2.6-54-7.7
	c-0.7-0.2-1.4-0.3-2.1-0.3c-0.2,0-0.3,0-0.5,0c0-0.2,0-0.3,0-0.5V240c0-0.2,0-0.3,0-0.5c0.9,0.1,1.8,0,2.6-0.3
	c17.6-5.1,35.7-7.7,54-7.7s36.5,2.6,54,7.7c0.9,0.3,1.8,0.3,2.6,0.3c0,0.2,0,0.3,0,0.5v64.1C416.8,304.3,416.8,304.4,416.8,304.6z
	 M208.4,304.6c-0.9-0.1-1.8,0-2.6,0.3c-17.6,5.1-35.7,7.7-54,7.7s-36.5-2.6-54-7.7c-0.7-0.2-1.4-0.3-2.1-0.3c-0.2,0-0.3,0-0.5,0
	c0-0.2,0-0.3,0-0.5V240c0-0.2,0-0.3,0-0.5c0.9,0.1,1.8,0,2.6-0.3c17.6-5.1,35.7-7.7,54-7.7s36.5,2.6,54,7.7c0.9,0.3,1.7,0.3,2.6,0.3
	c0,0.2,0,0.3,0,0.5v64.1C208.4,304.3,208.4,304.4,208.4,304.6z M23,359.7h137.8c4.2,0,7.5-3.4,7.5-7.5c0-4.1-3.4-7.5-7.5-7.5H23
	v-8.5c0-13.5,11-24.5,24.5-24.5h27.9l-2.6,5.2c-1.4,2.9-0.9,6.4,1.4,8.7c2.3,2.3,5.8,2.9,8.7,1.4l13.4-6.7c18,5,36.6,7.5,55.4,7.5
	s37.3-2.5,55.4-7.5l13.4,6.7c2.9,1.4,6.4,0.9,8.7-1.4c2.3-2.3,2.9-5.8,1.4-8.7l-2.6-5.2h55.8l-2.6,5.2c-1.4,2.9-0.9,6.4,1.4,8.7
	c2.3,2.3,5.8,2.9,8.7,1.4l13.4-6.7c18,5,36.6,7.5,55.4,7.5c18.7,0,37.3-2.5,55.4-7.5l13.4,6.7c2.9,1.4,6.4,0.9,8.7-1.4
	c2.3-2.3,2.9-5.8,1.4-8.7l-2.6-5.2h27.9c13.5,0,24.5,11,24.5,24.5v8.5H196.2c-4.1,0-7.5,3.4-7.5,7.5c0,4.2,3.4,7.5,7.5,7.5H489v57.1
	H23V359.7z M497,497h-27.5l-14.1-35.4c-1.1-2.9-3.9-4.7-7-4.7H63.6c-3.1,0-5.8,1.9-7,4.7L42.5,497H15v-65.1H497V497z"/>
<path class="st1" d="M159.8,143.3h192.4c4.2,0,7.5-3.4,7.5-7.5V7.5c0-4.2-3.4-7.5-7.5-7.5H159.8c-4.2,0-7.5,3.4-7.5,7.5v128.3
	C152.3,139.9,155.7,143.3,159.8,143.3z M167.3,15h177.3v113.2H167.3V15z"/>
<path class="st1" d="M328.1,24H183.9c-4.1,0-7.5,3.4-7.5,7.5v80.2c0,4.1,3.4,7.5,7.5,7.5h144.3c4.2,0,7.5-3.4,7.5-7.5V31.6
	C335.7,27.4,332.3,24,328.1,24z M278.8,39.1c-2.1,4.7-3.5,9.3-4.3,13.1c-19.4-7.7-34.9-2.4-45.1,4.1c-8.2,5.2-14,11.9-17,16
	c-8,0.4-15.1,2.2-21,5.2V39.1H278.8z M320.6,104.2H191.4v-8.3c5.5-5.8,13.9-8.7,25-8.7c2.6,0,5.1-1.4,6.4-3.6
	c0.8-1.4,20.6-33.4,53.8-13.5c2.3,1.4,5.2,1.4,7.5,0.1c2.4-1.3,3.8-3.8,3.8-6.5c0-0.1,0.2-13,7.8-24.6h24.8V104.2z"/>
<path class="st1" d="M304.1,95.2c4.2,0,7.5-3.4,7.5-7.5v-8c0-4.2-3.4-7.5-7.5-7.5s-7.5,3.4-7.5,7.5v8
	C296.6,91.8,299.9,95.2,304.1,95.2z"/>
<path class="st1" d="M256,72.1c-4.1,0-7.5,3.4-7.5,7.5v8c0,4.1,3.4,7.5,7.5,7.5c4.2,0,7.5-3.4,7.5-7.5v-8
	C263.5,75.5,260.2,72.1,256,72.1z"/>
</svg>
