<?xml version="1.0" encoding="utf-8"?>
<!-- Generator: Adobe Illustrator 23.0.5, SVG Export Plug-In . SVG Version: 6.00 Build 0)  -->
<svg version="1.1" id="Capa_1" xmlns="http://www.w3.org/2000/svg" xmlns:xlink="http://www.w3.org/1999/xlink" x="0px" y="0px"
	 viewBox="0 0 480 480" style="enable-background:new 0 0 480 480;" xml:space="preserve">
<style type="text/css">
	.st0{fill:#0095DA;}
	.st1{fill:#ED1C24;}
</style>
<g>
	<g>
		<path class="st0" d="M96,384H40c-4.4,0-8,3.6-8,8v48c0,4.4,3.6,8,8,8h56c4.4,0,8-3.6,8-8v-48C104,387.6,100.4,384,96,384z M88,432
			H48v-32h40V432z"/>
	</g>
</g>
<g>
	<g>
		<path class="st0" d="M184,360h-56c-4.4,0-8,3.6-8,8v72c0,4.4,3.6,8,8,8h56c4.4,0,8-3.6,8-8v-72C192,363.6,188.4,360,184,360z
			 M176,432h-40v-56h40V432z"/>
	</g>
</g>
<g>
	<g>
		<path class="st0" d="M272,320h-56c-4.4,0-8,3.6-8,8v112c0,4.4,3.6,8,8,8h56c4.4,0,8-3.6,8-8V328C280,323.6,276.4,320,272,320z
			 M264,432h-40v-96h40V432z"/>
	</g>
</g>
<g>
	<g>
		<path class="st0" d="M360,264h-56c-4.4,0-8,3.6-8,8v168c0,4.4,3.6,8,8,8h56c4.4,0,8-3.6,8-8V272C368,267.6,364.4,264,360,264z
			 M352,432h-40V280h40V432z"/>
	</g>
</g>
<g>
	<g>
		<path class="st1" d="M448,152h-56c-4.4,0-8,3.6-8,8v280c0,4.4,3.6,8,8,8h56c4.4,0,8-3.6,8-8V160C456,155.6,452.4,152,448,152z
			 M440,432h-40V168h40V432z"/>
	</g>
</g>
</svg>
