<?xml version="1.0" encoding="utf-8"?>
<!-- Generator: Adobe Illustrator 23.0.5, SVG Export Plug-In . SVG Version: 6.00 Build 0)  -->
<svg version="1.1" id="Слой_1" xmlns="http://www.w3.org/2000/svg" xmlns:xlink="http://www.w3.org/1999/xlink" x="0px" y="0px"
	 viewBox="0 0 480 480" style="enable-background:new 0 0 480 480;" xml:space="preserve">
<style type="text/css">
	.st0{fill:#0095DA;}
	.st1{fill:#ED1C24;}
</style>
<g>
	<path class="st0" d="M298,443H116.8c-20,0-36.2-16.2-36.3-36.3v-7.3c24,0,43.5-19.5,43.5-43.5c0-4-3.2-7.3-7.3-7.3H80.5v-14.5
		c0-4-3.2-7.3-7.3-7.3h-33l31.4-83.6c8.3-22.3,23.3-41.5,42.9-55.1c2-1.4,4-2.7,6-3.9L113,172c-2.3,1.4-4.6,2.9-6.8,4.4
		c-22,15.2-38.8,36.8-48.2,61.9l-35,93.4c-0.8,2.2-0.5,4.7,0.8,6.7c1.4,2,3.6,3.1,6,3.1H66V356c0,4,3.2,7.3,7.2,7.3h35.3
		c-3.3,12.8-14.9,21.7-28.1,21.8h-7.3c-4,0-7.2,3.2-7.2,7.3v14.5c0,28,22.7,50.7,50.7,50.8h188.5c4,0,7.3-3.2,7.3-7.3v-116H298V443z
		 M298,443"/>
	<path class="st0" d="M414,22.5H174.8c-24,0-43.5,19.5-43.5,43.5v188.5c0,24,19.5,43.5,43.5,43.5h77.7l-12.2,49
		c-0.7,3,0.4,6.1,3,7.8c2.5,1.7,5.9,1.6,8.3-0.1l77.8-56.6H414c24,0,43.5-19.5,43.5-43.5V66C457.5,42,438,22.5,414,22.5L414,22.5z
		 M443,254.5c0,16-13,29-29,29h-87c-1.5,0-3,0.5-4.3,1.4l-63.6,46.3l9.7-38.6c0.5-2.2,0.1-4.5-1.3-6.2c-1.4-1.8-3.5-2.8-5.7-2.8h-87
		c-16,0-29-13-29-29V66c0-16,13-29,29-29H414c16,0,29,13,29,29V254.5z M443,254.5"/>
	<path class="st1" d="M298,66c-38.1,0-72.5,23-87.1,58.2c-14.6,35.2-6.5,75.8,20.4,102.7c27,27,67.5,35,102.7,20.4
		c35.2-14.6,58.2-49,58.2-87.1C392.2,108.2,350,66.1,298,66L298,66z M317.7,101.6c0.1,0.2,0.2,0.4,0.3,0.7H278
		c0.1-0.2,0.2-0.4,0.3-0.7c5.7-13.2,13-21.1,19.7-21.1C304.7,80.5,312,88.4,317.7,101.6L317.7,101.6z M325.8,85.5
		c10,3.7,19.1,9.4,26.9,16.8h-19.1C331.6,96.4,328.9,90.8,325.8,85.5L325.8,85.5z M268.1,153c0.4-12.2,2.1-24.4,5.1-36.3h49.6
		c3,11.9,4.7,24,5.1,36.3H268.1z M327.9,167.5c-0.4,12.2-2.1,24.4-5.1,36.3h-49.6c-3-11.9-4.7-24-5.1-36.3H327.9z M262.4,102.3
		h-19.1c7.8-7.3,16.9-13,26.9-16.8C267.1,90.8,264.4,96.4,262.4,102.3L262.4,102.3z M258.2,116.8c-2.7,11.9-4.2,24-4.6,36.3h-35
		c1.2-12.9,5.5-25.4,12.6-36.3H258.2z M253.6,167.5c0.3,12.2,1.9,24.3,4.6,36.3h-27c-7.1-10.9-11.4-23.3-12.6-36.3H253.6z
		 M262.4,218.3c2,5.8,4.7,11.5,7.8,16.8c-10-3.7-19.1-9.4-26.9-16.8H262.4z M278.3,218.9c-0.1-0.2-0.2-0.4-0.3-0.7H318
		c-0.1,0.2-0.2,0.4-0.3,0.7c-5.7,13.2-13,21.1-19.7,21.1C291.3,240,284,232.1,278.3,218.9L278.3,218.9z M333.6,218.3h19.1
		c-7.8,7.3-16.9,13-26.9,16.8C328.9,229.7,331.6,224.1,333.6,218.3L333.6,218.3z M337.8,203.8c2.7-11.9,4.2-24,4.6-36.3h35
		c-1.2,12.9-5.5,25.4-12.6,36.3H337.8z M342.4,153c-0.3-12.2-1.9-24.3-4.6-36.3h27c7.1,10.9,11.4,23.3,12.6,36.3H342.4z M342.4,153"
		/>
	<path class="st0" d="M161,84.6l14.5-29l13,6.5l-14.5,29L161,84.6z M161,84.6"/>
	<path class="st0" d="M190,84.6l14.5-29l13,6.5l-14.5,29L190,84.6z M190,84.6"/>
	<path class="st0" d="M371.1,258.6l14.5-29l13,6.5l-14.5,29L371.1,258.6z M371.1,258.6"/>
	<path class="st0" d="M400.1,258.6l14.5-29l13,6.5l-14.5,29L400.1,258.6z M400.1,258.6"/>
</g>
</svg>
