<?xml version="1.0" encoding="utf-8"?>
<!-- Generator: Adobe Illustrator 23.0.5, SVG Export Plug-In . SVG Version: 6.00 Build 0)  -->
<svg version="1.1" id="Слой_1" xmlns="http://www.w3.org/2000/svg" xmlns:xlink="http://www.w3.org/1999/xlink" x="0px" y="0px"
	 viewBox="0 0 480 480" style="enable-background:new 0 0 480 480;" xml:space="preserve">
<style type="text/css">
	.st0{fill:#0095DA;}
	.st1{fill:#ED1C24;}
</style>
<g>
	<rect x="163.7" y="379.9" class="st0" width="13.9" height="13.3"/>
	<rect x="163.7" y="406.5" class="st0" width="13.9" height="13.3"/>
	<path class="st0" d="M323.5,246.7c6.3,0,12.2-2.7,16.2-7.3l28.4-32.7h52.2c19.1,0,34.7-14.9,34.7-33.3v-66.6
		c0-18.4-15.6-33.3-34.7-33.3h-34.7c0-22-18.7-40-41.6-40c-23,0-41.6,17.9-41.6,40h-34.7c-19.1,0-34.7,14.9-34.7,33.3v36.8
		c-13.2-10.5-30.1-16.8-48.5-16.8h-6.9c-23,0-45,10.2-59.4,27.3c-22,5.1-37.7,24.1-37.7,46c0,23,10.3,44.6,28.1,59.7
		c2.3,20.7,15.7,38.3,34.3,47.2v14.4l-48.4,10.9C53.6,341.5,25,376.2,25,416.5v30h291.3v-30c0-13-3-25.5-8.4-36.7h26l28.4,32.7
		c4,4.6,9.9,7.3,16.2,7.3c11.6,0,21.1-9.1,21.1-20.3v-19.7h20.8c19.1,0,34.7-14.9,34.7-33.3v-53.3c0-18.4-15.6-33.3-34.7-33.3H281.6
		c-19.1,0-34.7,14.9-34.7,33.3v39c-0.1,0-0.1,0-0.2,0l-48.4-10.9v-14.4c18.6-8.9,32-26.5,34.3-47.2c16.1-13.7,26-32.6,27.7-53.1h42
		v19.7C302.4,237.6,311.9,246.7,323.5,246.7L323.5,246.7z M344,46.8c15.3,0,27.7,12,27.7,26.6s-12.4,26.6-27.7,26.6
		c-15.3,0-27.7-12-27.7-26.6S328.7,46.8,344,46.8L344,46.8z M147,334.1l15,19.2l-16.2,20.7l-14-36.4L147,334.1z M170.6,364.3
		l19.1,24.5l-17,44.4h-4.2l-17-44.4L170.6,364.3z M38.9,416.5c0-34.2,24.2-63.5,58.8-71.3l20.5-4.6l35.5,92.6H94.4v-40H80.5v40H38.9
		V416.5z M260.8,293.3c0-11,9.3-20,20.8-20h138.7c11.5,0,20.8,9,20.8,20v53.3c0,11-9.3,20-20.8,20h-34.7v33c0,3.8-3.2,6.9-7.2,6.9
		c-2.2,0-4.2-0.9-5.6-2.5l-32.5-37.5h-40.6c-9.6-13.1-23-23.6-39-29.9V293.3z M302.4,416.5v16.6h-41.6v-40h-13.9v40h-59.4l35.5-92.6
		l20.6,4.6C278.2,353.1,302.4,382.4,302.4,416.5L302.4,416.5z M209.4,337.5l-14,36.4l-16.2-20.7l15-19.2L209.4,337.5z M184.5,324.4
		l-13.9,17.8l-13.9-17.8v-12.7c4.5,1,9.1,1.5,13.9,1.5c4.8,0,9.4-0.6,13.9-1.5V324.4z M219.2,253.3c0,25.7-21.8,46.6-48.5,46.6
		s-48.5-20.9-48.5-46.6V222c0-4.8,4.1-8.7,9-8.7c1.8,0,3.5,0.5,5,1.5l18.5,11.9h43.7c11.5,0,20.8,9,20.8,20V253.3z M232.4,240.8
		c-2.9-15.6-17-27.4-34.1-27.4h-39.5l-15-9.6c-3.8-2.4-8.2-3.7-12.7-3.7c-12.6,0-22.9,9.9-22.9,22v17.9
		c-8.9-11.4-13.9-25.3-13.9-39.9c0-16.1,12-30.1,28.4-33.3l3.3-0.6l1.6-2c11.7-15,30.4-24,49.9-24h6.9c34.4,0,62.4,26.9,62.4,60
		C246.9,215,241.8,229.2,232.4,240.8L232.4,240.8z M260.5,193.4c-1.2-13.1-6.1-25.1-13.5-35.3v-51.3c0-11,9.3-20,20.8-20h37.1
		c2.7,7.2,7.4,13.5,13.5,18.1c-25.6,9.8-43.7,33.8-43.7,61.8V180h138.7v-13.3c0-28-18.1-52-43.7-61.8c6.1-4.6,10.9-10.9,13.5-18.1
		h37.1c11.5,0,20.8,9,20.8,20v66.6c0,11-9.3,20-20.8,20h-58.7l-32.5,37.5c-1.4,1.6-3.4,2.5-5.5,2.5c-4,0-7.2-3.1-7.2-6.9v-33H260.5z
		 M344,113.4c30.6,0,55.5,23.9,55.5,53.3h-111C288.5,137.3,313.4,113.4,344,113.4L344,113.4z M344,113.4"/>
	<rect x="274.7" y="286.6" class="st1" width="152.6" height="13.3"/>
	<rect x="274.7" y="313.3" class="st1" width="152.6" height="13.3"/>
	<rect x="302.4" y="339.9" class="st1" width="97.1" height="13.3"/>
	<rect x="413.4" y="339.9" class="st1" width="13.9" height="13.3"/>
</g>
</svg>
