<?xml version="1.0" encoding="utf-8"?>
<!-- Generator: Adobe Illustrator 23.0.5, SVG Export Plug-In . SVG Version: 6.00 Build 0)  -->
<svg version="1.1" id="Слой_1" xmlns="http://www.w3.org/2000/svg" xmlns:xlink="http://www.w3.org/1999/xlink" x="0px" y="0px"
	 viewBox="0 0 480 480" style="enable-background:new 0 0 480 480;" xml:space="preserve">
<style type="text/css">
	.st0{fill:#0095DA;}
	.st1{fill:#ED1C24;}
</style>
<path class="st0" d="M194.9,270.3c0-12.3-7.4-23.3-18.7-28c-11.3-4.7-24.4-2.1-33,6.6c-8.7,8.7-11.3,21.7-6.6,33
	c4.7,11.3,15.7,18.7,28,18.7C181.4,300.6,194.9,287.1,194.9,270.3L194.9,270.3z M149.4,270.3c0-6.1,3.7-11.7,9.4-14
	c5.7-2.3,12.2-1.1,16.5,3.3c4.3,4.3,5.6,10.9,3.3,16.5c-2.3,5.7-7.9,9.4-14,9.4C156.2,285.5,149.4,278.7,149.4,270.3L149.4,270.3z
	 M149.4,270.3 M445.1,12.6H232.8c-12.6,0-22.7,10.2-22.7,22.7v154l-40.3-38.3c-2.9-2.8-7.5-2.8-10.4,0L19.5,284
	c-8,7.6-9.7,19.7-3.9,29.2c5.8,9.4,17.3,13.6,27.7,9.9v136.8c0,4.2,3.4,7.6,7.6,7.6h227.4c4.2,0,7.6-3.4,7.6-7.6V331h37.7l-8.5,19.6
	c-1.2,2.7-0.7,5.8,1.2,8c1.9,2.2,4.9,3.1,7.7,2.4l13.4-3.6l3.6,13.4c0.8,3.1,3.5,5.3,6.7,5.6h0.6c3,0,5.7-1.7,6.9-4.5l18.6-41.3
	c2,0.6,4.1,0.6,6.1,0l18.6,41.3c1.2,2.7,3.9,4.5,6.9,4.5h0.6c3.2-0.3,5.9-2.5,6.7-5.6l3.6-13.4l13.4,3.6c2.8,0.8,5.8-0.2,7.7-2.4
	c1.9-2.2,2.4-5.3,1.2-8l-8.5-19.7h15c12.6,0,22.7-10.2,22.7-22.7V35.3C467.8,22.8,457.7,12.6,445.1,12.6L445.1,12.6z M29.9,306.8
	c-1.6-1.6-2.5-3.7-2.5-5.9c0-2.3,0.9-4.4,2.6-6l134.6-127.9l45.5,43.2v19L170,189.2c-3-2.8-7.7-2.8-10.7,0L45.5,302.9l-3.9,3.9
	C38.4,310,33.1,310,29.9,306.8L29.9,306.8z M88.8,452.3v-91h45.5v91H88.8z M270.7,452.3H149.4v-98.6c0-4.2-3.4-7.6-7.6-7.6H81.2
	c-4.2,0-7.6,3.4-7.6,7.6v98.6H58.5V311.4l106.1-106.1l45.5,45.5v57.5c0,12.6,10.2,22.7,22.7,22.7h37.9V452.3z M347.4,242.5
	c-0.2-0.7-0.5-1.5-0.8-2.4c0.8,0.2,1.7,0.5,2.4,0.8c5.1,2.4,10.8,2.9,16.2,1.4c4.7-2.7,8.3-7.1,10.2-12.2c0.4-0.8,0.9-1.8,1.4-2.7
	c0.5,1,1,1.9,1.4,2.7c1.9,5.1,5.5,9.4,10.2,12.2c5.4,1.5,11.1,1,16.2-1.4c0.7-0.2,1.5-0.5,2.4-0.8c-0.2,0.8-0.5,1.7-0.8,2.4
	c-2.4,5.1-2.9,10.8-1.4,16.2c2.7,4.7,7.1,8.3,12.2,10.2c0.8,0.4,1.8,0.9,2.7,1.4c-0.9,0.5-1.9,1-2.7,1.4c-5.1,1.9-9.4,5.5-12.2,10.2
	c-1.5,5.4-1,11.1,1.4,16.2c0.2,0.7,0.5,1.5,0.8,2.4c-0.8-0.2-1.7-0.5-2.4-0.8c-5.1-2.4-10.8-2.9-16.2-1.4
	c-4.7,2.7-8.3,7.1-10.2,12.2c-0.4,0.8-0.9,1.8-1.4,2.7c-0.5-1-1-1.9-1.4-2.7c-1.9-5.1-5.5-9.5-10.2-12.2c-1.6-0.7-3.4-1-5.1-1
	c-3.8,0.2-7.5,1-11.1,2.4c-0.7,0.2-1.5,0.5-2.4,0.8c0.2-0.8,0.5-1.7,0.8-2.4c2.4-5.1,2.9-10.8,1.4-16.2c-2.7-4.7-7.1-8.3-12.2-10.2
	c-0.8-0.4-1.8-0.9-2.7-1.4c0.9-0.5,1.9-1,2.7-1.4c5.1-1.9,9.4-5.5,12.2-10.2C350.3,253.3,349.8,247.6,347.4,242.5L347.4,242.5z
	 M350.1,346.3l0-0.2c-0.5-1.9-1.8-3.6-3.5-4.6c-1.7-1-3.8-1.3-5.8-0.8l-5.5,1.5l11.4-26.1c2.4-0.5,4.8-1.1,7.1-1.9l5.5-1.7
	c1,1.6,2,3.3,2.8,5l0.6,1.2L350.1,346.3z M412.9,340.8c-4-1.1-8.2,1.3-9.3,5.3l0,0.2l-12.4-27.6l0.6-1.2c0.8-1.7,1.7-3.3,2.7-4.8
	c1.9,0.4,3.8,0.9,5.6,1.6c2.3,0.8,4.7,1.4,7.1,1.9l11.4,26.1L412.9,340.8z M452.7,308.2c0,4.2-3.4,7.6-7.6,7.6h-21.6l-2.1-4.8
	c2.2-5.7,2-12-0.7-17.5c-0.6-1.7-1.4-4.5-1.7-5.5c1.6-1,3.3-2,5-2.8c6-3.1,13.5-6.9,13.5-14.9c0-8-7.5-11.8-13.5-14.9
	c-1.7-0.8-3.3-1.7-4.8-2.7c0.4-1.9,0.9-3.8,1.6-5.6c2-6.3,4.5-14.2-1-19.7c-5.5-5.5-13.4-3-19.7-1l-5.5,1.7c-1-1.6-2-3.3-2.8-5
	c-3.1-6-6.9-13.5-14.9-13.5c-8,0-11.8,7.5-14.9,13.5c-0.8,1.7-1.7,3.3-2.7,4.8c-1.9-0.4-3.8-0.9-5.6-1.6c-6.3-2-14.2-4.5-19.7,1
	c-5.5,5.5-3,13.4-1,19.7c0.6,1.7,1.4,4.5,1.7,5.5c-1.6,1-3.3,2-5,2.8c-6,3.1-13.5,6.9-13.5,14.9c0,8,7.5,11.8,13.5,14.9
	c1.7,0.8,3.3,1.7,4.8,2.7c-0.4,1.9-0.9,3.8-1.6,5.6c-2.7,5.5-3,11.9-0.7,17.5l-2.1,4.8h-97.4c-4.2,0-7.6-3.4-7.6-7.6V35.3
	c0-4.2,3.4-7.6,7.6-7.6h212.3c4.2,0,7.6,3.4,7.6,7.6V308.2z M452.7,308.2 M164.6,368.9v53.1c0,4.2,3.4,7.6,7.6,7.6H248
	c4.2,0,7.6-3.4,7.6-7.6v-53.1c0-4.2-3.4-7.6-7.6-7.6h-75.8C168,361.3,164.6,364.7,164.6,368.9L164.6,368.9z M179.8,376.5h60.6v37.9
	h-60.6V376.5z M179.8,376.5 M376.9,300.6c12.3,0,23.3-7.4,28-18.7c4.7-11.3,2.1-24.4-6.6-33c-8.7-8.7-21.7-11.3-33-6.6
	c-11.3,4.7-18.7,15.7-18.7,28C346.5,287.1,360.1,300.6,376.9,300.6L376.9,300.6z M376.9,255.2c6.1,0,11.7,3.7,14,9.4
	c2.3,5.7,1.1,12.2-3.3,16.5c-4.3,4.3-10.9,5.6-16.5,3.3c-5.7-2.3-9.4-7.9-9.4-14C361.7,261.9,368.5,255.2,376.9,255.2L376.9,255.2z
	 M376.9,255.2 M301.1,58.1h75.8c4.2,0,7.6-3.4,7.6-7.6c0-4.2-3.4-7.6-7.6-7.6h-75.8c-4.2,0-7.6,3.4-7.6,7.6
	C293.5,54.7,296.9,58.1,301.1,58.1L301.1,58.1z M301.1,58.1 M414.8,73.2H263.2c-4.2,0-7.6,3.4-7.6,7.6c0,4.2,3.4,7.6,7.6,7.6h151.6
	c4.2,0,7.6-3.4,7.6-7.6C422.4,76.6,419,73.2,414.8,73.2L414.8,73.2z M414.8,73.2 M414.8,103.5H301.1c-4.2,0-7.6,3.4-7.6,7.6
	c0,4.2,3.4,7.6,7.6,7.6h113.7c4.2,0,7.6-3.4,7.6-7.6C422.4,106.9,419,103.5,414.8,103.5L414.8,103.5z M414.8,103.5 M414.8,133.9
	H301.1c-4.2,0-7.6,3.4-7.6,7.6c0,4.2,3.4,7.6,7.6,7.6h113.7c4.2,0,7.6-3.4,7.6-7.6C422.4,137.3,419,133.9,414.8,133.9L414.8,133.9z
	 M414.8,133.9 M261.9,206.3l10-15l16.2,16.2c1.6,1.6,3.8,2.4,6.1,2.2c2.3-0.2,4.3-1.5,5.6-3.3l12.9-19.4h11.1c4.2,0,7.6-3.4,7.6-7.6
	s-3.4-7.6-7.6-7.6h-15.2c-2.5,0-4.9,1.3-6.3,3.4l-10,15L276.1,174c-1.6-1.6-3.8-2.4-6.1-2.2c-2.3,0.2-4.3,1.4-5.6,3.3l-15.2,22.7
	c-2.3,3.5-1.4,8.2,2.1,10.5C254.8,210.7,259.6,209.8,261.9,206.3L261.9,206.3z M261.9,206.3 M240.4,217.3c0,4.2,3.4,7.6,7.6,7.6
	h75.8c4.2,0,7.6-3.4,7.6-7.6c0-4.2-3.4-7.6-7.6-7.6H248C243.8,209.7,240.4,213.1,240.4,217.3L240.4,217.3z M240.4,217.3
	 M414.8,164.2h-53.1c-4.2,0-7.6,3.4-7.6,7.6c0,4.2,3.4,7.6,7.6,7.6h53.1c4.2,0,7.6-3.4,7.6-7.6C422.4,167.6,419,164.2,414.8,164.2
	L414.8,164.2z M414.8,164.2 M263.2,118.7h7.6c4.2,0,7.6-3.4,7.6-7.6c0-4.2-3.4-7.6-7.6-7.6h-7.6c-4.2,0-7.6,3.4-7.6,7.6
	C255.6,115.3,259,118.7,263.2,118.7L263.2,118.7z M263.2,118.7 M263.2,149h7.6c4.2,0,7.6-3.4,7.6-7.6c0-4.2-3.4-7.6-7.6-7.6h-7.6
	c-4.2,0-7.6,3.4-7.6,7.6C255.6,145.6,259,149,263.2,149L263.2,149z M263.2,149"/>
<path class="st1" d="M315.1,350.6c-1.2,2.7-0.7,5.8,1.2,8c1.9,2.2,4.9,3.1,7.7,2.4l13.4-3.6l3.6,13.4c0.8,3.1,3.5,5.3,6.7,5.6h0.6
	c3,0,5.7-1.7,6.9-4.5l18.6-41.3c2,0.6,4.1,0.6,6.1,0l18.6,41.3c1.2,2.7,3.9,4.5,6.9,4.5h0.6c3.2-0.3,5.9-2.5,6.7-5.6l3.6-13.4
	l13.4,3.6c2.8,0.8,5.8-0.2,7.7-2.4c1.9-2.2,2.4-5.3,1.2-8l-8.5-19.7l-6.6-15.2l-2.1-4.8c2.2-5.7,2-12-0.7-17.5
	c-0.6-1.7-1.4-4.5-1.7-5.5c1.6-1,3.3-2,5-2.8c6-3.1,13.5-6.9,13.5-14.9s-7.5-11.8-13.5-14.9c-1.7-0.8-3.3-1.7-4.8-2.7
	c0.4-1.9,0.9-3.8,1.6-5.6c2-6.3,4.5-14.2-1-19.7c-5.5-5.5-13.4-3-19.7-1l-5.5,1.7c-1-1.6-2-3.3-2.8-5c-3.1-6-6.9-13.5-14.9-13.5
	c-8,0-11.8,7.5-14.9,13.5c-0.8,1.7-1.7,3.3-2.7,4.8c-1.9-0.4-3.8-0.9-5.6-1.6c-6.3-2-14.2-4.5-19.7,1c-5.5,5.5-3,13.4-1,19.7
	c0.6,1.7,1.4,4.5,1.7,5.5c-1.6,1-3.3,2-5,2.8c-6,3.1-13.5,6.9-13.5,14.9s7.5,11.8,13.5,14.9c1.7,0.8,3.3,1.7,4.8,2.7
	c-0.4,1.9-0.9,3.8-1.6,5.6c-2.7,5.5-3,11.9-0.7,17.5l-2.1,4.8l-6.6,15.2l0,0 M350.1,346.3l0-0.2c-0.5-1.9-1.8-3.6-3.5-4.6
	c-1.7-1-3.8-1.3-5.8-0.8l-5.5,1.5l11.4-26.1c2.4-0.5,4.8-1.1,7.1-1.9l5.5-1.7c1,1.6,2,3.3,2.8,5l0.6,1.2L350.1,346.3z M378.3,310.5
	c-0.4,0.8-0.9,1.8-1.4,2.7c-0.5-1-1-1.9-1.4-2.7c-1.9-5.1-5.5-9.5-10.2-12.2c-1.6-0.7-3.4-1-5.1-1c-3.8,0.2-7.5,1-11.1,2.4
	c-0.7,0.2-1.5,0.5-2.4,0.8c0.2-0.8,0.5-1.7,0.8-2.4c2.4-5.1,2.9-10.8,1.4-16.2c-2.7-4.7-7.1-8.3-12.2-10.2c-0.8-0.4-1.8-0.9-2.7-1.4
	c0.9-0.5,1.9-1,2.7-1.4c5.1-1.9,9.4-5.5,12.2-10.2c1.5-5.4,1-11.1-1.4-16.2c-0.2-0.7-0.5-1.5-0.8-2.4c0.8,0.2,1.7,0.5,2.4,0.8
	c5.1,2.4,10.8,2.9,16.2,1.4c4.7-2.7,8.3-7.1,10.2-12.2c0.4-0.8,0.9-1.8,1.4-2.7c0.5,1,1,1.9,1.4,2.7c1.9,5.1,5.5,9.4,10.2,12.2
	c5.4,1.5,11.1,1,16.2-1.4c0.7-0.2,1.5-0.5,2.4-0.8c-0.2,0.8-0.5,1.7-0.8,2.4c-2.4,5.1-2.9,10.8-1.4,16.2c2.7,4.7,7.1,8.3,12.2,10.2
	c0.8,0.4,1.8,0.9,2.7,1.4c-0.9,0.5-1.9,1-2.7,1.4c-5.1,1.9-9.4,5.5-12.2,10.2c-1.5,5.4-1,11.1,1.4,16.2c0.2,0.7,0.5,1.5,0.8,2.4
	c-0.8-0.2-1.7-0.5-2.4-0.8c-5.1-2.4-10.8-2.9-16.2-1.4C383.8,301.1,380.2,305.4,378.3,310.5z M412.9,340.8c-4-1.1-8.2,1.3-9.3,5.3
	l0,0.2l-12.4-27.6l0.6-1.2c0.8-1.7,1.7-3.3,2.7-4.8c1.9,0.4,3.8,0.9,5.6,1.6c2.3,0.8,4.7,1.4,7.1,1.9l11.4,26.1L412.9,340.8z"/>
<path class="st1" d="M404.9,281.9c4.7-11.3,2.1-24.4-6.6-33c-8.7-8.7-21.7-11.3-33-6.6c-11.3,4.7-18.7,15.7-18.7,28
	c0,16.7,13.6,30.3,30.3,30.3C389.1,300.6,400.2,293.3,404.9,281.9z M387.6,281c-4.3,4.3-10.9,5.6-16.5,3.3c-5.7-2.3-9.4-7.9-9.4-14
	c0-8.4,6.8-15.2,15.2-15.2c6.1,0,11.7,3.7,14,9.4C393.2,270.2,391.9,276.7,387.6,281z"/>
</svg>
