<?xml version="1.0" encoding="utf-8"?>
<!-- Generator: Adobe Illustrator 23.0.5, SVG Export Plug-In . SVG Version: 6.00 Build 0)  -->
<svg version="1.1" id="Слой_1" xmlns="http://www.w3.org/2000/svg" xmlns:xlink="http://www.w3.org/1999/xlink" x="0px" y="0px"
	 viewBox="0 0 480 480" style="enable-background:new 0 0 480 480;" xml:space="preserve">
<style type="text/css">
	.st0{fill:#0095DA;}
	.st1{fill:#ED1C24;}
</style>
<g>
	<path class="st0" d="M175.7,339.7h-42.2c-3.9,0-7,3.2-7,7V389c0,3.9,3.2,7,7,7h42.2c3.9,0,7-3.1,7-7v-42.2
		C182.8,342.9,179.6,339.7,175.7,339.7L175.7,339.7z M168.7,382h-28.1v-28.1h28.1V382z M168.7,382"/>
	<path class="st0" d="M274.2,262.4h-70.4c-7.8,0-14.1,6.3-14.1,14.1v28.1c0,7.8,6.3,14.1,14.1,14.1h70.4c7.8,0,14.1-6.3,14.1-14.1
		v-28.1C288.3,268.7,282,262.4,274.2,262.4L274.2,262.4z M274.2,283.5h-28.1v-7h28.1V283.5z M232,276.4v7h-28.1v-7H232z
		 M203.9,297.5H232v7h-28.1V297.5z M246.1,304.6v-7h28.1v7H246.1z M246.1,304.6"/>
	<path class="st0" d="M414.3,403.6c-1.8-9.3-7.1-17.4-15-22.7c-7.8-5.3-17.4-7.1-26.6-5.3V251.2l12.6,12.6c8.6,8.6,22.5,8.6,31.1,0
		c8.6-8.6,8.6-22.5,0-31.1l-43.7-43.7v-88.6c7.8,0,14.1-6.3,14.1-14.1V72.4c0-7.8-6.3-14.1-14.1-14.1h-70.4
		c-7.8,0-14.1,6.3-14.1,14.1v14.1c0,7.8,6.3,14.1,14.1,14.1v18.2L254,70.3c-8.2-8.2-21.6-8.2-29.8,0l-11.3,11.3
		c-20.1-36.9-61.4-57.1-102.8-50.1c-41.5,6.9-73.9,39.4-80.9,80.9c-6.9,41.5,13.2,82.8,50.1,102.8l-17.6,17.6
		c-8.6,8.6-8.6,22.5,0,31.1c8.6,8.6,22.5,8.6,31.1,0l12.6-12.6v147.5c-7.7-8.9-20.1-12.1-31-8c-11,4.1-18.3,14.6-18.2,26.4
		c-15.5,0-28.1,12.6-28.1,28.1c0,3.9,3.2,7,7,7h408.1c3.9,0,7-3.1,7-7C450.1,424.5,434.9,406.8,414.3,403.6L414.3,403.6z
		 M351.6,389.3c0-0.1,0.1-0.2,0.1-0.3v-42.2c0-3.9-3.2-7-7-7h-42.2c-3.9,0-7,3.2-7,7V389c0,3.9,3.2,7,7,7h42.2
		c1.3,0,2.5-0.4,3.6-1.1c-2.3,4.7-3.6,9.9-3.6,15.2v0.7c-13.8,2.9-24.6,13.6-27.4,27.4h-28.9V332.7c0-3.9-3.2-7-7-7h-84.4
		c-3.9,0-7,3.1-7,7v105.5H147c-2.6-15.1-13.1-27.6-27.5-32.7V241.2h239.2v140.9C356,384.2,353.6,386.6,351.6,389.3L351.6,389.3z
		 M337.6,353.8V382h-28.1v-28.1H337.6z M302.4,72.4h70.4v14.1h-70.4V72.4z M316.5,100.5h42.2V175l-42.2-42.2V100.5z M234.1,80.2
		c2.7-2.7,7.1-2.7,9.9,0l162.5,162.5c3.1,3.1,3.1,8.1,0,11.2c-3.1,3.1-8.1,3.1-11.2,0L254,112.5c-8.2-8.2-21.6-8.2-29.8,0l-0.5,0.5
		c-1-6-2.5-12-4.6-17.7L234.1,80.2z M42.1,128.7c0-46.6,37.8-84.4,84.4-84.4s84.4,37.8,84.4,84.4s-37.8,84.4-84.4,84.4
		C79.9,213.1,42.1,175.3,42.1,128.7L42.1,128.7z M82.8,253.9c-3.1,3.1-8.1,3.1-11.2,0c-3.1-3.1-3.1-8.1,0-11.2l21.5-21.5
		c5.8,2.1,11.7,3.6,17.7,4.6l-3.4,3.4L82.8,253.9z M129.6,227c51.9-1.7,93.6-43.4,95.3-95.3l9.3-9.3c2.7-2.7,7.1-2.7,9.9,0
		l104.7,104.7H129.4L129.6,227z M44,438.2c3.7-6.4,11.7-8.8,18.3-5.5c2.7,1.3,6,0.8,8.1-1.3c2.1-2.1,2.7-5.4,1.3-8.1
		c-1-1.9-1.5-4-1.5-6.2c0-6.9,4.9-12.7,11.7-13.9c6.8-1.1,13.4,2.8,15.6,9.3c1,3,3.8,4.9,6.9,4.7c0.3,0,0.7,0,1-0.1
		c12.8,0,24,8.7,27.3,21.1H44z M203.9,438.2v-98.5h70.4v98.5H203.9z M331.7,438.2c2.9-8.3,10.7-13.9,19.5-14.1
		c0.2,0,0.9,0.1,1.2,0.1c2.2,0.1,4.4-0.9,5.8-2.6c1.4-1.7,1.9-4,1.3-6.2c-0.5-1.7-0.8-3.5-0.8-5.4c0-11.7,9.5-21.1,21.1-21.1
		s21.1,9.5,21.1,21.1c0,3.9,3.2,7,7,7c12.8,0,24,8.7,27.2,21.1H331.7z M331.7,438.2"/>
	<path class="st1" d="M133.5,192v-14.1c11.7,0,21.1-9.5,21.1-21.1v-14.1c0-11.7-9.5-21.1-21.1-21.1h-14.1c-3.9,0-7-3.1-7-7v-14.1
		c0-3.9,3.1-7,7-7h14.1c3.9,0,7,3.2,7,7v7h14.1v-7c0-11.7-9.5-21.1-21.1-21.1V65.3h-14.1v14.1c-11.7,0-21.1,9.5-21.1,21.1v14.1
		c0,11.7,9.5,21.1,21.1,21.1h14.1c3.9,0,7,3.2,7,7v14.1c0,3.9-3.2,7-7,7h-14.1c-3.9,0-7-3.1-7-7v-7H98.4v7
		c0,11.7,9.5,21.1,21.1,21.1V192H133.5z M133.5,192"/>
	<path class="st0" d="M225,360.9h-14.1v14.1h7V389h-7v14.1H225c3.9,0,7-3.1,7-7v-28.1C232,364,228.9,360.9,225,360.9L225,360.9z
		 M225,360.9"/>
</g>
</svg>
