<?xml version="1.0" encoding="utf-8"?>
<!-- Generator: Adobe Illustrator 23.0.5, SVG Export Plug-In . SVG Version: 6.00 Build 0)  -->
<svg version="1.1" id="Слой_1" xmlns="http://www.w3.org/2000/svg" xmlns:xlink="http://www.w3.org/1999/xlink" x="0px" y="0px"
	 viewBox="0 0 480 480" style="enable-background:new 0 0 480 480;" xml:space="preserve">
<style type="text/css">
	.st0{fill:#0095DA;}
	.st1{fill:#ED1C24;}
</style>
<g>
	<path class="st0" d="M415.5,251.7c-3.9,0-7,3.1-7,7v190.8H71.6V393c0-3.9-3.1-7-7-7c-3.9,0-7,3.1-7,7v63.5c0,3.9,3.1,7,7,7h350.8
		c3.9,0,7-3.1,7-7V258.7C422.5,254.8,419.3,251.7,415.5,251.7L415.5,251.7z M415.5,251.7"/>
	<path class="st0" d="M460.7,182.2L244.3,17.9c-2.5-1.9-6-1.9-8.5,0L150,83V60.4h7.9c3.9,0,7-3.1,7-7V23.5c0-3.9-3.1-7-7-7H53.4
		c-3.9,0-7,3.1-7,7v29.9c0,3.9,3.1,7,7,7h7.9v89.9l-42,31.9c-2.4,1.8-3.4,5-2.4,7.8c1,2.8,3.6,4.8,6.6,4.8h34.1v161c0,3.9,3.1,7,7,7
		c3.9,0,7-3.1,7-7v-168c0-3.9-3.1-7-7-7H44.4L240,32.3l195.7,148.4h-20.3c-3.9,0-7,3.1-7,7v33.6c0,3.9,3.1,7,7,7c3.9,0,7-3.1,7-7
		v-26.6h34.1c3,0,5.7-1.9,6.6-4.8C464.1,187.1,463.1,184,460.7,182.2L460.7,182.2z M60.4,46.4V30.5h90.5v15.9H60.4z M136,93.7
		l-60.7,46V60.4H136V93.7z M136,93.7"/>
	<path class="st0" d="M391.6,401.5l-52.3-52.3c-6.2-6.2-15.9-7.9-23.9-4.1l-34.6-34.6c15.3-19.1,24.5-43.3,24.5-69.6
		c0-25.2-8.2-48.9-23.7-68.7c-2.4-3-6.8-3.6-9.8-1.2c-3,2.4-3.6,6.8-1.2,9.8c13.5,17.3,20.7,38.1,20.7,60.1
		c0,53.8-43.7,97.5-97.5,97.5c-53.8,0-97.5-43.7-97.5-97.5c0-53.8,43.7-97.5,97.5-97.5c17.7,0,35,4.8,50.1,13.8
		c3.3,2,7.6,0.9,9.6-2.4c2-3.3,0.9-7.6-2.4-9.6c-17.2-10.3-37-15.8-57.3-15.8c-61.5,0-111.5,50-111.5,111.5s50,111.5,111.5,111.5
		c30.1,0,57.5-12,77.6-31.5l34.1,34.1c-3.7,7.8-2.4,17.4,4.1,23.9l52.3,52.3c8.1,8.1,21.6,8.1,29.7,0
		C399.8,423,399.8,409.7,391.6,401.5L391.6,401.5z M382.1,420.9c-2.6,3.1-7.4,3.2-10.3,0.4l-52.2-52.3c-2.5-2.5-2.7-6.8-0.4-9.5
		c2.6-3.1,7.4-3.2,10.3-0.4l52.2,52.3C384.2,413.9,384.4,418.2,382.1,420.9L382.1,420.9z M382.1,420.9"/>
	<path class="st1" d="M193.8,159.3c-45,0-81.6,36.6-81.6,81.6c0,45,36.6,81.6,81.6,81.6c45,0,81.6-36.6,81.6-81.6
		C275.5,195.9,238.9,159.3,193.8,159.3L193.8,159.3z M193.8,308.6c-37.3,0-67.6-30.3-67.6-67.6s30.3-67.6,67.6-67.6
		c37.3,0,67.7,30.3,67.7,67.6S231.1,308.6,193.8,308.6L193.8,308.6z M193.8,308.6"/>
	<path class="st1" d="M252.4,237.9c-9.2-19.3-34.3-33.9-58.6-33.9c-24.2,0-49.4,14.6-58.6,33.9c-0.9,1.9-0.9,4.1,0,6
		c9.2,19.3,34.3,33.9,58.6,33.9c24.2,0,49.4-14.6,58.6-33.9C253.3,242,253.3,239.8,252.4,237.9L252.4,237.9z M170.1,258.2
		c-8.7-4.1-16.2-10.2-20.5-17.3c4.4-7,11.8-13.1,20.5-17.3c-3.5,4.9-5.6,10.8-5.6,17.3C164.5,247.4,166.6,253.4,170.1,258.2
		L170.1,258.2z M193.8,256.3c-8.5,0-15.4-6.9-15.4-15.4c0-8.5,6.9-15.4,15.4-15.4c8.5,0,15.4,6.9,15.4,15.4
		C209.2,249.4,202.3,256.3,193.8,256.3L193.8,256.3z M217.6,258.2c3.5-4.9,5.6-10.8,5.6-17.3c0-6.5-2.1-12.4-5.6-17.3
		c8.7,4.1,16.2,10.2,20.5,17.3C233.8,248,226.3,254.1,217.6,258.2L217.6,258.2z M217.6,258.2"/>
</g>
</svg>
