<?xml version="1.0" encoding="utf-8"?>
<!-- Generator: Adobe Illustrator 23.0.5, SVG Export Plug-In . SVG Version: 6.00 Build 0)  -->
<svg version="1.1" id="Слой_1" xmlns="http://www.w3.org/2000/svg" xmlns:xlink="http://www.w3.org/1999/xlink" x="0px" y="0px"
	 viewBox="0 0 538 529.2" style="enable-background:new 0 0 538 529.2;" xml:space="preserve">
<style type="text/css">
	.st0{fill:#ED1C24;}
	.st1{fill:#0095DA;}
</style>
<path d="M390,358c0,22.1,17.9,40,40,40s40-17.9,40-40s-17.9-40-40-40C407.9,318,390,335.9,390,358z M454,358c0,13.3-10.7,24-24,24
	s-24-10.7-24-24s10.7-24,24-24S454,344.7,454,358z"/>
<path class="st0" d="M502,358c0,31-47.4,94.2-72,123.7c-24.6-29.5-72-92.7-72-123.7c0-39.8,32.2-72,72-72S502,318.2,502,358z
	 M457.8,472.5c24.3-31.4,60.2-83,60.2-114.5c-0.1-42.4-30.3-78.7-72-86.5l-16-1.5c-11,0-21.8,2.1-32,6.1l-16,8.2l-2.4,1.7l-17.4,16
	c-13,15.7-20.2,35.6-20.2,56c0,28.2,28.7,72.5,52.2,104l19.5,25c5.7,7,9.6,11.5,10.3,12.3c2.9,3.3,8,3.6,11.3,0.7
	c0.3-0.2,0.5-0.5,0.7-0.7c0.7-0.8,4.6-5.3,10.3-12.3 M383.4,478 M38,134v48"/>
<path class="st0" d="M390,357.5c0,22.1,17.9,40,40,40s40-17.9,40-40c0-22.1-17.9-40-40-40C407.9,317.5,390,335.4,390,357.5z
	 M454,357.5c0,13.3-10.7,24-24,24s-24-10.7-24-24s10.7-24,24-24S454,344.2,454,357.5z"/>
<g>
	<g>
		<path class="st1" d="M408,496.5 M32,142.2v-31.5l208-53.9l208,53.9v31.5L242,88.7c-1.3-0.3-2.7-0.3-4,0L32,142.2z M232,432.5h-40
			v-112h40V432.5z M288,432.5h-40v-112h40V432.5z M304,432.5v-120c0-4.4-3.6-8-8-8H184c-4.4,0-8,3.6-8,8v120H72V148.3l168-43.6
			l168,43.6l0.1,103.3l16,0.3l-0.1-99.5l30,7.8c0.7,0.2,1.3,0.2,2,0.2c4.4,0,8-3.6,8-8v-48c0-3.7-2.5-6.8-6-7.8l-216-56
			c-1.3-0.3-2.7-0.3-4,0l-216,56c-3.5,0.9-6,4.1-6,7.8v48c0,2.5,1.1,4.8,3.1,6.3c2,1.5,4.5,2,6.9,1.4l30-7.8v288c0,4.4,3.6,8,8,8
			h297.4l0.3-16 M328,176.5"/>
	</g>
</g>
<path class="st1" d="M208,368.5h16v16h-16V368.5z"/>
<path class="st1" d="M256,368.5h16v16h-16V368.5z"/>
<path class="st1" d="M200,256.5v-32c0-26.5-21.5-48-48-48s-48,21.5-48,48v32h-8v16h112v-16H200z M184,256.5h-64v-32
	c0-17.7,14.3-32,32-32s32,14.3,32,32V256.5z"/>
<path class="st1" d="M208,368h16v16h-16V368z"/>
<path class="st1" d="M256,368h16v16h-16V368z"/>
<path class="st1" d="M200,256v-32c0-26.5-21.5-48-48-48s-48,21.5-48,48v32h-8v16h112v-16H200z M184,256h-64v-32
	c0-17.7,14.3-32,32-32s32,14.3,32,32V256z"/>
<path class="st1" d="M376,255.7v-32c0-26.5-21.5-48-48-48s-48,21.5-48,48v32h-8v16h112v-16H376z M360,255.7h-64v-32
	c0-17.7,14.3-32,32-32s32,14.3,32,32V255.7z"/>
<path class="st1" d="M376,255.2v-32c0-26.5-21.5-48-48-48s-48,21.5-48,48v32h-8v16h112v-16H376z M360,255.2h-64v-32
	c0-17.7,14.3-32,32-32s32,14.3,32,32V255.2z"/>
</svg>
