<?xml version="1.0" encoding="utf-8"?>
<!-- Generator: Adobe Illustrator 23.0.5, SVG Export Plug-In . SVG Version: 6.00 Build 0)  -->
<svg version="1.1" id="Слой_1" xmlns="http://www.w3.org/2000/svg" xmlns:xlink="http://www.w3.org/1999/xlink" x="0px" y="0px"
	 viewBox="0 0 480 480" style="enable-background:new 0 0 480 480;" xml:space="preserve">
<style type="text/css">
	.st0{fill:#0095DA;}
	.st1{fill:#ED1C24;}
</style>
<g>
	<path class="st0" d="M424.6,151.9h-81.2V115c0-0.2-0.1-0.3-0.1-0.5c0-0.6-0.2-1.3-0.4-1.9c-0.1-0.2-0.1-0.5-0.2-0.7
		c-0.4-0.8-0.9-1.5-1.5-2.2l-88.6-88.6c-0.6-0.6-1.4-1.1-2.2-1.5c-0.2-0.1-0.4-0.2-0.7-0.2c-0.6-0.2-1.3-0.3-1.9-0.4
		c-0.1,0-0.3-0.1-0.4-0.1h-192C35,19,18.5,35.5,18.5,55.9v339.6c0,20.4,16.5,36.9,36.9,36.9h155.8c3.5,17.2,18.6,29.5,36.2,29.5
		h177.2c20.4,0,36.9-16.5,36.9-36.9V188.8C461.5,168.4,445,151.9,424.6,151.9L424.6,151.9z M318.2,107.6h-56c-4.1,0-7.4-3.3-7.4-7.4
		v-56L318.2,107.6z M33.3,395.5V55.9c0-12.2,9.9-22.2,22.1-22.2H240v66.4c0,12.2,9.9,22.2,22.2,22.2h66.5v29.5h-81.2
		c-20.4,0-36.9,16.5-36.9,36.9v228.9H55.4C43.2,417.7,33.3,407.8,33.3,395.5L33.3,395.5z M446.7,425.1c0,12.2-9.9,22.1-22.1,22.1
		H247.4c-12.2,0-22.1-9.9-22.1-22.1V188.8c0-12.2,9.9-22.1,22.1-22.1h177.2c12.2,0,22.1,9.9,22.1,22.1V425.1z M446.7,425.1"/>
	<path class="st0" d="M395,181.4H276.9c-20.4,0-36.9,16.5-36.9,36.9v29.5c0,20.4,16.5,36.9,36.9,36.9H395
		c20.4,0,36.9-16.5,36.9-36.9v-29.5C431.9,198,415.4,181.5,395,181.4L395,181.4z M417.2,247.9c0,12.2-9.9,22.2-22.2,22.2H276.9
		c-12.2,0-22.2-9.9-22.2-22.2v-29.5c0-12.2,9.9-22.2,22.2-22.2H395c12.2,0,22.2,9.9,22.2,22.2V247.9z M417.2,247.9"/>
	<path class="st0" d="M269.5,299.6c-16.3,0-29.5,13.2-29.5,29.5c0,16.3,13.2,29.5,29.5,29.5c16.3,0,29.5-13.2,29.5-29.5
		C299.1,312.8,285.8,299.6,269.5,299.6L269.5,299.6z M269.5,343.9c-8.2,0-14.8-6.6-14.8-14.8c0-8.2,6.6-14.8,14.8-14.8
		c8.2,0,14.8,6.6,14.8,14.8C284.3,337.3,277.7,343.9,269.5,343.9L269.5,343.9z M269.5,343.9"/>
	<path class="st0" d="M336,299.6c-16.3,0-29.5,13.2-29.5,29.5c0,16.3,13.2,29.5,29.5,29.5c16.3,0,29.5-13.2,29.5-29.5
		C365.5,312.8,352.3,299.6,336,299.6L336,299.6z M336,343.9c-8.2,0-14.8-6.6-14.8-14.8c0-8.2,6.6-14.8,14.8-14.8s14.8,6.6,14.8,14.8
		C350.8,337.3,344.1,343.9,336,343.9L336,343.9z M336,343.9"/>
	<path class="st0" d="M269.5,373.4c-16.3,0-29.5,13.2-29.5,29.5c0,16.3,13.2,29.5,29.5,29.5c16.3,0,29.5-13.2,29.5-29.5
		C299.1,386.6,285.8,373.4,269.5,373.4L269.5,373.4z M269.5,417.7c-8.2,0-14.8-6.6-14.8-14.8c0-8.2,6.6-14.8,14.8-14.8
		c8.2,0,14.8,6.6,14.8,14.8C284.3,411.1,277.7,417.7,269.5,417.7L269.5,417.7z M269.5,417.7"/>
	<path class="st0" d="M336,373.4c-16.3,0-29.5,13.2-29.5,29.5c0,16.3,13.2,29.5,29.5,29.5c16.3,0,29.5-13.2,29.5-29.5
		C365.5,386.6,352.3,373.4,336,373.4L336,373.4z M336,417.7c-8.2,0-14.8-6.6-14.8-14.8c0-8.2,6.6-14.8,14.8-14.8s14.8,6.6,14.8,14.8
		C350.8,411.1,344.1,417.7,336,417.7L336,417.7z M336,417.7"/>
	<path class="st0" d="M402.4,299.6c-16.3,0-29.5,13.2-29.5,29.5v73.8c0,16.3,13.2,29.5,29.5,29.5s29.5-13.2,29.5-29.5v-73.8
		C432,312.8,418.7,299.6,402.4,299.6L402.4,299.6z M417.2,402.9c0,8.2-6.6,14.8-14.8,14.8c-8.2,0-14.8-6.6-14.8-14.8v-73.8
		c0-8.2,6.6-14.8,14.8-14.8c8.2,0,14.8,6.6,14.8,14.8V402.9z M417.2,402.9"/>
	<path class="st1" d="M94.5,149.7c2.9,2.9,7.6,2.9,10.4,0l66.5-66.5c2.8-2.9,2.8-7.5-0.1-10.4c-2.8-2.8-7.5-2.9-10.4-0.1l-66.5,66.5
		C91.6,142.2,91.6,146.9,94.5,149.7L94.5,149.7z M94.5,149.7"/>
	<path class="st1" d="M136.6,137.1c0,12.2,9.9,22.2,22.2,22.2c12.2,0,22.1-9.9,22.1-22.2S171,115,158.8,115
		C146.6,115,136.6,124.9,136.6,137.1L136.6,137.1z M166.2,137.1c0,4.1-3.3,7.4-7.4,7.4c-4.1,0-7.4-3.3-7.4-7.4
		c0-4.1,3.3-7.4,7.4-7.4C162.9,129.8,166.2,133.1,166.2,137.1L166.2,137.1z M166.2,137.1"/>
	<path class="st1" d="M107.1,107.6c12.2,0,22.2-9.9,22.2-22.2s-9.9-22.1-22.2-22.1c-12.2,0-22.1,9.9-22.1,22.1
		S94.9,107.6,107.1,107.6L107.1,107.6z M107.1,78.1c4.1,0,7.4,3.3,7.4,7.4c0,4.1-3.3,7.4-7.4,7.4c-4.1,0-7.4-3.3-7.4-7.4
		C99.7,81.4,103,78.1,107.1,78.1L107.1,78.1z M107.1,78.1"/>
	<path class="st1" d="M70.2,218.4h88.6c4.1,0,7.4-3.3,7.4-7.4c0-4.1-3.3-7.4-7.4-7.4H70.2c-4.1,0-7.4,3.3-7.4,7.4
		C62.8,215,66.1,218.4,70.2,218.4L70.2,218.4z M70.2,218.4"/>
	<path class="st1" d="M173.6,233.1H70.2c-4.1,0-7.4,3.3-7.4,7.4c0,4.1,3.3,7.4,7.4,7.4h103.4c4.1,0,7.4-3.3,7.4-7.4
		C180.9,236.4,177.6,233.1,173.6,233.1L173.6,233.1z M173.6,233.1"/>
	<path class="st1" d="M99.7,262.6H70.2c-4.1,0-7.4,3.3-7.4,7.4s3.3,7.4,7.4,7.4h29.5c4.1,0,7.4-3.3,7.4-7.4S103.8,262.6,99.7,262.6
		L99.7,262.6z M99.7,262.6"/>
	<path class="st1" d="M173.6,262.6h-44.3c-4.1,0-7.4,3.3-7.4,7.4s3.3,7.4,7.4,7.4h44.3c4.1,0,7.4-3.3,7.4-7.4
		S177.6,262.6,173.6,262.6L173.6,262.6z M173.6,262.6"/>
</g>
</svg>
