<?xml version="1.0" encoding="utf-8"?>
<!-- Generator: Adobe Illustrator 23.0.5, SVG Export Plug-In . SVG Version: 6.00 Build 0)  -->
<svg version="1.1" id="Слой_1" xmlns="http://www.w3.org/2000/svg" xmlns:xlink="http://www.w3.org/1999/xlink" x="0px" y="0px"
	 viewBox="0 0 480 480" style="enable-background:new 0 0 480 480;" xml:space="preserve">
<style type="text/css">
	.st0{fill:#0095DA;}
	.st1{fill:#ED1C24;}
</style>
<path class="st0" d="M240,16.4l-93,64.4V60.9H89.8v59.5l-42.9,29.7v60.3l21.5-14.9v208.6h42.9v57.2h257.5v-57.2h42.9V195.5
	l21.5,14.9v-60.3L240,16.4z M104.1,75.2h28.6v15.5l-28.6,19.8V75.2z M354.4,447.1H125.6V246.8h71.5v-0.3c4.4,3.3,9.1,6.3,14.3,8.6v6
	h-71.5v143h200.3v-143h-71.5v-6c5.2-2.3,9.9-5.2,14.3-8.6v0.3h71.5V447.1z M222.7,289.7L208.4,304l14.3,14.3l-11.3,11.3v20.2
	l28.6,28.6l28.6-28.6v-74.5h57.2v114.4H154.2V275.4h57.2v3L222.7,289.7z M259.1,243.5l-4.8,1.7V344L240,358.3L225.7,344v-8.4
	l17.3-17.3L228.7,304l14.3-14.3l-17.3-17.3v-27.3l-4.8-1.7c-22.8-8.1-38.2-29.7-38.2-53.9c0-31.6,25.7-57.2,57.2-57.2
	c31.5,0,57.2,25.7,57.2,57.2C297.2,213.8,281.9,235.4,259.1,243.5L259.1,243.5z M397.4,389.9h-28.6V232.5h-71.8
	c9.2-12.1,14.6-27,14.6-42.9c0-39.4-32.1-71.5-71.5-71.5c-39.4,0-71.5,32.1-71.5,71.5c0,15.9,5.4,30.8,14.6,42.9h-71.8v157.4H82.6
	V185.6L240,76.7l157.4,108.9V389.9z M418.8,183.1L240,59.3L61.2,183.1v-25.5L240,33.8l178.8,123.8V183.1z M418.8,183.1 M240,146.7
	c-15.8,0-28.6,12.8-28.6,28.6c0,15.8,12.8,28.6,28.6,28.6c15.8,0,28.6-12.8,28.6-28.6C268.6,159.5,255.8,146.7,240,146.7L240,146.7z
	 M240,189.6c-7.9,0-14.3-6.4-14.3-14.3c0-7.9,6.4-14.3,14.3-14.3c7.9,0,14.3,6.4,14.3,14.3C254.3,183.2,247.9,189.6,240,189.6
	L240,189.6z M240,189.6 M139.9,418.5h171.7v14.3H139.9V418.5z M325.8,418.5h14.3v14.3h-14.3V418.5z"/>
<path class="st1" d="M240,203.9c15.8,0,28.6-12.8,28.6-28.6c0-15.8-12.8-28.6-28.6-28.6c-15.8,0-28.6,12.8-28.6,28.6
	C211.4,191.1,224.2,203.9,240,203.9z M240,161c7.9,0,14.3,6.4,14.3,14.3c0,7.9-6.4,14.3-14.3,14.3c-7.9,0-14.3-6.4-14.3-14.3
	C225.7,167.4,232.1,161,240,161z M296.9,232.5c9.2-12.1,14.6-27,14.6-42.9c0-39.4-32.1-71.5-71.5-71.5c-39.4,0-71.5,32.1-71.5,71.5
	c0,15.9,5.4,30.8,14.6,42.9l14,14c4.4,3.3,9.1,6.3,14.3,8.6v23.3l11.3,11.3L208.4,304l14.3,14.3l-11.3,11.3v20.2l28.6,28.6
	l28.6-28.6v-74.5v-20.3c5.2-2.3,9.9-5.2,14.3-8.6v0.3L296.9,232.5z M259.1,243.5l-4.8,1.7V344L240,358.3L225.7,344v-8.4l17.3-17.3
	L228.7,304l14.3-14.3l-17.3-17.3v-27.3l-4.8-1.7c-22.8-8.1-38.2-29.7-38.2-53.9c0-31.6,25.7-57.2,57.2-57.2
	c31.5,0,57.2,25.7,57.2,57.2C297.2,213.8,281.9,235.4,259.1,243.5z"/>
</svg>
