<?xml version="1.0" encoding="utf-8"?>
<!-- Generator: Adobe Illustrator 23.0.5, SVG Export Plug-In . SVG Version: 6.00 Build 0)  -->
<svg version="1.1" id="Слой_1" xmlns="http://www.w3.org/2000/svg" xmlns:xlink="http://www.w3.org/1999/xlink" x="0px" y="0px"
	 viewBox="0 0 480 480" style="enable-background:new 0 0 480 480;" xml:space="preserve">
<style type="text/css">
	.st0{fill:#0095DA;}
	.st1{fill:#ED1C24;}
</style>
<path class="st0" d="M215.5,301.8c0-2-0.8-4-2.3-5.5l-28.6-28.6V124.2h154.4v108.1c0,4.3,3.5,7.7,7.7,7.7h15.4v23.2
	c0,4.3,3.5,7.7,7.7,7.7c8.5,0,15.4,6.9,15.4,15.4c0,8.5-6.9,15.4-15.4,15.4c-8.5,0-15.4-6.9-15.4-15.4v-7.7h-15.4v7.7
	c0,11.3,6.2,21.6,16.2,27l-0.5,0.5h30.4l-0.5-0.5c15-8.1,20.5-26.7,12.5-41.7c-4.1-7.6-11.2-13.1-19.5-15.2V240h15.4
	c4.3,0,7.7-3.5,7.7-7.7V124.2h61.8c4.3,0,7.7-3.5,7.7-7.7V85.6c0-0.3-0.1-0.6-0.2-0.8c-0.1-0.6-0.2-1.1-0.3-1.6
	c-0.1-0.4-0.3-0.8-0.5-1.1c-0.7-1.3-1.8-2.4-3.1-3.1c-0.4-0.2-0.8-0.4-1.2-0.5c-0.2-0.1-0.4-0.2-0.6-0.3L170.9,8.5
	c-0.6-0.1-1.2-0.2-1.8-0.2h-30.9c-0.9,0-1.8,0.2-2.7,0.5C135.4,9,135.2,9,135,9.1c-0.2,0.1-0.4,0.1-0.5,0.2L10.9,78.8
	c-0.4,0.3-0.7,0.5-1.1,0.9c-0.3,0.2-0.5,0.4-0.7,0.6c-0.6,0.7-1.2,1.4-1.5,2.3v0.1c-0.3,0.9-0.5,1.8-0.5,2.7c0,0.1-0.1,0.2-0.1,0.3
	v30.9c0,4.3,3.5,7.7,7.7,7.7h108.1v143.5l-28.6,28.6c-1.4,1.4-2.3,3.4-2.3,5.5v123.6H76.5v46.3h154.4v-46.3h-15.4V301.8z
	 M400.8,93.3h54.1v15.4h-54.1V93.3z M200.1,305v120.4h-15.4V289.5L200.1,305z M339.1,108.7H184.6V93.3h154.4V108.7z M385.4,224.6
	h-30.9v-15.4h30.9V224.6z M385.4,193.7h-30.9v-69.5h30.9V193.7z M385.4,108.7h-30.9V93.3h30.9V108.7z M176.9,25.8l219.6,52H176.9
	V25.8z M146,23.8h15.4v54.1H146V23.8z M138.3,93.3h30.9v12.2l-3.2,3.2h-27.7V93.3z M169.2,127.4v55.4l-27.7-27.7L169.2,127.4z
	 M138.3,124.2h12.2l-12.2,12.2V124.2z M138.3,173.7l27.7,27.7l-27.7,27.7V173.7z M169.2,220v55.4l-27.7-27.7L169.2,220z
	 M138.3,266.4l27.7,27.7l-27.7,27.7V266.4z M169.2,312.7v55.4l-27.7-27.7L169.2,312.7z M138.3,359l27.7,27.7l-27.7,27.7V359z
	 M169.2,405.4v20h-20L169.2,405.4z M130.6,29.3v48.6H44.2L130.6,29.3z M22.4,108.7V93.3h100.4v15.4H22.4z M107.4,305l15.4-15.4
	v135.8h-15.4V305z M215.5,456.2H91.9v-15.4h123.6V456.2z"/>
<path class="st1" d="M462.6,371.3h-20l-57.8-57.8H355l-57.8,57.8h-20c-4.3,0-7.7,3.5-7.7,7.7v69.5c0,4.3,3.5,7.7,7.7,7.7h185.3
	c4.3,0,7.7-3.5,7.7-7.7V379C470.3,374.7,466.9,371.3,462.6,371.3z M369.9,320.4l50.9,50.9H319.1L369.9,320.4z M454.9,440.8H285
	v-54.1h169.9V440.8z"/>
</svg>
