<?xml version="1.0" encoding="utf-8"?>
<!-- Generator: Adobe Illustrator 23.0.5, SVG Export Plug-In . SVG Version: 6.00 Build 0)  -->
<svg version="1.1" id="Слой_1" xmlns="http://www.w3.org/2000/svg" xmlns:xlink="http://www.w3.org/1999/xlink" x="0px" y="0px"
	 viewBox="0 0 480 480" style="enable-background:new 0 0 480 480;" xml:space="preserve">
<style type="text/css">
	.st0{fill:#0095DA;}
	.st1{fill:#ED1C24;}
</style>
<path class="st0" d="M301.1,201.8h-15.3v-15.3h15.3V201.8z M262.9,186.6h-15.3v15.3h15.3V186.6z M316.3,377.4h-15.3v15.3h15.3V377.4
	z M461.4,256.8v196.9h7.6V469H11v-15.3h7.6V256.8L11,233.9v-16.8h7.6v-23.2h45.8v23.2h7.6v16L64.4,256v3.1
	c8.4-7.6,19.1-11.5,30.5-11.5v-15.3h-7.6v-15.3H95c0-14.5,9.2-26,22.9-29.8v-16.8h15.3v16.8c13.7,3.8,22.9,16,22.9,29.8h7.6v15.3
	H156v53.4h15.3c0-38.2,30.5-68.7,68.7-68.7s68.7,30.5,68.7,68.7H324v-53.4h-7.6v-15.3h7.6c0-14.5,9.2-26,22.9-29.8v-16.8h15.3v17.6
	c13.7,3.8,22.9,16,22.9,29.8h7.6v15.3H385v15.3c11.4,0,22.1,3.8,30.5,11.4v-3.1l-7.6-22.9v-16.8h7.6v-23.2h45.8v23.2h7.6v16.8
	L461.4,256.8z M385,285.8h29.8c-3.8-13.7-16-22.9-29.8-22.9V285.8z M339.2,217.1h30.5c0-8.4-6.9-15.3-15.3-15.3
	S339.2,208.7,339.2,217.1z M339.2,285.8h30.5v-53.4h-30.5V285.8z M186.6,285.8h106.9c0-29.8-23.7-53.4-53.4-53.4
	S186.6,256,186.6,285.8z M110.2,217.1h30.5c0-8.4-6.9-15.3-15.3-15.3S110.2,208.7,110.2,217.1z M110.2,285.8h30.5v-53.4h-30.5V285.8
	z M65.2,285.8H95v-22.9C81.2,262.9,69,272.1,65.2,285.8z M64.4,407.9h38.2v-45.8H64.4V407.9z M33.9,217.1h15.3v-23.2H33.9V217.1z
	 M49.2,262.9H33.9v190.8h15.3V262.9z M56,232.4H26.3l5.3,15.3h19.1L56,232.4z M415.6,423.2H64.4v30.5h351.1V423.2z M117.9,362.1
	v45.8h15.3v-45.8H117.9z M133.1,346.9v-7.6c0-4.6-3.1-7.6-7.6-7.6s-7.6,3.1-7.6,7.6v7.6H133.1z M292.7,407.9h38.9v-45.8H148.4v45.8
	h38.9c3.8-22.1,22.9-38.2,45-38.2h15.3C269.8,369.8,288.9,385.8,292.7,407.9z M248.4,385h-15.3c-14.5,0-26,9.2-29.8,22.9h74
	C273.6,394.2,261.4,385,248.4,385z M346.9,362.1v45.8h15.3v-45.8H346.9z M362.1,346.9v-7.6c0-4.6-3.1-7.6-7.6-7.6
	c-4.6,0-7.6,3.1-7.6,7.6v7.6H362.1z M415.6,362.1h-38.2v45.8h38.2V362.1z M415.6,301.1H64.4v45.8h38.2v-7.6c0-13,9.9-22.9,22.9-22.9
	s22.9,9.9,22.9,22.9v7.6h183.2v-7.6c0-13,9.9-22.9,22.9-22.9s22.9,9.9,22.9,22.9v7.6h38.2V301.1z M430.8,217.1h15.3v-23.2h-15.3
	V217.1z M446.1,262.9h-15.3v190.8h15.3V262.9z M453,232.4h-29.8l5.3,15.3h19.8L453,232.4z M308.7,316.3h-15.3v15.3h15.3V316.3z
	 M186.6,316.3h-15.3v15.3h15.3V316.3z M224.7,186.6h-15.3v15.3h15.3V186.6z M247.6,316.3h-15.3v15.3h15.3V316.3z M217.1,316.3h-15.3
	v15.3h15.3V316.3z M186.6,186.6h-15.3v15.3h15.3V186.6z M278.2,316.3h-15.3v15.3h15.3V316.3z M163.7,392.7h15.3v-15.3h-15.3V392.7z"
	/>
<path class="st1" d="M18.6,193.9h45.8v-5.8l7.6-15.3v-24.4h-7.6v-38.2L49.2,48.4V11H33.9v37.4l-15.3,60.3v39.7H11v24.4l7.6,15.3
	V193.9z M33.9,111l7.6-30.5l7.6,30.5v37.4H33.9V111z M26.3,163.7h30.5v6.1l-4.6,9.2H30.8l-4.6-9.2V163.7z M369.8,170.5V156h-8.4
	c-3.8-47.3-43.5-84-90.8-84h-7.6V58.3c0-8.4-4.6-16.8-13-20.6l-2.3-0.8V11h-15.3v26l-2.3,1.5c-7.6,3.8-13,11.4-13,20.6v13h-7.6
	c-47.3,0-87,36.6-90.8,84h-8.4v14.5H369.8z M232.4,58.3c0-3.1,1.5-5.3,4.6-6.9l3.1-1.5l3.1,1.5c3.1,1.5,4.6,4.6,4.6,6.9v13.7h-15.3
	V58.3z M209.5,87.3h61.1c38.9,0,71.8,29.8,75.6,68.7H133.9C137.7,117.1,170.5,87.3,209.5,87.3z M415.6,193.9h45.8v-5.8l7.6-15.3
	v-24.4h-7.6v-38.2l-15.3-61.8V11h-15.3v37.4l-15.3,60.3v39.7h-7.6v24.4l7.6,15.3V193.9z M430.8,111l7.6-30.5l7.6,30.5v37.4h-15.3
	V111z M423.2,163.7h30.5v6.1l-4.6,9.2h-21.4l-4.6-9.2V163.7z"/>
</svg>
