<?xml version="1.0" encoding="utf-8"?>
<!-- Generator: Adobe Illustrator 23.0.5, SVG Export Plug-In . SVG Version: 6.00 Build 0)  -->
<svg version="1.1" id="Слой_1" xmlns="http://www.w3.org/2000/svg" xmlns:xlink="http://www.w3.org/1999/xlink" x="0px" y="0px"
	 viewBox="0 0 480 480" style="enable-background:new 0 0 480 480;" xml:space="preserve">
<style type="text/css">
	.st0{fill:#0095DA;}
	.st1{fill:#ED1C24;}
</style>
<g>
	<path class="st0" d="M444.8,213.5H321.5v-14.8c0-1.2-0.1-2.4-0.3-3.6c-1.7-11.3-11.5-20-23.3-20c-11.8,0-21.6,8.7-23.3,20
		c-0.2,1.2-0.3,2.4-0.3,3.6v14.8H151.1c-8.9,0-16.2,6.8-17.1,15.4c-0.1,0.6-0.1,1.2-0.1,1.8v112.2c0,9.5,7.7,17.2,17.2,17.2h20.8
		v46.8H82.3V180.1l149.9-99.7l149.9,99.7v17.8c0,3.5,2.9,6.4,6.4,6.4c3.5,0,6.4-2.9,6.4-6.4v-9.3l19.3,12.8c7.3,4.9,16.8,4.9,24.1,0
		c6.1-4,9.7-10.8,9.7-18.1c0-7.3-3.6-14.1-9.7-18.1l-199.9-133c-3.7-2.5-8.6-2.5-12.3,0l-111.1,73.9c-2.9,1.9-3.7,5.9-1.8,8.8
		c1.9,2.9,5.9,3.7,8.8,1.8l110.2-73.3l199,132.4c2.5,1.7,4,4.4,4,7.5c0,3.1-1.5,5.8-4,7.5c-3,2-6.9,2-9.9,0L238.4,69.1
		c-3.7-2.5-8.6-2.5-12.3,0L43.1,190.8c-3,2-6.9,2-9.9,0c-2.5-1.7-4-4.4-4-7.5c0-3.1,1.5-5.8,4-7.5l55.6-37c2.9-1.9,3.7-5.9,1.8-8.8
		c-2-2.9-5.9-3.7-8.8-1.8l-55.6,37c-6.1,4-9.7,10.8-9.7,18.1c0,7.3,3.6,14.1,9.7,18.1c3.7,2.4,7.8,3.6,12,3.6c4.2,0,8.4-1.2,12-3.6
		l19.3-12.8v218.3H45.1c-10.6,0-19.2,8.6-19.2,19.2c0,10.6,8.6,19.2,19.2,19.2h374.2c10.6,0,19.2-8.6,19.2-19.2
		c0-10.6-8.6-19.2-19.2-19.2h-24.4v-31.4c0-3.5-2.9-6.4-6.4-6.4c-3.5,0-6.4,2.9-6.4,6.4v31.4h-60.6v-46.8h123.3
		c9.5,0,17.2-7.7,17.2-17.2V230.7C462,221.2,454.3,213.5,444.8,213.5L444.8,213.5z M287.1,198.8c0-6,4.9-10.8,10.8-10.8
		s10.8,4.9,10.8,10.8v14.8h-21.6V198.8z M274.4,432.6H45.1c-3.6,0-6.5-2.9-6.5-6.5s2.9-6.5,6.5-6.5h229.3V432.6z M274.4,406.9h-89.8
		v-46.8h89.8V406.9z M308.8,432.6h-21.6v-72.5h21.6V432.6z M388.5,419.6h30.8c3.6,0,6.5,2.9,6.5,6.5s-2.9,6.5-6.5,6.5h-97.8v-13
		H388.5z M449.3,342.9c0,2.4-2,4.4-4.4,4.4H151.1c-2.4,0-4.4-2-4.4-4.4V230.7c0-2.4,2-4.4,4.4-4.4h164.1c0,0,0,0,0,0h129.7
		c2.4,0,4.4,2,4.4,4.4V342.9z M449.3,342.9"/>
	<path class="st0" d="M232.2,108.4c-22.1,0-40.2,18-40.2,40.2c0,22.1,18,40.2,40.2,40.2c22.1,0,40.2-18,40.2-40.2
		C272.4,126.4,254.4,108.4,232.2,108.4L232.2,108.4z M225.8,175.2c-10-2.4-17.9-10.3-20.3-20.3h20.3V175.2z M225.8,142.1h-20.3
		c2.4-10,10.3-17.9,20.3-20.3V142.1z M238.6,121.9c10,2.4,17.9,10.3,20.3,20.3h-20.3V121.9z M238.6,175.2v-20.3h20.3
		C256.5,164.9,248.6,172.8,238.6,175.2L238.6,175.2z M238.6,175.2"/>
	<path class="st1" d="M211.1,269.9c0-4.4,3.8-7.1,10.4-7.1c7.8,0,9.9,3.5,12.7,3.5c3.3,0,4.8-4.2,4.8-6.4c0-6.1-12.1-7.4-17.5-7.4
		c-10.6,0-22.4,4.7-22.4,18.5c0,21.9,29.7,17.6,29.7,31.5c0,5.5-4.8,8-10.3,8c-9.4,0-11.9-7.1-15.7-7.1c-2.9,0-5.3,3.9-5.3,6.5
		c0,5.4,9.2,11.5,21.3,11.5c12.7,0,22-6.8,22-20C240.7,277.4,211.1,281.4,211.1,269.9L211.1,269.9z M211.1,269.9"/>
	<path class="st1" d="M297.3,314.6l-17.8-58.1c-0.8-2.8-4.2-4.1-7.8-4.1c-3.4,0-6.8,1.3-7.7,4.1l-17.8,58.1
		c-0.1,0.4-0.2,0.7-0.2,0.9c0,3,4.3,5,7.6,5c2,0,3.6-0.6,4.1-2.4l3.5-12.3h21.2l3.5,12.3c0.5,1.8,2,2.4,4.1,2.4c3.2,0,7.6-2.1,7.6-5
		C297.5,315.3,297.4,315,297.3,314.6L297.3,314.6z M263.7,296.4l8-28.4l8,28.4H263.7z M263.7,296.4"/>
	<path class="st1" d="M340.3,310h-22.5v-53.3c0-2.6-3-3.7-6-3.7c-3.1,0-6,1.1-6,3.7v60c0,2.5,2.6,3.8,5.3,3.8h29.3
		c2.4,0,3.6-2.7,3.6-5.3C343.9,312.6,342.7,310,340.3,310L340.3,310z M340.3,310"/>
	<path class="st1" d="M390.4,310h-26.1v-18.6h14c2.6,0,3.8-2.5,3.8-4.6c0-2.5-1.4-4.8-3.8-4.8h-14v-18.5h26.1v0
		c2.4,0,3.8-2.5,3.8-5.4c0-2.5-1.2-5.2-3.8-5.2h-32.9c-2.7,0-5.3,1.3-5.3,3.8v59.9c0,2.5,2.6,3.8,5.3,3.8h32.9
		c2.6,0,3.8-2.7,3.8-5.2C394.2,312.5,392.8,310,390.4,310L390.4,310z M390.4,310"/>
</g>
</svg>
