<?xml version="1.0" standalone="no"?>
<!DOCTYPE svg PUBLIC "-//W3C//DTD SVG 1.1//EN" "http://www.w3.org/Graphics/SVG/1.1/DTD/svg11.dtd">
<svg xmlns="http://www.w3.org/2000/svg">
<metadata>Copyright (C) 2020 by original authors @ fontello.com</metadata>
<defs>
<font id="fontello" horiz-adv-x="1000" >
<font-face font-family="fontello" font-weight="400" font-stretch="normal" units-per-em="1000" ascent="850" descent="-150" />
<missing-glyph horiz-adv-x="1000" />
<glyph glyph-name="area" unicode="&#xe800;" d="M971 851h-941a31 31 0 0 1-30-31v-940a31 31 0 0 1 30-31h129a31 31 0 0 1 30 31v12h611a30 30 0 0 1 22 9l128 128a29 29 0 0 1 9 22v611h12a31 31 0 0 1 31 30v128a31 31 0 0 1-31 31z m-74-788l-109-109v109h109z m-610 318h-97v281h280v-98a31 31 0 0 1 62 0v98h366v-538h-141a31 31 0 0 1-30-30v-141h-537v367h97a31 31 0 0 1 31 30 31 31 0 0 1-31 31z m654 409v-67h-751v67h750z m-813-128v-752h-67v752h67z m0 128v-67h-67v67h67z m288-470h85a31 31 0 0 1 31 30v86a31 31 0 0 1-62 0v-55h-54a31 31 0 0 1-31-31 31 31 0 0 1 30-30z" horiz-adv-x="1002" />

<glyph glyph-name="arrow" unicode="&#xe801;" d="M586 305a64 64 0 0 0-12-15 51 51 0 0 0-15-11l-430-409a80 80 0 0 0-109 0 71 71 0 0 0 0 103l391 372-386 381a74 74 0 0 0 0 106 78 78 0 0 0 107 0l418-414a73 73 0 0 0 28-17 71 71 0 0 0 8-96z" horiz-adv-x="603" />

<glyph glyph-name="cost2" unicode="&#xe802;" d="M817 267v234c0 111-83 202-194 215l58 111c2 4 2 10 0 17-6 4-11 6-17 6h-307c-6 0-10-2-14-8-3-5-5-11 0-17l57-111c-111-13-194-107-194-215v-300h34v300c0 102 83 183 188 183h170c49 0 98-19 132-53 36-34 55-81 55-130v-234h32z m-232 449h-149l-51 100h251l-51-100z m-219-115c9 4 19 9 30 13l-9 32c-12-4-25-9-38-15l17-30z m-94-168h34v66c0 32 13 62 37 83l-24 25c-30-27-47-65-47-108v-66z m-223-402l289-156c32-17 68-25 107-25h561c9 0 17 8 17 17v300c0 9-8 17-17 17h-129l-5 0c-19 15-42 28-66 36-83 34-176 26-251-21h-129c-28 0-54-13-69-34-17-21-21-49-12-75l-211 105c-32 15-68 12-96-9-23-17-38-44-38-74v-2c0-32 19-64 49-79z m836 119h102v-266h-102v266z m-851-38c0 19 9 36 26 47 17 12 40 14 59 4l264-128c2-2 4-2 9-2h255v34h-221c-28 0-51 23-51 49 0 28 23 51 51 51h134c4 0 6 0 8 2 66 43 151 51 226 21 21-8 40-19 57-31v-275h-408c-32 0-62 9-90 23l-289 154c-17 10-30 29-30 51l0 0z m885-145h34v-34h-34v34z m-391 300v34h17c38 0 68 30 68 66 0 36-30 66-68 66h-68c-20 0-34 15-34 34s14 34 34 34h119v34h-68v34h-34v-34h-17c-39 0-68-30-68-66 0-36 29-66 68-66h68c19 0 34-15 34-34s-15-34-34-34h-119v-34h68v-34h34z" horiz-adv-x="1021" />

<glyph glyph-name="eye" unicode="&#xe803;" d="M1567 381c-14 19-350 471-779 471s-765-452-779-471a51 51 0 0 1 0-61c14-19 350-471 779-471s765 452 779 471a51 51 0 0 1 0 61z m-779-428c-316 0-590 300-671 397 81 98 354 398 671 398s589-300 671-398c-81-97-354-397-671-397z m0 708a311 311 0 1 1 312-311 312 312 0 0 1-312 311z m0-518a207 207 0 1 0 208 207 208 208 0 0 0-208-207z" horiz-adv-x="1578" />

<glyph glyph-name="facebook" unicode="&#xe804;" d="M402 351h-124v-501h-188v501h-89v177h89v113a187 187 0 0 0 189 209h139v-171h-101a41 41 0 0 1-40-48v-103h140z" horiz-adv-x="417" />

<glyph glyph-name="farm1" unicode="&#xe805;" d="M981 67c-162 0-323-67-439-184-9-8-9-21 0-27 4-4 8-6 14-6 4 0 11 2 15 6 108 109 258 173 412 173 11 0 19 9 19 19-2 10-10 19-21 19z m-408 18c-6 9-19 11-27 7-83-57-154-127-211-211-6-8-4-21 7-27 4-2 6-4 10-4 6 0 13 2 17 8 52 79 119 146 200 200 8 7 10 17 4 27z m408 140c-87 0-173-15-256-44-10-4-15-14-12-25 2-8 10-12 18-12 2 0 4 0 7 2 79 27 160 42 243 42 11 0 19 8 19 18 0 9-8 19-19 19z m-702-242c129 167 315 284 519 327 0 0 0 0 0 0 58 13 119 19 181 19 11 0 19 9 19 19 0 10-8 19-19 19-56 0-110-4-164-15v42c70 60 108 137 108 221 0 85-42 166-117 227-6 6-16 6-25 0-73-57-114-138-114-223 0-84 39-163 108-221v-50c-37-8-73-19-110-31v114c0 7-2 11-7 15v0l-110 110c-4 4-8 7-15 7h-218c-5 0-11-3-15-7l-110-110v0c-2-6-5-13-5-17v-75c-14 2-27 4-41 6v69c54 46 83 106 83 169 0 67-31 129-89 175-7 6-17 6-25 0-59-44-90-106-90-173 0-65 29-123 83-169v-64c-29 2-56 4-85 4-13-2-21-11-21-21s8-19 19-19c156 0 308-41 444-118-32-23-63-46-92-71-108 56-231 85-352 85-11-4-19-12-19-23s8-19 19-19c110 0 221-25 321-75-30-29-59-60-84-91-75 31-156 48-237 48-11 0-19-9-19-19 0-10 8-19 19-19 73 0 146-14 212-42-12-18-27-37-37-58l-29-48c-7-8-2-21 6-27 4-4 6-4 10-4 7 0 13 4 17 8l29 48c15 25 31 50 50 73 2 2 2 4 2 4z m427 636c0 69 32 135 90 187 58-52 89-116 89-187 0-61-25-119-70-169v150c0 10-9 19-19 19s-19-9-19-19v-150c-46 48-71 106-71 169z m-643-19c0 50 20 98 62 135 42-37 63-85 63-135 0-42-15-81-44-115v130c0 10-9 18-19 18-10 0-19-8-19-18v-130c-29 34-43 73-43 115z m537-152h-169l-71 71h169l71-71z m-285 62l62-62h-125l63 62z m-90-102h179v-125c-8 5-19 9-27 13v64c0 11-8 19-19 19h-87c-11 0-19-8-19-19v-22c-8 2-19 4-27 6v64z m113-95c-15 6-32 10-48 16v15h48v-31z m106-46v143h183v-110c-33-15-67-29-98-48-10-6-21-12-29-17-19 11-37 21-56 32z m352 387c4 0 10 2 14 6 5 5 7 9 7 15 0 4-2 10-7 15-4 4-8 6-14 6s-11-2-15-6c-4-5-6-9-6-15 0-4 2-10 6-15 4-4 9-6 15-6z m-169-516c-4-5-6-9-6-15 0-4 2-10 6-15 4-4 8-6 15-6 4 0 10 2 14 6 4 5 7 9 7 15 0 4-3 10-7 15-6 2-10 4-16 4-5 0-11-2-13-4z" horiz-adv-x="1000" />

<glyph glyph-name="home" unicode="&#xe806;" d="M928 486v304h-215v-89l-151 150-563-560v-82h132v-358h408v172h43v-172h411v358h131v82z m-86 218v-132l-43 43v89h43z m64-409v-358h-237v173h-215v-173h-237v358h-92l437 434 437-434h-93z" horiz-adv-x="1125" />

<glyph glyph-name="house2" unicode="&#xe807;" d="M985 212v115l-445 172v30l32-13v115l-572 219v-115l32-13v-840h-32v-32h985v32h-32v340l32-10z m-953 591l508-196v-46l-508 198 0 44 0 0z m445-857h-32v-32h32v-32h-317v32h253v32h-253v32h317v-32z m0 64h-317v32h317v-32z m0 127h-254v-32h254v-32h-317v32h32v32h-32v32h317v-32z m0 66h-317v32h317v-32z m444-321h-412v353h31v32h-444v-32h32v-353h-64v830l445-173v-144l412-160v-353z m-381 536v47l413-160v-46l-413 159z m349-215h-317v-225h317v225z m-174-193h-111v63h111v-63z m0 95h-111v64h111v-64z m142-95h-110v63h110v-63z m0 95h-110v64h110v-64z m-697 209h253v225h-253v-225z m142 193h79v-63h-79v63z m0-97h79v-64h-79v64z m-110 97h78v-63h-78v63z m0-97h78v-64h-78v64z" horiz-adv-x="979" />

<glyph glyph-name="hurt" unicode="&#xe808;" d="M927 705c-49 56-118 87-193 87-105 0-172-63-209-116-10-14-18-27-25-40-7 13-15 26-25 40-37 53-104 116-209 116-75 0-144-31-193-87-47-53-73-125-73-201 0-84 33-161 102-244 63-74 152-150 256-239 39-33 79-67 121-104l2-2c5-4 12-7 19-7s14 3 19 7l2 2c42 37 82 71 121 104 104 89 193 165 256 239 70 83 102 160 102 244 0 76-26 148-73 201z m-323-639c-33-29-68-58-104-90-36 32-70 61-104 90-203 173-337 287-337 438 0 62 20 120 58 162 38 43 91 67 149 67 80 0 132-49 161-91 27-37 40-75 45-89 4-12 15-20 28-20 13 0 24 8 28 20 5 14 18 52 45 89 29 42 81 91 161 91 58 0 111-24 149-67 38-42 58-100 58-162 0-151-134-265-337-438z" horiz-adv-x="1000" />

<glyph glyph-name="instagram" unicode="&#xe809;" d="M501 607a257 257 0 1 1 257-257 256 256 0 0 1-257 257z m0-404a148 148 0 1 0 148 147 148 148 0 0 0-148-147z m247 647h-494a253 253 0 0 1-252-253v-494a253 253 0 0 1 252-253h494a253 253 0 0 1 253 253v494a253 253 0 0 1-253 253z m142-747a142 142 0 0 0-142-142h-494a142 142 0 0 0-141 142v494a142 142 0 0 0 141 142h494a142 142 0 0 0 142-142v-494z m-125 572a61 61 0 1 0-61-61 61 61 0 0 0 61 61z" horiz-adv-x="1000" />

<glyph glyph-name="key2" unicode="&#xe80a;" d="M421 17h67c8 0 16 8 16 16v67c0 8-8 17-16 17h-67c-8 0-17-9-17-17v-67c0-8 6-16 17-16z m17 66h33v-33h-33v33z m318-66h67c8 0 17 8 17 16v67c0 8-9 17-17 17h-67c-8 0-16-9-16-17v-67c0-8 8-16 16-16z m17 66h33v-33h-33v33z m-738 559c3-4 9-9 15-9h83v-33c0-8 9-17 17-17h67c8 0 16 9 16 17v33h34v-66c0-9 8-17 16-17h67c8 0 17 8 17 17v66h100c18-37 52-64 91-77-10-39-18-81-20-123 0-58 20-87 43-102l-285-150c-8-4-11-14-6-23 2-6 8-8 14-8h34v-283c0-9 8-17 16-17h538c8 0 16 8 16 17v283h34c8 0 16 8 16 17 0 6-4 12-8 14l-285 150c20 15 43 44 43 102-2 46-10 92-29 136 73 39 100 131 61 204-40 73-132 100-207 60-27-14-50-37-62-64h-421c-4-2-10-4-15-11l-33-50c-2-4-2-12 0-16l33-50z m638-759h-100v167h100v-167z m202 67h-135v-33h135v-34h-169v184c0 8-8 16-16 16h-136c-8 0-16-8-16-16v-184h-169v34h69v33h-67v200h504v-200z m-2 233h-502l252 132 250-132z m-250 167c-6 0-50 4-50 83 2 40 10 80 25 117 4 0 6 0 10 0 15 0 27 2 42 6 15-39 25-81 25-123-2-79-48-83-52-83z m0 317c-19 0-33 14-33 33s14 33 33 33 33-14 33-33-14-33-33-33z m-563 66h92v-33h33v33h34v-33h33v33h33v-33h34v33h100v-33h33v33h27c6 0 13 5 15 11 27 60 96 89 156 64s90-91 65-152c-11-23-27-43-50-56-7 15-13 29-19 38 35 14 52 52 37 87-14 33-52 50-87 38-36-15-52-53-38-88 9-21 30-37 52-42 5-8 13-25 23-48-56-14-116 15-137 69-2 6-8 11-15 11h-127c-8 0-16-9-16-17v-67h-34v69c0 8-8 17-16 17h-67c-8 0-17-9-17-17v-33h-35v33c0 8-9 17-17 17h-92l-22 33 22 33z m361-716h67c8 0 16 8 16 16v67c0 8-8 17-16 17h-67c-8 0-17-9-17-17v-67c0-8 6-16 17-16z m17 66h33v-33h-33v33z m318-66h67c8 0 17 8 17 16v67c0 8-9 17-17 17h-67c-8 0-16-9-16-17v-67c0-8 8-16 16-16z m17 66h33v-33h-33v33z m-150 267l-42-19-285-150c-8-4-11-14-6-23 2-6 8-8 14-8h34v-283c0-9 8-17 16-17h538c8 0 16 8 16 17v283h34c8 0 16 8 16 17 0 6-4 12-8 14l-285 150-42 19z m50-467h-100v167h100v-167z m202 67h-135v-33h135v-34h-169v184c0 8-8 16-16 16h-136c-8 0-16-8-16-16v-184h-169v34h69v33h-67v200h504v-200z m-2 233h-502l252 132 250-132z m-250 167" horiz-adv-x="958" />

<glyph glyph-name="krestik" unicode="&#xe80b;" d="M631 351l337-337a97 97 0 0 0 0-137 95 95 0 0 0-134 0l-338 339-337-339a95 95 0 0 0-135 0 97 97 0 0 0 0 137l337 337-337 339a96 96 0 0 0 0 135 95 95 0 0 0 135 0l337-337 338 337a95 95 0 0 0 134 0 96 96 0 0 0 0-135z" horiz-adv-x="996" />

<glyph glyph-name="letter" unicode="&#xe80c;" d="M1352 852h-1205a147 147 0 0 1-147-146v-709a146 146 0 0 1 147-145h1205a146 146 0 0 1 146 145v709a147 147 0 0 1-146 146z m-4-98c-25-24-547-541-565-558a49 49 0 0 0-69 0c-16 17-539 534-564 558h1198z m-1250-753v669l338-335z m85-53l322 319 140-139a148 148 0 0 1 208 0l140 139 322-319h-1132z m1217 53l-337 334 337 335v-669h0z" horiz-adv-x="1497" />

<glyph glyph-name="libra" unicode="&#xe80d;" d="M998 344l-140 364h57a28 28 0 0 1 0 56h-390v58a27 27 0 0 1-27 28 27 27 0 0 1-26-28v-58h-390a28 28 0 0 1 0-56h60l-140-365a35 35 0 0 1-2-10 180 180 0 1 1 360 0 23 23 0 0 1-2 10l-139 365h253v-675c-102-10-179-76-179-155a27 27 0 0 1 27-28h357a27 27 0 0 1 26 28c0 79-76 145-178 155v676h255l-138-365a35 35 0 0 1-2-11 181 181 0 1 1 360 0 35 35 0 0 1-2 11z m-693-33a126 126 0 0 0-249-6l-1 1a38 38 0 0 0-3 24c2 6 11 22 11 22v1l118 309 93-245c5-13 11-27 16-40 7-17 13-32 16-38a66 66 0 0 0-1-28z m47-406a182 182 0 0 0 293 0h-293z m593 406a129 129 0 0 0-126-113l-3 0a130 130 0 0 0-121 111 60 60 0 0 0-1 28l1 1c2 5 6 15 7 17l0 0 117 307 117-308a146 146 0 0 0 9-43z" horiz-adv-x="1000" />

<glyph glyph-name="linkedin" unicode="&#xe80e;" d="M1001 238v-386h-214v359c0 90-30 153-109 153a119 119 0 0 1-110-82 137 137 0 0 1-7-55v-377h-214s3 610 0 674h214v-95l-1-2h1v2a215 215 0 0 0 194 112c141 0 246-96 246-303h0z m-878 612a117 117 0 1 1-3-234h2a117 117 0 1 1 1 234h0z m-109-998h215v674h-215v-674z" horiz-adv-x="1000" />

<glyph glyph-name="location" unicode="&#xe80f;" d="M362 851a363 363 0 0 1-363-362c0-248 325-613 338-628a33 33 0 0 1 49 0c14 15 338 380 338 628a363 363 0 0 1-362 362z m0-918c-109 129-297 385-297 556a297 297 0 0 0 594 0c0-171-188-427-297-556z m0 737a182 182 0 1 1 182-181 182 182 0 0 1-182 181z m0-298a117 117 0 1 0 117 117 117 117 0 0 0-117-117z" horiz-adv-x="723" />

<glyph glyph-name="medal2" unicode="&#xe810;" d="M830 644c0 15-4 21-17 27-128 58-256 115-381 175-11 4-19 4-32 0-128-58-253-117-381-175-15-4-19-12-19-27 0-94 0-190 0-283 0-39 4-77 9-113 8-64 31-121 72-172 32-43 72-77 115-107 68-49 140-85 215-119 2 0 4 0 8 0 41 19 81 38 121 60 62 34 122 72 173 123 53 51 89 113 104 183 11 47 13 96 13 145 0 95 0 189 0 283z m-43-339c-2-91-32-172-100-238-36-36-74-66-117-92-49-27-100-53-149-80-4-2-8-2-12 0-66 29-130 63-190 106-55 38-104 83-136 143-23 42-36 89-38 138-2 83-5 166-5 251 0 32 0 64 0 96 0 6 3 10 9 15 119 53 238 108 357 163 7 3 11 3 17 0 120-55 239-108 360-163 6-2 9-7 9-13 0-55 0-111 0-166 0 0 0 0 0 0-3-53-3-106-5-160z m-64 305c-14 6-31 15-46 21-13 4-24 2-28-9-4-10 0-21 11-27 10-5 19-9 29-13 7-2 7-4 7-11 0-32 0-66 0-98 0-63 0-125-4-189-5-62-32-115-77-157-43-43-94-75-147-102-11-7-21-13-34-20 0 5 0 9 0 11 0 21 0 43 0 64 0 15-11 23-23 21-11-2-15-11-15-21 0-24 0-49 0-75-2 2-4 2-4 2-47 24-92 52-135 81-34 26-63 56-87 92-23 40-34 85-34 130-2 87-2 174-2 261 0 7 4 9 9 11 87 40 176 81 263 121 7 2 11 2 15 0 19-8 41-19 60-27 15-7 25-3 30 12 2 9-2 17-13 24-17 8-34 17-53 23-36 17-28 17-64 0-92-40-181-83-272-123-11-5-17-11-17-24 0-83 0-166 0-249 0-38 2-74 12-110 17-62 53-111 100-151 60-51 126-88 196-122 6-2 15-2 21 0 68 34 136 71 194 120 30 25 53 53 74 85 26 42 39 91 39 140 2 96 2 192 2 289 4 9 0 15-7 20z m-327-13c-32-28-66-55-98-83-26-21-51-45-79-66-6-6-10-15-6-23 4-9 10-13 21-13 4 0 11 0 15 0 0-5 0-9 0-13 0-53 0-104 0-157 0-22 6-28 28-28 91 0 183 0 274 0 21 0 28 6 28 28 0 53 0 104 0 157 0 4 0 8 0 13 6 0 10 0 15 0 10 0 19 2 23 13 4 10-2 17-8 25-58 49-117 98-175 149-15 11-23 11-38-2z m144-177c0-51 0-104 0-155 0-4 0-6 0-11-85 0-168 0-253 0 0 5 0 7 0 11 0 53 0 104 0 157 0 9-2 17-4 28 43 36 87 72 132 111 45-39 89-77 132-111-2-11-7-21-7-30z m43 213c11 0 19 9 19 19 0 11-8 19-19 19-11 0-19-8-19-19-2-10 8-19 19-19z m-187-481c0-10 8-19 19-19 11 0 19 9 19 19 0 11-8 19-19 19-11 2-19-8-19-19z m-11 215c-10 11-21 11-30 2-8-8-8-19 2-30 9-8 18-17 28-27 13-13 24-13 36 0 26 25 51 51 77 74 2 2 4 4 6 9 5 8 5 17-2 23-6 7-15 9-23 4-4-2-7-6-11-8-21-21-42-43-66-64-6 4-10 11-17 17z" horiz-adv-x="830" />

<glyph glyph-name="phone" unicode="&#xe811;" d="M976 113l-125 124a88 88 0 0 1-124 0l-57-56a67 67 0 0 0-94 0l-245 245a67 67 0 0 0 0 95c9 9 35 35 56 56a88 88 0 0 1 0 125l-124 124a88 88 0 0 1-125 0c-25-26-34-34-45-45a318 318 0 0 1 0-449l389-389a317 317 0 0 1 449 0l45 45a88 88 0 0 1 0 125z m-796 671a29 29 0 0 0 41 0l125-124a29 29 0 0 0 0-41l-21-21-166 166z m343-799l-389 389a258 258 0 0 0-16 348l165-166a125 125 0 0 1 6-171l245-245h0a125 125 0 0 1 172-6l165-165a258 258 0 0 0-348 16z m411 45l-21-21-166 166 21 21a29 29 0 0 0 42 0l124-125a29 29 0 0 0 0-41z" horiz-adv-x="1002" />

<glyph glyph-name="playvideo" unicode="&#xe812;" d="M1400 693c-18 61-64 111-125 125-114 32-561 32-561 32s-446 0-557-29c-61-17-111-67-128-128-29-111-29-343-29-343s0-232 29-343c17-61 64-111 125-125 114-32 560-32 560-32s447 0 557 29c61 17 111 64 125 125 33 114 33 346 33 346s0 232-29 343z m-829-557v428l372-214-372-214z" horiz-adv-x="1429" />

<glyph glyph-name="search" unicode="&#xe813;" d="M968 51l-172 172 3 6a457 457 0 0 1 50 199 424 424 0 1 1-425-423 458 458 0 0 1 200 50l6 3 173-172a115 115 0 0 1 165 0 123 123 0 0 1 0 165z m-303 137a339 339 0 1 0 100 240 338 338 0 0 0-100-240z" horiz-adv-x="1002" />

<glyph glyph-name="strelka" unicode="&#xe814;" d="M0 851v-1002l501 501" horiz-adv-x="500" />

<glyph glyph-name="subject" unicode="&#xe815;" d="M667-33l156-118v118h178v529h-354v354h-647v-529h178v-118l156 118h20v-354h313z m275 58h-178v-58l-78 58h-273v413h529v-413z m-627 354l-79-58v58h-178v413h530v-296h-128l-135 271-144-287 53-26 36 72h110l14-30h-40v-117h-39z m35 205h-51l26 52z m285-399a152 152 0 0 0-76-41v-58a209 209 0 0 1 118 57 205 205 0 0 1 117-57v58a153 153 0 0 0-76 41 218 218 0 0 1 42 77h63v59h-117v58h-59v-58h-117v-59h62a218 218 0 0 1 43-77z m42 42a173 173 0 0 0-22 35h43a198 198 0 0 0-21-35z" horiz-adv-x="1000" />

<glyph glyph-name="telegram201" unicode="&#xe816;" d="M787 629l-668-260c-22-9-21-40 2-46l170-51 63-201c7-21 33-27 49-11l88 89 172-126c21-16 51-4 56 21l115 546c5 27-21 49-47 39z m-83-121l-311-275c-3-2-5-6-6-10l-11-106c-1-4-6-4-7-1l-49 158c-2 8 1 16 7 20l367 227c8 5 17-6 10-13z" horiz-adv-x="1000" />

<glyph glyph-name="twitter" unicode="&#xe817;" d="M1202 733a452 452 0 0 0-142-40 255 255 0 0 1 109 140 522 522 0 0 0-157-62 240 240 0 0 1-180 79 249 249 0 0 1-246-253 364 364 0 0 1 5-58 696 696 0 0 0-507 264 249 249 0 0 1-33-127 255 255 0 0 1 110-211 253 253 0 0 0-112 32v-3a250 250 0 0 1 199-247 247 247 0 0 0-65-9 358 358 0 0 0-46 3 250 250 0 0 1 230-175 487 487 0 0 0-307-107c-20 0-38 2-59 3a688 688 0 0 1 379-113 706 706 0 0 1 702 720v32a584 584 0 0 1 120 132h0z" horiz-adv-x="1200" />

<glyph glyph-name="viber" unicode="&#xe818;" d="M816 528l0 0c-16 65-88 134-154 149l-1 0c-107 20-215 20-322 0l-1 0c-66-15-138-84-154-149l0 0c-20-90-20-182 0-272l0-1c15-62 82-128 146-146v-72c0-26 31-39 49-20l74 76c15-1 31-2 47-2 54 0 108 5 161 16l1 0c66 14 138 84 154 148l0 1c20 90 20 182 0 272z m-57-259c-11-42-66-95-109-104-57-11-114-16-172-14-1 0-2 0-3-1-8-9-53-55-53-55l-57-58c-4-5-11-2-11 4v120c0 2-2 3-4 4 0 0 0 0 0 0-43 9-98 62-108 104-18 81-18 164 0 246 10 42 65 94 108 104 100 19 200 19 300 0 43-10 98-62 109-104 17-82 17-165 0-246z m-164-55c-7 2-13 3-19 6-62 25-118 58-163 108-25 29-45 61-62 95-8 16-14 33-21 50-7 15 3 31 12 42 9 11 21 19 34 25 10 5 19 2 27-6 15-18 30-37 41-58 7-13 5-29-8-37-3-3-6-5-9-8-2-2-5-4-6-7-4-5-4-11-2-17 16-44 43-78 87-96 7-3 14-6 23-5 13 1 18 16 27 24 9 8 21 8 31 1 11-6 20-13 30-20 9-7 19-13 28-21 8-7 11-17 6-27-8-19-21-34-39-44-5-2-12-3-17-5-7 2 5 2 0 0z m-95 348c80-3 146-56 160-135 3-14 4-27 5-41 0-6-3-11-9-11-7 0-10 5-10 11-1 11-2 23-3 34-8 60-56 109-115 120-9 1-19 2-28 2-5 1-13 1-14 9-1 6 4 10 10 11 1 0 3 0 4 0 80-3-1 0 0 0z m122-158c0-1 0-4-1-6-2-8-14-9-17-1-1 3-1 5-1 8 0 17-4 34-12 49-9 15-22 28-38 35-10 5-20 8-30 10-5 0-10 1-14 1-6 1-9 5-8 10 0 5 4 9 9 9 18-1 36-5 53-14 33-18 52-45 57-82 1-2 1-4 1-5 0-5 1-9 1-14 0-1 0 5 0 0z m-50 2c-7 0-10 3-11 9 0 5-1 9-2 13-2 8-6 16-13 21-3 2-7 4-11 5-5 2-10 1-15 2-5 2-8 6-7 11 1 5 5 8 10 8 31-2 53-18 56-55 1-3 1-5 0-8-1-4-4-6-7-6-7 0 3 0 0 0z" horiz-adv-x="1000" />

<glyph glyph-name="vk" unicode="&#xe819;" d="M1593-32a772 772 0 0 1-160 200c-135 134-116 113 47 346 97 141 137 228 125 265a89 89 0 0 1-84 27l-242-2a49 49 0 0 1-31-6 69 69 0 0 1-21-28 1529 1529 0 0 0-90-203c-107-197-151-207-168-195a237 237 0 0 0-31 176c0 190 27 270-52 290a389 389 0 0 1-112 13 485 485 0 0 1-201-23c-28-14-49-46-36-48a107 107 0 0 0 71-39 284 284 0 0 0 24-118s15-225-33-253c-33-19-78 20-173 199a1607 1607 0 0 0-87 193 71 71 0 0 1-20 29 98 98 0 0 1-37 16l-230-2a72 72 0 0 1-47-17 56 56 0 0 1-1-44 2877 2877 0 0 1 383-682 531 531 0 0 1 400-196h95a83 83 0 0 1 45 20 78 78 0 0 1 12 46 200 200 0 0 0 58 159c60 20 135-134 216-194a144 144 0 0 1 107-35l214 4s112 7 59 102z" horiz-adv-x="1604" />

<glyph glyph-name="whatsapp" unicode="&#xe81a;" d="M150 0l49 174c-31 53-48 114-48 177 0 192 157 349 350 349s349-157 349-349c0-193-157-349-349-349-61 0-119 15-171 44l-180-46z m189 110l11-7c45-28 97-42 151-42 159 0 290 130 290 290s-131 290-290 290-291-130-291-290c0-56 16-110 46-157l7-11-28-100 104 27z m63 403l-22 2c-7 0-14-2-20-7-11-10-28-28-34-52-8-36 5-80 37-124 32-44 92-114 198-144 34-9 61-3 82 10 16 11 28 28 32 47l3 17c1 5-1 11-6 13l-77 35c-5 2-11 1-14-3l-30-39c-2-3-6-4-10-3-20 7-89 36-127 109-2 3-1 7 1 10l29 33c3 3 3 8 2 12l-33 77c-2 4-6 7-11 7z" horiz-adv-x="1000" />

<glyph glyph-name="youtube" unicode="&#xe81b;" d="M1457 694a183 183 0 0 1-130 126 4541 4541 0 0 1-583 31 4699 4699 0 0 1-581-30 184 184 0 0 1-131-127 1925 1925 0 0 1 0-688 181 181 0 0 1 131-127 4533 4533 0 0 1 581-30 4717 4717 0 0 1 583 29 183 183 0 0 1 130 126 1798 1798 0 0 1 31 345 1706 1706 0 0 1-31 345z m-860-558v429l387-215z" horiz-adv-x="1488" />

<glyph glyph-name="arrowleft" unicode="&#xe81c;" d="M22 404c11 0 11 11 22 11l413 413c32 33 76 33 108 0 0 0 0 0 0 0 33-32 33-76 0-108l-380-370 391-370c0 0 0 0 0 0 22-32 22-76 0-97-32-44-76-44-109-11l-423 413c-11 0-11 11-11 11 0 0-11 11-11 11-33 32-33 65 0 97z" horiz-adv-x="598" />

<glyph glyph-name="burger" unicode="&#xe81d;" d="M72 655h857v-72h-857l0 72z m0-225h857v-71h-857l0 71z m0-225h857v-71h-857l0 71z" horiz-adv-x="1000" />

<glyph glyph-name="file" unicode="&#xe81e;" d="M186 730v91l-156-157h90c18 0 35 7 47 19 13 12 19 29 19 47z m0 0m507 120h-466v-120c0-29-11-56-31-76-20-20-47-31-76-31h-120v-692c0-45 38-81 83-81h610c45 0 83 36 83 81v838c0 45-38 81-83 81z m-523-819h-75c-11 0-20 9-20 21s9 20 20 20h75c12 0 21-9 21-20s-9-21-21-21z m0 204h-75c-11 0-20 9-20 21s9 20 20 20h75c12 0 21-9 21-20s-9-21-21-21z m0 204h-75c-11 0-20 9-20 21s9 20 20 20h75c12 0 21-9 21-20s-9-21-21-21z m511-408h-407c-12 0-21 9-21 21s9 20 21 20h406c12 0 21-9 21-20 0-6-2-11-6-15-4-4-9-6-14-6z m0 204h-407c-12 0-21 9-21 21s9 20 21 20h406c12 0 21-9 21-20 0-6-2-11-6-15-4-4-9-6-14-6z m0 204h-407c-12 0-21 9-21 21s9 20 21 20h406c12 0 21-9 21-20 0-6-2-11-6-15-4-3-9-6-14-6z m0 0" horiz-adv-x="1000" />

<glyph glyph-name="libra-1" unicode="&#xe81f;" d="M1003 344l-141 349h58c14 0 26 12 26 27s-12 26-26 26h-395v56c0 15-12 27-27 27s-26-12-26-27v-56h-395c-15 0-26-12-26-26s11-27 26-27h60l-141-349c-1-3-2-6-2-10 0-100 82-182 182-182s182 82 182 182c0 4 0 7-2 10l-140 350h256v-647c-103-10-181-73-181-149 0-15 12-27 27-27h361c15 0 27 12 27 27 0 76-78 139-181 149v647h258l-139-350c-2-3-3-6-3-10 0-100 82-182 182-182s182 82 182 182c0 3 0 7-2 10z m-700-31c-10-62-63-108-126-108-61 0-114 43-126 102l0 1c-7 16-5 22-4 23 2 6 11 21 11 21l0 0 119 297 94-235c5-12 11-26 17-39 7-16 13-29 15-35 3-6 2-19 0-27z m47-389c20 41 81 71 148 71 67 0 129-30 148-71h-296z m600 389c-11-63-64-108-127-108l-4-1c-60 3-111 46-122 106-3 13-2 23-1 27l1 1c2 5 6 14 7 16l0 0 118 294 119-294c7-18 8-38 9-41z" horiz-adv-x="1000" />

<glyph glyph-name="phonemob" unicode="&#xe820;" d="M981 55l-111 74-99 65c-19 13-44 9-58-9l-61-78c-14-17-37-22-56-12-41 23-90 45-198 153-108 108-130 157-153 198-10 19-5 42 12 56l78 61c18 14 22 39 9 58l-63 96-76 114c-13 19-39 25-59 13l-87-53c-24-14-42-36-49-63-24-87-29-279 280-588s501-304 588-280c27 7 49 25 63 48l53 88c12 20 6 46-13 59z m-412 640c162 0 293-131 293-293 0-10 8-17 17-17 10 0 18 7 18 17-1 181-147 327-328 327-10 0-17-7-17-17 0-9 7-17 17-17z m0-104c105 0 190-85 190-189 0-10 7-17 17-17 9 0 17 7 17 17 0 124-100 224-224 224-10 0-17-8-17-17 0-10 7-18 17-18z m0-103c48 0 86-39 86-86 0-10 8-17 17-17 10 0 18 7 18 17 0 66-54 120-121 120-10 0-17-7-17-17 0-9 7-17 17-17z" horiz-adv-x="1000" />

<glyph glyph-name="strelkaleft" unicode="&#xe821;" d="M0 347l504-504v1007" horiz-adv-x="504" />

<glyph glyph-name="right-open-big" unicode="&#xe822;" d="M13-20l358 370-358 372q-26 26 0 48 26 26 48 0l392-394q24-26 0-50l-392-394q-22-26-48 0-26 22 0 48z" horiz-adv-x="465" />

<glyph glyph-name="checked" unicode="&#xe823;" d="M1000 384c0 15-15 30-30 30 0 0 0 0 0 0-15 0-31-15-27-34 0-11 0-22 0-30-4-242-201-432-439-432-243 4-436 201-432 440 0 238 193 431 432 431 95 0 185-30 261-87 12-11 31-7 42 4 0 0 0 0 0 0 11 15 7 34-8 42-87 64-189 98-299 98-269 8-496-216-500-492-4-277 220-504 496-508 277-4 504 220 508 496 0 0 0 4 0 4-4 15-4 27-4 38z m102 398c-45 45-121 45-166 0 0 0 0 0 0 0l-432-440-155 156c-46 45-118 45-167 0 0 0 0 0 0 0-46-46-46-121 0-167l265-269c30-30 80-30 110 0 0 0 0 0 0 0l545 553c46 46 46 121 0 167z m-41-125l-546-549c-7-8-19-8-23 0 0 0 0 0 0 0l-265 269c-22 22-22 60 0 83 23 23 57 23 80 0 0 0 0 0 0 0l159-159c23-23 57-23 76 0 0 0 0 0 0 0l439 435c23 23 57 23 80 0 0 0 0 0 0 0 22-19 22-56 0-79z" horiz-adv-x="1136" />

<glyph glyph-name="down-arrow" unicode="&#xe824;" d="M731 121c-16 15-40 15-56 0l-136-137v827c0 22-17 39-39 39-22 0-39-17-39-39v-827l-136 137c-16 15-40 15-56 0-15-15-15-40 0-55l203-205c0 0 0 0 0 0 16-15 40-15 56 0 0 0 0 0 0 0l203 205c15 15 15 40 0 55z" horiz-adv-x="1000" />

<glyph glyph-name="th" unicode="&#xe825;" d="M0-150l0 250 250 0 0-250-250 0z m0 375l0 250 250 0 0-250-250 0z m0 375l0 250 250 0 0-250-250 0z m375-750l0 250 250 0 0-250-250 0z m0 375l0 250 250 0 0-250-250 0z m0 375l0 250 250 0 0-250-250 0z m375-750l0 250 250 0 0-250-250 0z m0 375l0 250 250 0 0-250-250 0z m0 375l0 250 250 0 0-250-250 0z" horiz-adv-x="1000" />

<glyph glyph-name="th-list" unicode="&#xe826;" d="M0-150l0 250 250 0 0-250-250 0z m0 375l0 250 250 0 0-250-250 0z m0 375l0 250 250 0 0-250-250 0z m391-750l0 250 609 0 0-250-609 0z m0 375l0 250 609 0 0-250-609 0z m0 375l0 250 609 0 0-250-609 0z" horiz-adv-x="1000" />

<glyph glyph-name="forward" unicode="&#xe827;" d="M985 478l-417 271c-21 14-50-2-50-28v-140c-219-33-402-191-464-409l-53-185c-9-34 35-56 57-29 132 165 223 319 460 351v-130c0-26 29-41 50-27l417 271c20 13 20 42 0 55z m-402-239v106c0 18-16 33-35 32-160-10-309-88-409-213l-30-38c69 245 245 374 445 394 17 1 29 15 29 32v109l325-211-325-211z" horiz-adv-x="1000" />

<glyph glyph-name="printer" unicode="&#xe828;" d="M305-33h390c17 0 30 13 30 29s-13 30-30 30h-390c-16 0-30-13-30-30s14-29 30-29z m0 0m0 117h390c17 0 30 14 30 30s-13 29-30 29h-390c-16 0-30-13-30-29s14-30 30-30z m0 0m627 487h-94v211c0 37-31 68-68 68h-539c-38 0-69-31-69-68v-211h-94c-37 0-68-31-68-69v-421c0-38 31-69 68-69h94v-94c0-37 31-68 69-68h539c37 0 68 31 68 68v94h94c37 0 68 31 68 69v421c0 38-31 69-68 69z m-711 211c0 5 4 9 10 9h539c5 0 9-4 9-9v-211h-558z m558-741v-123c0-5-4-9-9-9h-539c-6 0-10 4-10 9v284h558z m162 40c0-6-4-10-9-10h-94v160c0 16-13 29-29 29h-618c-16 0-29-13-29-29v-160h-94c-5 0-9 4-9 10v421c0 6 4 10 9 10h864c5 0 9-4 9-10z m0 0m-68 334c0-17-13-30-29-30s-29 13-29 30 13 29 29 29 29-13 29-29z m0 0" horiz-adv-x="1000" />

<glyph glyph-name="hurt-zalivka" unicode="&#xe829;" d="M927 705c-49 56-118 87-193 87-105 0-172-63-209-116-10-14-18-28-25-41-7 13-15 27-25 41-37 53-104 116-209 116-75 0-144-31-193-87-47-53-73-125-73-201 0-84 32-161 102-244 63-74 152-151 256-239 39-33 79-67 121-104l2-2c5-5 12-7 19-7 7 0 14 2 19 7l2 2c42 37 82 71 121 104 104 88 194 165 256 239 70 83 102 160 102 244 0 76-26 148-73 201z" horiz-adv-x="1000" />

<glyph glyph-name="libra-zalivka" unicode="&#xe82a;" d="M1000 345l-140 365h55c15 0 25 15 25 30 0 15-10 25-25 25h-390v55c0 15-10 30-25 30-15 0-30-15-30-30 0 0 0 0 0 0v-60h-390c-15 5-25-10-25-25 0-15 10-25 25-25h60l-140-365c0-5 0-5 0-10-5-100 70-185 170-190 100-5 185 70 190 170 0 5 0 15 0 20 0 5 0 5 0 10l-140 365h255v-675c-105-10-180-75-180-155 0-15 10-25 25-30h360c15 0 25 15 25 30 0 0 0 0 0 0 0 80-75 145-180 155v675h255l-140-365c0-5 0-5-5-10-5-100 70-185 170-190s185 70 190 170c0 5 0 15 0 20 5 0 5 5 5 10z" horiz-adv-x="1000" />

<glyph glyph-name="cancel-circled2" unicode="&#xe82b;" d="M0 350q0 207 147 354t353 146 354-146 146-354-146-354-354-146-353 146-147 354z m109 0q0-162 115-276t276-115 276 115 115 276-115 276-276 115-276-115-115-276z m145-137l137 137-137 137 109 109 137-137 137 137 109-109-137-137 137-137-109-109-137 137-137-137z" horiz-adv-x="1000" />

<glyph glyph-name="checkbox_icon" unicode="&#xe82c;" d="M833 350a333 333 0 0 0-333-333 333 333 0 0 0-333 333 333 333 0 0 0 333 333c32 0 63-4 92-13l65 66c-48 20-101 31-157 31a417 417 0 0 1-417-417 417 417 0 0 1 417-417 417 417 0 0 1 417 417m-587 80l-59-59 187-188 417 417-59 59-358-358-128 129z" horiz-adv-x="1000" />

<glyph glyph-name="close-circular-button-symbol" unicode="&#xe82d;" d="M679 529c-13 12-33 12-45 0l-134-135-133 133c-12 12-32 12-44 0-12-12-12-32 0-44l133-133-134-133c-12-12-12-32 0-45s33-12 45 0l133 134 133-133c12-12 32-12 44 0 12 13 12 32 0 44l-133 133 135 134c12 12 12 32 0 45z m-179 321c-276 0-500-224-500-500s224-500 500-500c276 0 500 224 500 500s-224 500-500 500z m0-938c-242 0-437 196-437 438 0 242 195 438 437 438 242 0 438-196 438-438 0-242-196-438-438-438z" horiz-adv-x="1000" />
</font>
</defs>
</svg>
