<svg xmlns="http://www.w3.org/2000/svg" width="17.406" height="14.53" viewBox="0 0 17.406 14.53">
  <defs>
    <style>
      .cls-1 {
        fill: #41abe1;
        fill-rule: evenodd;
      }
    </style>
  </defs>
  <path id="twitter" class="cls-1" d="M996.126,9070.27a6.533,6.533,0,0,1-2.054.57,3.685,3.685,0,0,0,1.574-2.02,7.356,7.356,0,0,1-2.267.9,3.5,3.5,0,0,0-2.614-1.15,3.618,3.618,0,0,0-3.573,3.66,4.306,4.306,0,0,0,.08.85,10.109,10.109,0,0,1-7.361-3.82,3.572,3.572,0,0,0-.48,1.83,3.7,3.7,0,0,0,1.6,3.06,3.592,3.592,0,0,1-1.626-.47v0.06a3.622,3.622,0,0,0,2.88,3.58,3.582,3.582,0,0,1-.934.13,4.658,4.658,0,0,1-.666-0.05,3.6,3.6,0,0,0,3.333,2.54,7.1,7.1,0,0,1-4.453,1.56,8.169,8.169,0,0,1-.854-0.06,9.939,9.939,0,0,0,5.494,1.64c6.587,0,10.187-5.57,10.187-10.44v-0.46a8.591,8.591,0,0,0,1.734-1.91h0Z" transform="translate(-978.719 -9068.56)"/>
</svg>
