<svg xmlns="http://www.w3.org/2000/svg" width="17.59" height="10.9" viewBox="0 0 17.59 10.9">
  <defs>
    <style>
      .cls-1 {
        fill: #193694;
        fill-rule: evenodd;
      }
    </style>
  </defs>
  <path id="vk" class="cls-1" d="M1048.07,9079.76a8.364,8.364,0,0,0-1.75-2.18c-1.47-1.47-1.27-1.23.5-3.78,1.08-1.55,1.51-2.5,1.38-2.9a0.966,0.966,0,0,0-.92-0.29l-2.65.02a0.57,0.57,0,0,0-.34.06,0.857,0.857,0,0,0-.23.31,17.068,17.068,0,0,1-.98,2.22c-1.17,2.15-1.64,2.27-1.84,2.14-0.44-.32-0.33-1.26-0.33-1.93,0-2.08.29-2.95-.57-3.18a4.542,4.542,0,0,0-1.24-.13,5.287,5.287,0,0,0-2.19.24c-0.3.16-.54,0.51-0.39,0.53a1.191,1.191,0,0,1,.78.43,2.891,2.891,0,0,1,.26,1.28s0.15,2.46-.37,2.77c-0.35.21-.84-0.22-1.89-2.18a18.091,18.091,0,0,1-.94-2.1,0.858,0.858,0,0,0-.22-0.32,1.171,1.171,0,0,0-.41-0.18l-2.51.02a0.812,0.812,0,0,0-.52.19,0.641,0.641,0,0,0-.01.48s1.97,4.96,4.2,7.46a5.8,5.8,0,0,0,4.36,2.14h1.05a0.853,0.853,0,0,0,.48-0.23,0.829,0.829,0,0,0,.14-0.49s-0.02-1.52.64-1.75c0.64-.22,1.47,1.47,2.35,2.12a1.608,1.608,0,0,0,1.17.39l2.34-.04S1048.65,9080.8,1048.07,9079.76Z" transform="translate(-1030.66 -9070.13)"/>
</svg>
