<svg xmlns="http://www.w3.org/2000/svg" width="14.5" height="14.53" viewBox="0 0 14.5 14.53">
  <defs>
    <style>
      .cls-1 {
        fill: #007ab9;
        fill-rule: evenodd;
      }
    </style>
  </defs>
  <path id="linkedin" class="cls-1" d="M942.886,9077.45v5.61h-3.11v-5.22c0-1.31-.441-2.21-1.578-2.21a1.734,1.734,0,0,0-1.6,1.19,2.165,2.165,0,0,0-.093.8v5.46h-3.11s0.047-8.85,0-9.77h3.11v1.38l-0.023.02H936.5v-0.02a3.109,3.109,0,0,1,2.809-1.63c2.042,0,3.574,1.38,3.574,4.39h0Zm-12.742-8.88a1.7,1.7,0,1,0-.047,3.4h0.024a1.7,1.7,0,1,0,.023-3.4h0Zm-1.579,14.49h3.111v-9.78h-3.111v9.78Z" transform="translate(-928.375 -9068.56)"/>
</svg>
