<svg xmlns="http://www.w3.org/2000/svg" width="17.34" height="11.65" viewBox="0 0 17.34 11.65">
  <defs>
    <style>
      .cls-1 {
        fill: #ed1c24;
        fill-rule: evenodd;
      }
    </style>
  </defs>
  <path id="youtube" class="cls-1" d="M1099.42,9071.94a2.13,2.13,0,0,0-1.52-1.47,52.426,52.426,0,0,0-6.79-.36,53.768,53.768,0,0,0-6.78.35,2.174,2.174,0,0,0-1.53,1.48,23.147,23.147,0,0,0,0,8.02,2.126,2.126,0,0,0,1.53,1.47,52.366,52.366,0,0,0,6.78.36,55.481,55.481,0,0,0,6.79-.34,2.13,2.13,0,0,0,1.52-1.47,21.044,21.044,0,0,0,.36-4.01A19.606,19.606,0,0,0,1099.42,9071.94Zm-10.03,6.51v-5l4.51,2.5Z" transform="translate(-1082.44 -9070.13)"/>
</svg>
